<svg id="Camada_1" xmlns="http://www.w3.org/2000/svg" viewBox="0 0 161.7 159.4"><style>.st0{fill:#8FCDF3;} .st1{fill:none;stroke:#BABCBE;stroke-width:10;stroke-linecap:round;stroke-miterlimit:10;}</style><path class="st0" d="M9.2 147.9l-.2-1.8h-.1c-.8 1.1-2.4 2.2-4.4 2.2-2.9 0-4.4-2.1-4.4-4.2 0-3.5 3.1-5.4 8.7-5.4v-.3c0-1.2-.3-3.4-3.3-3.4-1.3 0-2.8.4-3.8 1.1l-.7-1.7c1.2-.8 2.9-1.3 4.8-1.3 4.4 0 5.5 3 5.5 5.9v5.4c0 1.3.1 2.5.2 3.5H9.2zm-.4-7.4c-2.9-.1-6.2.5-6.2 3.3 0 1.7 1.1 2.5 2.5 2.5 1.9 0 3.1-1.2 3.5-2.4.1-.3.2-.6.2-.8v-2.6zM18.7 129.2v4.2h3.8v2h-3.8v7.8c0 1.8.5 2.8 2 2.8.7 0 1.2-.1 1.5-.2l.1 2c-.5.2-1.3.4-2.3.4-1.2 0-2.2-.4-2.9-1.1-.8-.8-1-2.1-1-3.8v-7.9h-2.3v-2h2.3v-3.5l2.6-.7zM26.7 141.1c.1 3.6 2.3 5 5 5 1.9 0 3-.3 4-.8l.5 1.9c-.9.4-2.5.9-4.8.9-4.5 0-7.1-2.9-7.1-7.3s2.6-7.8 6.8-7.8c4.7 0 6 4.2 6 6.8 0 .5-.1 1-.1 1.2H26.7zm7.7-1.9c0-1.7-.7-4.3-3.7-4.3-2.7 0-3.8 2.5-4 4.3h7.7zm.7-12.1l-3.7 4.3h-1.9l2.6-4.3h3zM70.7 129.7c0 12.2-4.5 18.9-12.4 18.9-7 0-11.7-6.5-11.8-18.4 0-12 5.2-18.6 12.4-18.6 7.5 0 11.8 6.7 11.8 18.1zm-19.5.5c0 9.3 2.9 14.6 7.3 14.6 4.9 0 7.3-5.8 7.3-14.9 0-8.8-2.3-14.6-7.3-14.6-4.2 0-7.3 5.2-7.3 14.9zM74.7 138.8c0-4.5 2.7-7.7 7.1-9.6l-.1-.2c-4-1.9-5.7-4.9-5.7-8 0-5.7 4.8-9.5 11.1-9.5 6.9 0 10.4 4.3 10.4 8.8 0 3-1.5 6.3-5.9 8.4v.2c4.5 1.8 7.2 4.9 7.2 9.2 0 6.2-5.3 10.4-12.2 10.4-7.4 0-11.9-4.4-11.9-9.7zm19.2-.2c0-4.3-3-6.4-7.9-7.8-4.2 1.2-6.4 4-6.4 7.4-.2 3.6 2.6 6.8 7.1 6.8 4.4 0 7.2-2.7 7.2-6.4zm-13.3-17.9c0 3.6 2.7 5.5 6.8 6.6 3.1-1 5.4-3.2 5.4-6.5 0-2.9-1.7-5.8-6-5.8-4 0-6.2 2.7-6.2 5.7zM109.7 133.5h.1c.7-.9 1.6-2.1 2.4-3l7.8-9.2h5.8l-10.3 10.9 11.7 15.7h-5.9l-9.2-12.8-2.5 2.8v10h-4.8v-39h4.8v24.6zM153.6 121.3c-.1 1.9-.2 4.1-.2 7.3v15.5c0 6.1-1.2 9.8-3.8 12.2-2.6 2.4-6.3 3.2-9.7 3.2-3.2 0-6.7-.8-8.9-2.2l1.2-3.7c1.8 1.1 4.5 2.1 7.8 2.1 4.9 0 8.6-2.6 8.6-9.3v-3h-.1c-1.5 2.5-4.3 4.5-8.5 4.5-6.6 0-11.3-5.6-11.3-13 0-9 5.9-14.1 12-14.1 4.6 0 7.1 2.4 8.3 4.6h.1l.2-4h4.3zm-5 10.5c0-.8-.1-1.5-.3-2.2-.9-2.8-3.2-5.1-6.8-5.1-4.6 0-7.9 3.9-7.9 10.1 0 5.2 2.6 9.6 7.9 9.6 3 0 5.7-1.9 6.7-4.9.3-.8.4-1.8.4-2.6v-4.9z"/><g><path class="st0" d="M154.8 19.3h-3.5c-.4 6.7-4.5 11.9-9.5 11.9s-9.1-5.2-9.5-11.9h-4.7c-3.8 0-6.9 4.2-6.9 9.4v16.7h41.1V28.7c-.1-5.2-3.2-9.4-7-9.4"/><path class="st0" d="M150.8 11.2c0 6.2-4.1 11.2-9.1 11.2s-9.1-5-9.1-11.2S136.7 0 141.7 0c5.1 0 9.1 5 9.1 11.2"/></g><g><path class="st0" d="M26.1 26.3c0 12.2-4.5 18.9-12.4 18.9-7 0-11.7-6.5-11.8-18.4 0-12 5.2-18.6 12.4-18.6 7.5 0 11.8 6.7 11.8 18.1zm-19.4.5c0 9.3 2.9 14.6 7.3 14.6 4.9 0 7.3-5.8 7.3-14.9 0-8.8-2.3-14.6-7.3-14.6-4.2 0-7.3 5.2-7.3 14.9zM41.1 13.3H41l-6.2 3.4-1-3.7 7.8-4.2h4.1v35.7H41V13.3zM74.3 17.9l3.8 5.7c1 1.5 1.8 2.9 2.7 4.3h.2c.9-1.6 1.8-3 2.6-4.4l3.7-5.7h5.2l-9.1 12.9 9.3 13.7h-5.5l-3.9-6c-1-1.5-1.9-3-2.9-4.6h-.1c-.9 1.6-1.8 3-2.8 4.6l-3.8 6h-5.3l9.5-13.6-9-13h5.4z"/></g><path class="st1" d="M99.4 66.9L78.2 88.2 56.9 66.9"/></svg>