<svg id="Camada_1" xmlns="http://www.w3.org/2000/svg" viewBox="0 0 517.3 96.1"><style>.st0{fill:#8FCDF3;} .st1{fill:none;stroke:#BABCBE;stroke-width:10;stroke-linecap:round;stroke-miterlimit:10;} .st2{fill:#262424;}</style><path class="st0" d="M410.7 67.7v-3l3.8-3.7c9.1-8.7 13.3-13.3 13.3-18.7 0-3.6-1.8-7-7.1-7-3.2 0-5.9 1.6-7.6 3l-1.5-3.4c2.5-2.1 6-3.6 10.1-3.6 7.7 0 10.9 5.3 10.9 10.4 0 6.6-4.8 11.9-12.3 19.2l-2.9 2.6v.1h16.1v4h-22.8zM440 62.1c1.4.9 4.6 2.3 7.9 2.3 6.2 0 8.1-4 8.1-6.9-.1-5-4.6-7.1-9.2-7.1h-2.7v-3.6h2.7c3.5 0 8-1.8 8-6 0-2.9-1.8-5.4-6.3-5.4-2.9 0-5.6 1.3-7.1 2.4l-1.3-3.5c1.9-1.4 5.5-2.7 9.3-2.7 7 0 10.2 4.2 10.2 8.5 0 3.7-2.2 6.8-6.6 8.4v.1c4.4.9 8 4.2 8 9.2 0 5.7-4.5 10.7-13 10.7-4 0-7.5-1.3-9.3-2.4l1.3-4zM473.4 53.3h.1c.7-.9 1.6-2.1 2.4-3l7.8-9.2h5.8L479.2 52l11.7 15.7H485l-9.2-12.8-2.5 2.8v10h-4.8v-39h4.8v24.6zM517.3 41c-.1 1.9-.2 4.1-.2 7.3v15.5c0 6.1-1.2 9.8-3.8 12.2-2.6 2.4-6.3 3.2-9.7 3.2-3.2 0-6.7-.8-8.9-2.2l1.2-3.7c1.8 1.1 4.5 2.1 7.8 2.1 4.9 0 8.6-2.6 8.6-9.3v-3h-.1c-1.5 2.5-4.3 4.5-8.5 4.5-6.6 0-11.3-5.6-11.3-13 0-9 5.9-14.1 12-14.1 4.6 0 7.1 2.4 8.3 4.6h.1l.2-4h4.3zm-5 10.6c0-.8-.1-1.5-.3-2.2-.9-2.8-3.2-5.1-6.8-5.1-4.6 0-7.9 3.9-7.9 10.1 0 5.2 2.6 9.6 7.9 9.6 3 0 5.7-1.9 6.7-4.9.3-.8.4-1.8.4-2.6v-4.9zM420.4 20.8l-.2-1.8h-.1c-.8 1.1-2.4 2.2-4.4 2.2-2.9 0-4.4-2.1-4.4-4.2 0-3.5 3.1-5.4 8.7-5.4v-.3c0-1.2-.3-3.4-3.3-3.4-1.4 0-2.8.4-3.8 1.1l-.6-1.7c1.2-.8 2.9-1.3 4.8-1.3 4.4 0 5.5 3 5.5 5.9v5.4c0 1.3.1 2.5.2 3.5h-2.4zm-.4-7.4c-2.9-.1-6.1.5-6.1 3.3 0 1.7 1.1 2.5 2.5 2.5 1.9 0 3.1-1.2 3.5-2.4.1-.3.2-.6.2-.8v-2.6zM429.9 2.1v4.2h3.8v2h-3.8v7.8c0 1.8.5 2.8 2 2.8.7 0 1.2-.1 1.5-.2l.1 2c-.5.2-1.3.4-2.3.4-1.2 0-2.2-.4-2.8-1.1-.8-.8-1-2.1-1-3.8V8.3h-2.3v-2h2.3V2.8l2.5-.7zM437.9 14c.1 3.6 2.3 5 5 5 1.9 0 3-.3 4-.8l.4 1.9c-.9.4-2.5.9-4.8.9-4.5 0-7.1-2.9-7.1-7.3s2.6-7.8 6.8-7.8c4.7 0 6 4.2 6 6.8 0 .5-.1 1-.1 1.2h-10.2zm7.8-1.9c0-1.7-.7-4.3-3.7-4.3-2.7 0-3.8 2.5-4 4.3h7.7zm.6-12.1l-3.7 4.3h-1.9l2.6-4.3h3z"/><g><path class="st0" d="M422.7 95.3c-.7.4-2.2.8-4.2.8-4.4 0-7.2-3-7.2-7.4 0-4.5 3.1-7.7 7.8-7.7 1.6 0 2.9.4 3.7.8l-.6 2c-.6-.4-1.6-.7-3.1-.7-3.3 0-5.1 2.5-5.1 5.5 0 3.4 2.2 5.4 5 5.4 1.5 0 2.5-.4 3.2-.7l.5 2zM433.8 95.8l-.2-1.8h-.1c-.8 1.1-2.4 2.2-4.4 2.2-2.9 0-4.4-2.1-4.4-4.2 0-3.5 3.1-5.4 8.7-5.4v-.3c0-1.2-.3-3.4-3.3-3.4-1.3 0-2.8.4-3.8 1.1l-.6-1.7c1.2-.8 2.9-1.3 4.8-1.3 4.4 0 5.5 3 5.5 5.9v5.4c0 1.3.1 2.5.2 3.5h-2.4zm-.3-7.4c-2.9-.1-6.2.5-6.2 3.3 0 1.7 1.1 2.5 2.5 2.5 1.9 0 3.1-1.2 3.5-2.4.1-.3.2-.6.2-.8v-2.6zM452.8 74.5V92c0 1.3 0 2.8.1 3.8h-2.4l-.1-2.5h-.1c-.8 1.6-2.6 2.8-4.9 2.8-3.5 0-6.2-3-6.2-7.4 0-4.8 3-7.8 6.5-7.8 2.2 0 3.7 1.1 4.4 2.2h.1v-8.7h2.6zm-2.6 12.7c0-.3 0-.8-.1-1.1-.4-1.7-1.8-3.1-3.8-3.1-2.7 0-4.3 2.4-4.3 5.6 0 2.9 1.4 5.4 4.3 5.4 1.8 0 3.4-1.2 3.9-3.2.1-.4.1-.7.1-1.1v-2.5zM465.2 95.8L465 94h-.1c-.8 1.1-2.4 2.2-4.4 2.2-2.9 0-4.4-2.1-4.4-4.2 0-3.5 3.1-5.4 8.7-5.4v-.3c0-1.2-.3-3.4-3.3-3.4-1.3 0-2.8.4-3.8 1.1l-.6-1.7c1.2-.8 2.9-1.3 4.8-1.3 4.4 0 5.5 3 5.5 5.9v5.4c0 1.3.1 2.5.2 3.5h-2.4zm-.4-7.4c-2.9-.1-6.2.5-6.2 3.3 0 1.7 1.1 2.5 2.5 2.5 1.9 0 3.1-1.2 3.5-2.4.1-.3.2-.6.2-.8v-2.6z"/></g><g><path class="st0" d="M344.2 60.2c1.6-.9 2.7-2.5 2.7-4.3V36c0-2.7-2.4-5-5.5-5H340v24.7c2.2.6 3.8 2.3 4.2 4.5zM318.6 60.9h14.1c.2-2.6 2.1-4.8 4.6-5.3V31h-3.4v-.8c0-3.5-3.2-6.4-7.1-6.4H325c-3.9 0-7.1 2.9-7.1 6.4v.8H314v24.6c2.6.6 4.4 2.7 4.6 5.3zm2.6-30.7c0-1.9 1.7-3.5 3.9-3.5h1.8c2.1 0 3.9 1.6 3.9 3.5v.8h-9.6v-.8zM307.1 60.3c.4-2.3 2.1-4.1 4.3-4.7V31h-1.8c-3 0-5.5 2.2-5.5 5v19.9c0 1.9 1.2 3.6 3 4.4zM317.2 61.9c0-2.4-2-4.4-4.4-4.4-2.4 0-4.4 2-4.4 4.4 0 2.4 2 4.4 4.4 4.4 2.4 0 4.4-2 4.4-4.4zM343.1 61.9c0-2.4-2-4.4-4.4-4.4-2.4 0-4.4 2-4.4 4.4 0 2.4 2 4.4 4.4 4.4 2.4 0 4.4-2 4.4-4.4z"/><g><path class="st0" d="M263.4 47.4c0 12.2-4.5 18.9-12.4 18.9-7 0-11.7-6.5-11.8-18.4 0-12 5.2-18.6 12.4-18.6 7.5 0 11.8 6.7 11.8 18.1zm-19.5.6c0 9.3 2.9 14.6 7.3 14.6 4.9 0 7.3-5.8 7.3-14.9 0-8.8-2.3-14.6-7.3-14.6-4.2 0-7.3 5.1-7.3 14.9zM267.8 65.7v-3l3.8-3.7c9.1-8.7 13.3-13.3 13.3-18.7 0-3.6-1.8-7-7.1-7-3.2 0-5.9 1.6-7.6 3l-1.5-3.4c2.5-2.1 6-3.6 10.1-3.6 7.7 0 10.9 5.3 10.9 10.4 0 6.6-4.8 11.9-12.3 19.2l-2.9 2.6v.1h16.1v4h-22.8z"/></g></g><path class="st1" d="M192.2 30.4l21.2 21.2-21.2 21.3M366.9 30.4l21.3 21.2-21.3 21.3"/><g><path class="st2" d="M0 57.1V44.2h4.1c.8 0 1.5.1 2 .2.6.2 1 .4 1.4.7.4.3.6.6.8 1.1.2.4.3.9.3 1.4 0 .3 0 .6-.1.9-.1.3-.2.6-.5.8s-.4.5-.7.7c-.3.2-.7.4-1.1.5.9.2 1.7.5 2.1 1s.7 1.1.7 1.9c0 .5-.1 1-.3 1.5-.2.5-.5.8-.9 1.2-.4.3-.9.6-1.4.8-.6.2-1.2.3-1.9.3H0zM1.7 50H4c.5 0 .9-.1 1.3-.2s.7-.3.9-.5c.2-.2.4-.4.5-.7s.2-.6.2-.9c0-.8-.2-1.3-.7-1.7-.5-.4-1.2-.5-2.1-.5H1.7V50zm0 1.2v4.5h2.8c.5 0 .9-.1 1.3-.2s.7-.3.9-.5.4-.5.5-.7.2-.6.2-.9c0-.7-.2-1.2-.7-1.6-.5-.4-1.2-.6-2.1-.6H1.7zM18.1 57.1h-.7c-.2 0-.3 0-.4-.1-.1 0-.2-.1-.2-.3l-.2-.8c-.2.2-.5.4-.7.6-.2.2-.5.3-.7.4s-.5.2-.8.3c-.3.1-.6.1-.9.1-.4 0-.7 0-1-.1-.3-.1-.6-.2-.8-.4-.2-.2-.4-.5-.5-.8-.1-.3-.2-.7-.2-1.1 0-.4.1-.7.3-1s.5-.6 1-.9c.4-.3 1-.5 1.7-.6.7-.2 1.6-.2 2.6-.2v-.7c0-.7-.2-1.3-.5-1.6-.3-.4-.8-.5-1.3-.5-.4 0-.7 0-1 .1s-.5.2-.7.3c-.2.1-.4.2-.5.3-.1.1-.3.1-.4.1-.1 0-.2 0-.3-.1l-.2-.2-.3-.5c.5-.5 1-.8 1.6-1.1s1.2-.4 1.9-.4c.5 0 1 .1 1.4.3s.7.4 1 .7c.3.3.5.7.6 1.1.1.4.2.9.2 1.4v5.7zm-4.2-1c.3 0 .5 0 .8-.1.2-.1.5-.1.7-.2.2-.1.4-.2.6-.4s.4-.3.6-.5V53c-.7 0-1.4 0-1.9.1s-.9.2-1.3.4c-.3.2-.6.3-.7.5s-.2.4-.2.7c0 .2 0 .5.1.6.1.2.2.3.3.4s.3.2.5.2c.1.2.3.2.5.2zM23.6 47.8c.4 0 .8 0 1.1.1.3.1.7.2.9.4h2.5v.7c0 .2-.1.3-.4.4l-1 .1c.2.4.3.8.3 1.3 0 .4-.1.8-.3 1.2s-.4.7-.7.9c-.3.3-.7.5-1.1.6-.4.1-.9.2-1.4.2-.4 0-.8-.1-1.2-.2-.2.1-.3.3-.4.4-.1.1-.1.3-.1.4 0 .2.1.4.3.5.2.1.4.2.7.2.3 0 .6.1 1 .1h1.1s.8 0 1.1.1c.4.1.7.2 1 .3.3.2.5.4.7.6s.3.6.3 1-.1.8-.3 1.1c-.2.4-.5.7-.8 1-.4.3-.8.5-1.3.7-.5.2-1.1.3-1.8.3s-1.2-.1-1.8-.2c-.5-.1-.9-.3-1.2-.5s-.6-.5-.7-.8-.2-.6-.2-.9c0-.5.1-.8.4-1.1.3-.3.7-.6 1.2-.8-.3-.1-.5-.3-.6-.5s-.2-.5-.2-.8c0-.1 0-.3.1-.4 0-.1.1-.3.2-.4s.2-.3.4-.4c.1-.1.3-.2.5-.3-.5-.3-.8-.6-1.1-1-.3-.4-.4-.9-.4-1.5 0-.4.1-.8.3-1.2.2-.4.4-.7.7-.9.3-.3.7-.5 1.1-.6.1 0 .6-.1 1.1-.1zm2.8 9.8c0-.2-.1-.4-.2-.6s-.3-.2-.5-.3c-.2-.1-.5-.1-.7-.2-.3 0-.6-.1-.9-.1h-1c-.3 0-.6 0-.9-.1-.3.2-.6.4-.8.6s-.3.5-.3.8c0 .2.1.4.2.6.1.2.3.3.5.5.2.1.5.2.8.3.3.1.7.1 1.2.1.4 0 .8 0 1.2-.1s.6-.2.9-.3c.2-.1.4-.3.5-.5v-.7zm-2.8-4.9c.3 0 .6 0 .9-.1.2-.1.5-.2.6-.4.2-.2.3-.4.4-.6.1-.2.1-.5.1-.7 0-.6-.2-1-.5-1.3-.3-.3-.8-.5-1.5-.5-.6 0-1.1.2-1.5.5-.3.3-.5.8-.5 1.3 0 .3 0 .5.1.7.1.2.2.4.4.6.2.2.4.3.6.4.3 0 .6.1.9.1zM36.4 57.1h-.7c-.2 0-.3 0-.4-.1-.1 0-.2-.1-.2-.3l-.1-.8c-.2.2-.5.4-.7.6-.2.2-.5.3-.7.4s-.5.2-.8.3c-.3.1-.6.1-.9.1-.4 0-.7 0-1-.1-.3-.1-.6-.2-.8-.4-.2-.2-.4-.5-.5-.8-.1-.3-.2-.7-.2-1.1 0-.4.1-.7.3-1s.5-.6 1-.9c.4-.3 1-.5 1.7-.6.7-.2 1.6-.2 2.6-.2v-.7c0-.7-.2-1.3-.5-1.6-.3-.4-.8-.5-1.3-.5-.4 0-.7 0-1 .1s-.5.2-.7.3c-.2.1-.4.2-.5.3-.1.1-.3.1-.4.1-.1 0-.2 0-.3-.1-.2-.1-.3-.2-.3-.3l-.3-.5c.5-.5 1-.8 1.6-1.1s1.2-.4 1.9-.4c.5 0 1 .1 1.4.3s.7.4 1 .7c.3.3.5.7.6 1.1.1.4.2.9.2 1.4v5.8zm-4.1-1c.3 0 .5 0 .8-.1.2-.1.5-.1.7-.2.2-.1.4-.2.6-.4s.4-.3.6-.5V53c-.7 0-1.4 0-1.9.1s-.9.2-1.3.4c-.3.2-.6.3-.7.5s-.2.4-.2.7c0 .2 0 .5.1.6.1.2.2.3.3.4s.3.2.5.2c.1.2.2.2.5.2zM41.9 47.8c.4 0 .8 0 1.1.1.3.1.7.2.9.4h2.5v.7c0 .2-.1.3-.4.4l-1 .1c.2.4.3.8.3 1.3 0 .4-.1.8-.3 1.2s-.4.7-.7.9c-.3.3-.7.5-1.1.6-.4.1-.9.2-1.4.2-.4 0-.8-.1-1.2-.2-.2.1-.3.3-.4.4-.1.1-.1.3-.1.4 0 .2.1.4.3.5.2.1.4.2.7.2.3 0 .6.1 1 .1h1.1s.8 0 1.1.1c.4.1.7.2 1 .3.3.2.5.4.7.6s.3.6.3 1-.1.8-.3 1.1c-.2.4-.5.7-.8 1-.4.3-.8.5-1.3.7-.5.2-1.1.3-1.8.3s-1.2-.1-1.8-.2c-.5-.1-.9-.3-1.2-.5s-.6-.5-.7-.8-.4-.4-.4-.7c0-.5.1-.8.4-1.1.3-.3.7-.6 1.2-.8-.3-.1-.5-.3-.6-.5s-.2-.5-.2-.8c0-.1 0-.3.1-.4 0-.1.1-.3.2-.4s.2-.3.4-.4c.1-.1.3-.2.5-.3-.5-.3-.8-.6-1.1-1-.3-.4-.4-.9-.4-1.5 0-.4.1-.8.3-1.2.2-.4.4-.7.7-.9.3-.3.7-.5 1.1-.6.3-.2.8-.3 1.3-.3zm2.9 9.8c0-.2-.1-.4-.2-.6s-.3-.2-.5-.3c-.2-.1-.5-.1-.7-.2-.3 0-.6-.1-.9-.1h-1c-.3 0-.6 0-.9-.1-.3.2-.6.4-.8.6s-.3.5-.3.8c0 .2.1.4.2.6.1.2.3.3.5.5.2.1.5.2.8.3.3.1.7.1 1.2.1.4 0 .8 0 1.2-.1s.6-.2.9-.3c.2-.1.4-.3.5-.5-.1-.3 0-.5 0-.7zm-2.9-4.9c.3 0 .6 0 .9-.1.2-.1.5-.2.6-.4.2-.2.3-.4.4-.6.1-.2.1-.5.1-.7 0-.6-.2-1-.5-1.3-.3-.3-.8-.5-1.5-.5-.6 0-1.1.2-1.5.5-.3.3-.5.8-.5 1.3 0 .3 0 .5.1.7.1.2.2.4.4.6.2.2.4.3.6.4.3 0 .6.1.9.1zM51.6 47.9c.5 0 1.1.1 1.5.3.5.2.9.4 1.2.8.3.3.6.8.8 1.3.2.5.3 1.1.3 1.7 0 .3 0 .4-.1.5-.1.1-.2.1-.3.1h-6c0 .6.1 1.1.2 1.5s.3.8.6 1.1.6.5.9.6c.3.1.7.2 1.2.2.4 0 .7 0 1-.1.3-.1.5-.2.8-.3.2-.1.4-.2.5-.3s.3-.1.4-.1c.1 0 .2.1.3.2l.4.6c-.2.2-.4.4-.7.6-.3.2-.6.3-.9.4-.3.1-.6.2-1 .3-.3.1-.7.1-1 .1-.6 0-1.2-.1-1.7-.3-.5-.2-1-.5-1.4-.9s-.7-.9-.9-1.5c-.2-.6-.3-1.3-.3-2.1 0-.6.1-1.2.3-1.8s.5-1 .8-1.4c.4-.4.8-.7 1.3-1 .6-.4 1.2-.5 1.8-.5zm.1 1.1c-.8 0-1.4.2-1.8.7-.4.4-.7 1.1-.8 1.9h5c0-.4-.1-.7-.2-1s-.3-.6-.4-.8c-.2-.2-.4-.4-.7-.5-.4-.2-.7-.3-1.1-.3zM57.5 57.1V48h1c.2 0 .4.1.4.3l.1.9c.3-.4.7-.8 1.1-1 .4-.3.9-.4 1.5-.4s1.1.2 1.5.5c.4.3.7.8.8 1.4.1-.3.3-.6.5-.9s.4-.4.7-.6.5-.3.8-.3c.3-.1.6-.1.9-.1.5 0 .9.1 1.3.2.4.2.7.4 1 .7.3.3.5.7.6 1.1.1.4.2.9.2 1.5v5.8h-1.6v-5.8c0-.7-.2-1.3-.5-1.6-.3-.4-.8-.6-1.4-.6-.3 0-.5 0-.8.1-.2.1-.4.2-.6.4-.2.2-.3.4-.4.7s-.2.6-.2.9V57h-1.6v-5.8c0-.7-.1-1.3-.4-1.6s-.7-.5-1.3-.5c-.4 0-.8.1-1.1.3-.3.2-.6.5-.9.9v6.8h-1.6zM82.1 57.1c-.2 0-.4-.1-.4-.3l-.1-1.1c-.4.5-.8.9-1.3 1.1s-1.1.4-1.7.4c-.5 0-1-.1-1.4-.3-.4-.2-.8-.5-1.1-.9-.3-.4-.5-.9-.7-1.5s-.2-1.3-.2-2 .1-1.3.3-1.9c.2-.6.4-1.1.8-1.5.3-.4.8-.8 1.2-1s1-.4 1.7-.4c.6 0 1 .1 1.4.3s.8.5 1.1.8v-5.1h1.6V57h-1.2zM79 55.9c.5 0 1-.1 1.4-.4s.8-.6 1.1-1v-4.4c-.3-.4-.6-.7-1-.8-.4-.2-.7-.2-1.2-.2-.9 0-1.5.3-2 .9-.5.6-.7 1.5-.7 2.6 0 .6.1 1.1.2 1.5s.3.8.5 1c.2.3.4.5.7.6.3.2.7.2 1 .2zM89.4 47.9c.5 0 1.1.1 1.5.3.5.2.9.4 1.2.8.3.3.6.8.8 1.3.2.5.3 1.1.3 1.7 0 .3 0 .4-.1.5-.1.1-.2.1-.3.1h-6.1c0 .6.1 1.1.2 1.5s.3.8.6 1.1.6.5.9.6c.3.1.7.2 1.2.2.4 0 .7 0 1-.1.3-.1.5-.2.8-.3.2-.1.4-.2.5-.3s.3-.1.4-.1c.1 0 .2.1.3.2l.4.6c-.2.2-.4.4-.7.6-.3.2-.6.3-.9.4-.3.1-.6.2-1 .3-.3.1-.7.1-1 .1-.6 0-1.2-.1-1.7-.3-.5-.2-1-.5-1.4-.9s-.7-.9-.9-1.5c-.2-.6-.3-1.3-.3-2.1 0-.6.1-1.2.3-1.8s.5-1 .8-1.4c.4-.4.8-.7 1.3-1 .6-.4 1.2-.5 1.9-.5zm0 1.1c-.8 0-1.4.2-1.8.7-.4.4-.7 1.1-.8 1.9h5c0-.4-.1-.7-.2-1s-.3-.6-.4-.8c-.2-.2-.4-.4-.7-.5-.4-.2-.7-.3-1.1-.3zM100.4 49.5c-.1.1-.2.2-.3.2-.1 0-.2 0-.3-.1-.1-.1-.3-.1-.4-.2-.2-.1-.4-.2-.6-.2-.2-.1-.5-.1-.8-.1-.3 0-.5 0-.7.1l-.6.3c-.2.1-.3.3-.4.4-.1.2-.1.3-.1.5s.1.4.2.6c.1.2.3.3.5.4.2.1.5.2.8.3l.9.3.9.3c.3.1.5.3.8.5.2.2.4.4.5.7.1.3.2.6.2.9 0 .4-.1.8-.2 1.2s-.4.7-.7.9c-.3.3-.7.5-1.1.6-.4.1-.9.2-1.5.2s-1.2-.1-1.7-.3-1-.5-1.3-.8l.4-.6c0-.1.1-.1.2-.2.1 0 .2-.1.3-.1.1 0 .2 0 .3.1s.3.2.4.3l.6.3s.5.1.9.1c.3 0 .6 0 .8-.1l.6-.3c.2-.1.3-.3.3-.5.1-.2.1-.4.1-.6 0-.3-.1-.5-.2-.6-.1-.2-.3-.3-.5-.4-.2-.1-.5-.2-.8-.3L97 53l-.9-.3c-.3-.1-.5-.3-.8-.5-.2-.2-.4-.4-.5-.7-.1-.3-.2-.6-.2-1 0-.3.1-.7.2-1s.4-.6.6-.8.6-.4 1-.6c.4-.1.9-.2 1.4-.2.6 0 1.1.1 1.6.3.5.2.9.4 1.2.8l-.2.5zM103 60.2V48h1c.2 0 .4.1.4.3l.1 1.1c.4-.5.8-.9 1.3-1.1s1.1-.4 1.7-.4c.5 0 1 .1 1.4.3.4.2.8.5 1.1.9.3.4.5.9.7 1.5s.2 1.3.2 2-.1 1.3-.3 1.9c-.2.6-.4 1.1-.8 1.5-.3.4-.7.8-1.2 1-.5.2-1 .4-1.7.4-.6 0-1-.1-1.4-.3-.4-.2-.8-.5-1.1-.8v4H103zm4.1-11.1c-.5 0-1 .1-1.4.4-.4.2-.8.6-1.1 1v4.4c.3.4.6.7 1 .8.4.2.7.2 1.2.2.8 0 1.5-.3 2-.9.5-.6.7-1.5.7-2.6 0-.6-.1-1.1-.2-1.5s-.3-.8-.5-1c-.2-.3-.4-.5-.7-.6-.3-.1-.6-.2-1-.2zM119.7 57.1h-.7c-.2 0-.3 0-.4-.1-.1 0-.2-.1-.2-.3l-.2-.8c-.2.2-.5.4-.7.6-.2.2-.5.3-.7.4s-.5.2-.8.3c-.3.1-.6.1-.9.1-.4 0-.7 0-1-.1-.3-.1-.6-.2-.8-.4-.2-.2-.4-.5-.5-.8-.1-.3-.2-.7-.2-1.1 0-.4.1-.7.3-1s.5-.6 1-.9c.4-.3 1-.5 1.7-.6.7-.2 1.6-.2 2.6-.2v-.7c0-.7-.2-1.3-.5-1.6-.3-.4-.8-.5-1.3-.5-.4 0-.7 0-1 .1s-.5.2-.7.3c-.2.1-.4.2-.5.3-.1.1-.3.1-.4.1-.1 0-.2 0-.3-.1l-.2-.2-.3-.5c.5-.5 1-.8 1.6-1.1s1.2-.4 1.9-.4c.5 0 1 .1 1.4.3s.7.4 1 .7c.3.3.5.7.6 1.1.1.4.2.9.2 1.4v5.7zm-4.2-1c.3 0 .5 0 .8-.1.2-.1.5-.1.7-.2.2-.1.4-.2.6-.4s.4-.3.6-.5V53c-.7 0-1.4 0-1.9.1s-.9.2-1.3.4c-.3.2-.6.3-.7.5s-.2.4-.2.7c0 .2 0 .5.1.6.1.2.2.3.3.4s.3.2.5.2c.1.2.3.2.5.2zM128.3 49.6c0 .1-.1.1-.1.2 0 0-.1.1-.2.1s-.2 0-.3-.1c-.1-.1-.2-.2-.4-.2-.2-.1-.4-.2-.6-.2-.2-.1-.5-.1-.9-.1s-.8.1-1.2.2c-.3.2-.6.4-.9.7-.2.3-.4.7-.5 1.1-.1.4-.2.9-.2 1.4 0 .6.1 1 .2 1.5s.3.8.5 1.1c.2.3.5.5.8.7.3.2.7.2 1.1.2.4 0 .7 0 1-.1s.5-.2.6-.3.3-.2.4-.3.2-.1.3-.1c.1 0 .2.1.3.2l.5.6c-.4.5-.9.8-1.5 1.1-.6.2-1.2.3-1.9.3-.6 0-1.1-.1-1.6-.3-.5-.2-.9-.5-1.3-.9s-.6-.9-.9-1.5c-.2-.6-.3-1.2-.3-2 0-.7.1-1.3.3-1.9s.5-1.1.8-1.5c.4-.4.8-.7 1.3-1 .5-.2 1.1-.4 1.8-.4.6 0 1.2.1 1.7.3.5.2.9.5 1.3.9l-.1.3zM130.5 57.1V43.9h1.6v5.4c.4-.4.8-.7 1.3-1 .5-.2 1-.4 1.6-.4.5 0 .9.1 1.3.2.4.2.7.4 1 .7.3.3.4.7.6 1.1.1.4.2.9.2 1.4v5.8h-1.6v-5.8c0-.7-.2-1.2-.5-1.6-.3-.4-.8-.6-1.4-.6-.5 0-.9.1-1.3.3-.4.2-.8.5-1.1.9V57h-1.7zM147.2 57.1h-.7c-.2 0-.3 0-.4-.1-.1 0-.2-.1-.2-.3l-.2-.8c-.2.2-.5.4-.7.6-.2.2-.5.3-.7.4s-.5.2-.8.3c-.3.1-.6.1-.9.1-.4 0-.7 0-1-.1-.3-.1-.6-.2-.8-.4-.2-.2-.4-.5-.5-.8-.1-.3-.2-.7-.2-1.1 0-.4.1-.7.3-1s.5-.6 1-.9c.4-.3 1-.5 1.7-.6.7-.2 1.6-.2 2.6-.2v-.7c0-.7-.2-1.3-.5-1.6-.3-.4-.8-.5-1.3-.5-.4 0-.7 0-1 .1s-.5.2-.7.3c-.2.1-.4.2-.5.3-.1.1-.3.1-.4.1-.1 0-.2 0-.3-.1l-.2-.2-.3-.5c.5-.5 1-.8 1.6-1.1s1.2-.4 1.9-.4c.5 0 1 .1 1.4.3s.7.4 1 .7c.3.3.5.7.6 1.1.1.4.2.9.2 1.4v5.7zm-4.2-1c.3 0 .5 0 .8-.1.2-.1.5-.1.7-.2.2-.1.4-.2.6-.4s.4-.3.6-.5V53c-.7 0-1.4 0-1.9.1s-.9.2-1.3.4c-.3.2-.6.3-.7.5s-.2.4-.2.7c0 .2 0 .5.1.6.1.2.2.3.3.4s.3.2.5.2c.1.2.3.2.5.2zM156 57.1c-.2 0-.4-.1-.4-.3l-.1-1.1c-.4.5-.8.9-1.3 1.1s-1.1.4-1.7.4c-.5 0-1-.1-1.4-.3-.4-.2-.8-.5-1.1-.9-.3-.4-.5-.9-.7-1.5s-.2-1.3-.2-2 .1-1.3.3-1.9c.2-.6.4-1.1.8-1.5.3-.4.8-.8 1.2-1s1-.4 1.7-.4c.6 0 1 .1 1.4.3s.8.5 1.1.8v-5.1h1.6V57H156zm-3.1-1.2c.5 0 1-.1 1.4-.4s.8-.6 1.1-1v-4.4c-.3-.4-.6-.7-1-.8-.4-.2-.7-.2-1.2-.2-.9 0-1.5.3-2 .9-.5.6-.7 1.5-.7 2.6 0 .6.1 1.1.2 1.5s.3.8.5 1c.2.3.4.5.7.6.3.2.7.2 1 .2zM166.4 57.1h-.7c-.2 0-.3 0-.4-.1-.1 0-.2-.1-.2-.3l-.2-.8c-.2.2-.5.4-.7.6-.2.2-.5.3-.7.4s-.5.2-.8.3c-.3.1-.6.1-.9.1-.4 0-.7 0-1-.1-.3-.1-.6-.2-.8-.4-.2-.2-.4-.5-.5-.8-.1-.3-.2-.7-.2-1.1 0-.4.1-.7.3-1s.5-.6 1-.9c.4-.3 1-.5 1.7-.6.7-.2 1.6-.2 2.6-.2v-.7c0-.7-.2-1.3-.5-1.6-.3-.4-.8-.5-1.3-.5-.4 0-.7 0-1 .1s-.5.2-.7.3c-.2.1-.4.2-.5.3-.1.1-.3.1-.4.1-.1 0-.2 0-.3-.1l-.2-.2-.3-.5c.5-.5 1-.8 1.6-1.1s1.2-.4 1.9-.4c.5 0 1 .1 1.4.3s.7.4 1 .7c.3.3.5.7.6 1.1.1.4.2.9.2 1.4v5.7zm-4.2-1c.3 0 .5 0 .8-.1.2-.1.5-.1.7-.2.2-.1.4-.2.6-.4s.4-.3.6-.5V53c-.7 0-1.4 0-1.9.1s-.9.2-1.3.4c-.3.2-.6.3-.7.5s-.2.4-.2.7c0 .2 0 .5.1.6.1.2.2.3.3.4s.3.2.5.2c.1.2.3.2.5.2z"/></g></svg>