<svg id="Camada_1" xmlns="http://www.w3.org/2000/svg" viewBox="0 0 25.9 24.6"><style>.st0{fill:#8FCDF3;}</style><path class="st0" d="M18.9 10.4v10.8c0 .5-.4.9-.9.9H3.3c-.5 0-.9-.4-.9-.9v-9.9c0-.3-.1-.6 0-.9V6.6c0-.5.4-.9.9-.9h11.9c.5-.5.9-1 1.4-1.5l1-1H3.3C1.5 3.2 0 4.7 0 6.6v14.7c0 1.8 1.5 3.3 3.3 3.3H18c1.8 0 3.3-1.5 3.3-3.3V7.7c-.9.9-1.6 1.8-2.4 2.7z"/><path class="st0" d="M25.6.8c-.3-.5-.9-.8-1.5-.8-.3 0-.7.1-1 .3-6.4 4.1-10.4 10.2-12.4 13.6L7.5 9.6c-.3-.4-.9-.7-1.4-.7-.4 0-.8.2-1.1.4-.4.3-.7.7-.7 1.2-.1.5.1 1 .4 1.3l5 6.5c.2.5.8.7 1.3.7h.2c.6-.1 1.2-.5 1.4-1.1 0-.1 4.1-9.3 12.4-14.6.4-.3.7-.7.8-1.1.1-.5.1-1-.2-1.4z"/></svg>