<svg id="Camada_1" xmlns="http://www.w3.org/2000/svg" viewBox="0 0 227.1 62.8"><style>.st0{fill:#8FCDF3;}</style><path class="st0" d="M180.4 9.9c-.1-2.5-.3-5.4-.3-7.7h-.1c-.6 2.1-1.3 4.3-2.2 6.7l-3.1 8.6H173l-2.9-8.4c-.8-2.5-1.6-4.8-2.1-6.9-.1 2.2-.2 5.2-.3 7.8l-.5 7.6H165L166.2 0h2.9l3 8.6c.7 2.2 1.3 4.1 1.8 6h.1c.4-1.8 1.1-3.7 1.9-6L179 0h2.9l1.1 17.7h-2.2l-.4-7.8zM189.2 12.2l-1.8 5.6H185L191 0h2.8l6.1 17.7h-2.4l-1.9-5.6h-6.4zm5.8-1.8l-1.7-5.1c-.4-1.2-.7-2.2-.9-3.2h-.1c-.3 1.1-.6 2.1-.9 3.2l-1.7 5.1h5.3zM211.8 17.7l-2.3-3.9-2.1-3.5h-.1c-.5 1-1 2-1.9 3.5l-2.1 3.9h-2.6l5.4-9-5.2-8.7h2.7l2.3 4.2c.7 1.2 1.2 2.1 1.6 3h.1c.5-1.1.9-1.9 1.6-3l2.4-4.2h2.6l-5.4 8.6 5.5 9.1h-2.5zM165.6 57.2v-2.6l3.3-3.2c8-7.6 11.6-11.7 11.7-16.4 0-3.2-1.5-6.1-6.2-6.1-2.8 0-5.2 1.4-6.7 2.7l-1.4-3c2.2-1.8 5.3-3.2 8.9-3.2 6.8 0 9.6 4.6 9.6 9.1 0 5.8-4.2 10.5-10.8 16.8l-2.5 2.3v.1h14.1v3.5h-20zM190 49.3c0-4 2.4-6.8 6.2-8.4v-.1c-3.5-1.6-5-4.3-5-7 0-5 4.2-8.3 9.7-8.3 6.1 0 9.1 3.8 9.1 7.7 0 2.7-1.3 5.5-5.2 7.3v.1c3.9 1.5 6.3 4.3 6.3 8.1 0 5.5-4.7 9.1-10.7 9.1-6.5 0-10.4-4-10.4-8.5zm16.9-.2c0-3.8-2.7-5.6-6.9-6.9-3.7 1.1-5.6 3.5-5.6 6.5-.1 3.2 2.3 6 6.3 6 3.7 0 6.2-2.4 6.2-5.6zm-11.7-15.7c0 3.1 2.4 4.8 6 5.8 2.7-.9 4.8-2.8 4.8-5.7 0-2.5-1.5-5.1-5.3-5.1-3.6 0-5.5 2.3-5.5 5zM227.1 30.4c0 3.9-3.1 6.5-6.5 6.5-3.8 0-6.3-2.8-6.3-6.2 0-3.7 2.8-6.5 6.4-6.5 4 0 6.4 3 6.4 6.2zm-10.1.3c0 2.2 1.6 4 3.8 4 2.2 0 3.8-1.8 3.8-4.1 0-1.8-1.1-4.1-3.8-4.1-2.6-.1-3.8 2.1-3.8 4.2z"/><g><path class="st0" d="M141.1 40.3V7.4c0-3.8-3-6.8-6.8-6.8s-6.8 3-6.8 6.8v32.9c-3.3 2.2-5.4 5.9-5.4 10.2 0 6.8 5.5 12.3 12.3 12.3 6.8 0 12.3-5.5 12.3-12.3 0-4.3-2.2-8.1-5.6-10.2zM134.3 59c-4.7 0-8.5-3.8-8.5-8.5 0-3.6 2.2-6.7 5.4-7.9V7.7c0-1.7 1.4-3.1 3.1-3.1 1.7 0 3.1 1.4 3.1 3.1v34.9c3.1 1.2 5.4 4.3 5.4 7.9-.1 4.7-3.9 8.5-8.5 8.5z"/><path class="st0" d="M144.8 38.3h6.2v1h-6.2zM144.8 35h4.2v1h-4.2zM144.8 31.6h6.2v1h-6.2zM144.8 28.2h4.2v1h-4.2zM144.8 24h6.2v1h-6.2zM144.8 20.7h4.2v1h-4.2zM144.8 17.3h6.2v1h-6.2zM144.8 14h4.2v1h-4.2zM144.8 10.5h6.2v1h-6.2zM144.8 7.1h4.2v1h-4.2zM144.8 3.7h6.2v1h-6.2z"/></g><g><path class="st0" d="M58.4 9.9c-.1-2.5-.3-5.4-.3-7.7H58c-.6 2.1-1.3 4.3-2.2 6.7l-3.1 8.6H51l-2.9-8.4c-.8-2.5-1.6-4.8-2.1-6.9-.1 2.2-.2 5.2-.3 7.8l-.5 7.6H43L44.2 0h2.9l3 8.6c.7 2.2 1.3 4.1 1.8 6h.1c.4-1.8 1.1-3.7 1.9-6L57.1 0H60l1.1 17.7h-2.2l-.5-7.8zM66.9 0v17.7h-2.3V0h2.3zM70.9 17.7V0h2.5l5.7 9c1.3 2.1 2.3 3.9 3.2 5.8h.1c-.2-2.4-.3-4.5-.3-7.3V0h2.2v17.7H82l-5.6-9c-1.2-2-2.4-4-3.3-5.9H73c.1 2.2.2 4.4.2 7.3v7.6h-2.3zM43.2 49.3c0-4 2.4-6.8 6.2-8.4v-.1c-3.5-1.6-5-4.3-5-7 0-5 4.2-8.3 9.7-8.3 6.1 0 9.1 3.8 9.1 7.7 0 2.7-1.3 5.5-5.2 7.3v.1c3.9 1.5 6.3 4.3 6.3 8.1 0 5.5-4.7 9.1-10.7 9.1-6.4 0-10.4-4-10.4-8.5zm16.9-.2c0-3.8-2.7-5.6-6.9-6.9-3.7 1.1-5.6 3.5-5.6 6.5-.1 3.2 2.3 6 6.3 6 3.8 0 6.2-2.4 6.2-5.6zM48.4 33.4c0 3.1 2.4 4.8 6 5.8 2.7-.9 4.8-2.8 4.8-5.7 0-2.5-1.5-5.1-5.3-5.1-3.5 0-5.5 2.3-5.5 5zM80.4 30.4c0 3.9-3.1 6.5-6.5 6.5-3.8 0-6.3-2.8-6.3-6.2 0-3.7 2.8-6.5 6.4-6.5 4 0 6.4 3 6.4 6.2zm-10.2.3c0 2.2 1.6 4 3.8 4 2.2 0 3.8-1.8 3.8-4.1 0-1.8-1.1-4.1-3.8-4.1-2.5-.1-3.8 2.1-3.8 4.2z"/><g><path class="st0" d="M22.6 38.3h6.2v1h-6.2zM22.6 35h4.2v1h-4.2zM22.6 31.6h6.2v1h-6.2zM22.6 28.2h4.2v1h-4.2zM22.6 24h6.2v1h-6.2zM22.6 20.7h4.2v1h-4.2zM22.6 17.3h6.2v1h-6.2zM22.6 14h4.2v1h-4.2zM22.6 10.5h6.2v1h-6.2zM22.6 7.1h4.2v1h-4.2zM22.6 3.7h6.2v1h-6.2z"/><path class="st0" d="M19 40.3V7.4c0-3.8-3-6.8-6.8-6.8s-6.8 3-6.8 6.8v32.9C2.2 42.6 0 46.3 0 50.5c0 6.8 5.5 12.3 12.3 12.3 6.8 0 12.3-5.5 12.3-12.3 0-4.3-2.2-8.1-5.6-10.2zM12.1 59c-4.7 0-8.5-3.8-8.5-8.5 0-3.6 2.4-6.7 5.3-7.9V31.3h6.4v11.3c3 1.2 5.3 4.3 5.3 7.9.1 4.7-3.8 8.5-8.5 8.5z"/></g></g></svg>