<svg id="Camada_1" xmlns="http://www.w3.org/2000/svg" viewBox="0 0 63.6 42.5"><style>.st0{fill:#8FCDF3;}</style><path class="st0" d="M33.4 38.5c0 2.2-1.8 4.1-4.1 4.1-2.2 0-4.1-1.8-4.1-4.1s1.8-4.1 4.1-4.1 4.1 1.8 4.1 4.1zM55 38.5c0 2.2-1.8 4.1-4.1 4.1-2.2 0-4.1-1.8-4.1-4.1s1.8-4.1 4.1-4.1 4.1 1.8 4.1 4.1zM23.1 33.6l-2.2-1.4-9.1-21.4H2.3C1 10.8 0 9.8 0 8.5c0-1.3 1-2.3 2.3-2.3h11l2.2 1.4L24.6 29h29.5c1.3 0 2.3 1 2.3 2.3 0 1.3-1 2.3-2.3 2.3h-31z"/><path class="st0" d="M62.5 7.8l.5-1.4c1.5-3.5-.4-6.4-4.2-6.4H23c-3.8 0-5.7 2.9-4.3 6.4l5.6 14.1c1.4 3.5 5.7 6.4 9.5 6.4H48c3 0 7.1-1.8 8.2-4.3 1.1-2.5 6.3-14.8 6.3-14.8z"/></svg>