<svg id="Camada_1" xmlns="http://www.w3.org/2000/svg" viewBox="0 0 23.4 56.7"><style>.st0{fill:#8FCDF3;}</style><path class="st0" d="M22.3 30.6V26l-4.7 2.1v1.1c.4-.1.8-.1 1.1-.1 1.3 0 3.6.6 3.6 1.5zM9.8 11V7.7L4.2 11v2.8zM9.8 3L4.3 7l-.1.6v2.7L9.8 7zM4.4 20c.5-.1.8-.2 1.2-.2 1.7 0 3.7.8 4.2 2v-6.2l-5.4 2.9V20zM9.8 11.6l-5.6 2.9v3.4l5.6-2.8zM18.3 24.5l4-2.1V20l-4.1 2.4zM18 27.6l4.3-2.1v-2.6L18 25zM18.5 19.9v2l3.8-2.4v-3l-3.9 3zM5.7 53.8c1 0 1.9-.8 1.9-1.9 0-1-.8-1.9-1.9-1.9-1 0-1.9.8-1.9 1.9.1 1.1.9 1.9 1.9 1.9z"/><path class="st0" d="M2.7 6.3L3 20.2h.2c-2 .9-3.3 2.9-3.3 5.2V51c0 3.1 2.3 5.6 5.4 5.6 3.1 0 5.4-2.5 5.4-5.6V0l-8 5.7v.6zm7.1 15.6c-.5-1.2-2.5-2-4.2-2-.4 0-.7.1-1.2.2v-1.4l5.4-2.9v6.1zM4.2 7.6v-.5l5.5-4v4l-5.6 3.2.1-2.7zm5.6.1V11l-5.6 2.8V11l5.6-3.3zm-5.6 6.8l5.6-2.9v3.5l-5.6 2.8v-3.4zm1.5 34.7c1.5 0 2.7 1.2 2.7 2.7s-1.2 2.7-2.7 2.7c-1.5 0-2.7-1.2-2.7-2.7s1.2-2.7 2.7-2.7z"/><path class="st0" d="M5.7 50.1c1 0 1.9.8 1.9 1.9 0 1-.8 1.9-1.9 1.9-1 0-1.9-.8-1.9-1.9.1-1.1.9-1.9 1.9-1.9zM19.6 51.7c-.8 0-1.4.6-1.4 1.4 0 .8.6 1.4 1.4 1.4.8 0 1.4-.6 1.4-1.4 0-.7-.6-1.4-1.4-1.4z"/><path class="st0" d="M17.4 18.5v.5l.2 9.1 4.7-2.1v4.6c0-.9-2.3-1.5-3.6-1.5-.3 0-.7 0-1.1.1v.2h.4c-1.5.6-2.2 2.1-2.2 3.9v19.2c0 2.3 1.5 4.2 3.8 4.2s3.8-1.9 3.8-4.2V14.2l-6 4.3zm2.2 36.7c-1.1 0-2.1-.9-2.1-2.1 0-1.1.9-2 2.1-2 1.1 0 2.1.9 2.1 2-.1 1.2-1 2.1-2.1 2.1zm2.7-29.7L18 27.6V25l4.4-2.2v2.7zm0-3.1l-4 2.1-.1-2.1 4.1-2.5v2.5zm0-2.9l-3.8 2.4v-2l-.1-.4 4-3v3z"/><path class="st0" d="M17.4 28.1v1h.2V28l-.2.1zM19.6 54.5c-.8 0-1.4-.6-1.4-1.4 0-.8.6-1.4 1.4-1.4.8 0 1.4.6 1.4 1.4 0 .8-.6 1.4-1.4 1.4z"/></svg>