<svg id="Camada_1" xmlns="http://www.w3.org/2000/svg" viewBox="0 0 86 70.9"><style>.st0{fill:#284790;}</style><path class="st0" d="M68 13.7h-2.6c.3 1.4.4 2.8.5 4.3v.6h-6.6v-.5c-.1-1.5-.3-3-.7-4.4H27.4c-.4 1.4-.6 2.8-.7 4.4v.5h-6.6V18c.1-1.5.2-2.9.5-4.3H18c-9.9 0-18 8-18 18v21.2c0 9.9 8.1 18 18 18h50c9.9 0 18-8.1 18-18V31.7c0-10-8.1-18-18-18z"/><path class="st0" d="M26.3 13.7c1.4-5.7 5-9.8 9.4-9.9h14.6c4.4 0 8 4.2 9.4 9.9.3 1.2.5 2.5.6 3.8h4.5c-.1-1.3-.2-2.6-.5-3.8C62.8 5.7 58 0 52.7 0H33.3C28 0 23.2 5.7 21.7 13.7c-.2 1.2-.4 2.5-.5 3.8h4.5c0-1.3.3-2.6.6-3.8z"/></svg>