<svg id="Camada_1" xmlns="http://www.w3.org/2000/svg" viewBox="0 0 48.8 85"><style>.st0{fill:#215495;}</style><path class="st0" d="M48.8 24.1c0-6.7-5.3-12.2-12-12.5V1.2c0-.7-.5-1.2-1.2-1.2s-1.2.5-1.2 1.2v10.4H12.5C5.6 11.6 0 17.2 0 24.1v48.5C0 79.5 5.6 85 12.5 85h23.9c6.9 0 12.5-5.6 12.5-12.5l-.1-48.4zm-35.4 54c-2.6 0-4.8-2.1-4.8-4.8 0-2.6 2.1-4.8 4.8-4.8 2.6 0 4.8 2.1 4.8 4.8 0 2.6-2.2 4.8-4.8 4.8zm22 0c-2.6 0-4.8-2.1-4.8-4.8 0-2.6 2.1-4.8 4.8-4.8 2.6 0 4.8 2.1 4.8 4.8 0 2.6-2.1 4.8-4.8 4.8zm10.1-20.5c0 5-4.8 9.1-10.8 9.1H14.1c-6 0-10.8-4.1-10.8-9.1V25.1c0-5 4.8-9.1 10.8-9.1h20.6c6 0 10.8 4.1 10.8 9.1v32.5z"/></svg>