<svg id="Camada_1" xmlns="http://www.w3.org/2000/svg" viewBox="0 0 96.1 85"><style>.st0{fill-rule:evenodd;clip-rule:evenodd;fill:#284790;}</style><path class="st0" d="M95.7 33.1l-.9-.7-1.5-1.1-1.7-1.1-1.7-1.2-1.6-1-1.1-1-.8-.5.4-2.4.8-4 .7-3.7.3-1.6h-.4l-1.2-.1-1.7-.1-2-.3-2.1-.1-2-.1-1.7-.1-.9-.1-.3-.9-.5-1.5-.7-1.8-.7-2-.8-1.8-.5-1.6-.3-1.3-.1-.4-1.3.7-.4.1-1 .4-1.3.7-1.6.8-1.6.7-1.6.8-1.3.5-.8.4-.6-.7-1.2-.9-1.5-1.2L57 3.4l-1.6-1.2L54.2 1l-.9-.8-.4-.2-.3.4-.7.9-1.1 1.5-1.2 1.6-1.2 1.7-1.1 1.6-.9 1.2-.4.7-.9-.1-1.6-.3-1.8-.4-2.1-.4-2-.3-1.7-.4-1.2-.1-.4-.1-.1 1.7-.4 3.7-.3 4-.3 2.5-.9.3-1.3.5-1.8.7-2 .7-2 .8-1.6.5-1.2.4H22l.1.4.5 1.1.8 1.6.9 1.9.8 2 .8 1.7.7 1.4.4.8-.7.8-.9 1.2-1.2 1.5-1.4 1.6-1.2 1.6-1.2 1.2-.8.9-.3.4.1.1.4.3.5.3.8.5.8.7.9.7.9.7 1.1.7-.7.8-.8.8-.5.8-.7.8-.5.9-.4.9-.4.6-.4.9-.8-.3-.6-.3-.8-.3-.8-.1-.8-.1-.8-.1-.8-.2h-.8l-2.9.3-2.6.8-2.4 1.3-2.1 1.7-1.7 2.1-1.3 2.5-.9 2.6-.3 2.9.3 2.9.9 2.6 1.3 2.4 1.7 2.1 2.1 1.7 2.4 1.3 2.6.8 2.9.3 1.3-.1 1.3-.1 1.3-.3 1.3-.5 1.1-.5 1.2-.7 1.1-.8 1.1-.8 1.7 1.8 1.8 1.6 2 1.3 2.1 1.2 2.2.9 2.4.7 2.4.4 2.5.1 2-.1 2-.3 2-.4 1.8-.7 1.7-.8 1.8-.9 1.6-1.1 1.6-1.3 1.2.8 1.2.5 1.2.7 1.3.4 1.3.4 1.3.1 1.5.3h1.3l1.8-.1 1.8-.3 1.7-.4 1.8-.7 1.6-.8 1.6-.9 1.4-1.2L79 77l.7.4.5.3.7.3.7.3.7.1.8.1.7.1h.7l2-.3 2-.5 1.7-.9 1.5-1.2 1.3-1.5.9-1.7.5-2 .3-2-.3-2-.5-2-.9-1.7-1.3-1.5-1.5-1.3-1.7-.9-2-.5-2-.3H84l-.4.1h-.3l-.1-.4-.1-.4-.3-.3-.1-.4 1.1-.4 1.6-.5 1.7-.7 2-.7 1.7-.7 1.5-.5 1.1-.4.4-.1-.1-.4-.5-1.1-.8-1.6-.8-1.8-.9-1.8-.8-1.7-.7-1.4-.4-.8.7-.8 1.1-1.2 1.2-1.4 1.5-1.6 1.2-1.6 1.2-1.2.8-.9.3-.4-1.1-.1zm-16.2 8.4l-.5 2.9-.9 2.8-1.3 2.5-1.2-.8-1.3-.7-1.3-.7-1.3-.5-1.3-.4-1.5-.3-1.6-.3h-2.5l-1.1.1-.9.1-1.1.1-.9.3-.9.3-.9.4-1 .6-1.7-1.7-1.8-1.6-2-1.3-2.1-1.1-2.2-.9-2.2-.7-2.4-.4-2.6-.1h-1.4l-.8.1h-.7l-.7.1-.7.1-.7.3-.7.1v-1.2l-.1-.6v-.5l.1-2.2.3-2.2.7-2.1.7-2.1.9-1.8 1.2-1.8 1.3-1.7 1.4-1.6 1.6-1.5 1.7-1.3 1.8-1.2 1.8-.9 2.1-.7 2.1-.7 2.2-.3 2.2-.1 2.2.1 2.2.3 2.1.7 2.1.7 1.8.9 1.8 1.2 1.7 1.3 1.6 1.5 1.5 1.6 1.3 1.7 1.2 1.8.9 1.8.7 2.1.7 2.1.3 2.2.1 2.2v3z"/></svg>