<svg id="Camada_1" xmlns="http://www.w3.org/2000/svg" viewBox="0 0 66.7 85"><style>.st0{fill-rule:evenodd;clip-rule:evenodd;fill:#284790;}</style><path class="st0" d="M6.1 18.3h12.1v-.1C18.2 8.2 25 0 33.4 0c8.4 0 15.2 8.2 15.2 18.3v.1h12.1l6 66.6H0l6.1-66.7zm13.6 0h27.9c-.1-9.3-6.3-16.9-14-16.9S19.8 9 19.7 18.3zm27.8 6.6c-.6 2-1.6 3.8-2.7 5.4.3.1.7.2 1.1.2 1.7 0 3-1.4 3-3 0-1.2-.6-2.1-1.4-2.6zM22 30.4c-1.1-1.5-2.1-3.3-2.7-5.3-.7.6-1.1 1.4-1.1 2.3 0 1.7 1.4 3 3 3 .3.1.6 0 .8 0zm24.7-5.9c-.3-.1-.5-.1-.8-.1-1.7 0-3 1.4-3 3 0 1 .5 1.9 1.2 2.4 1.1-1.5 2-3.3 2.6-5.3zm-23.5 5.2c.7-.6 1.1-1.4 1.1-2.3 0-1.7-1.4-3-3-3-.2 0-.4 0-.6.1.5 1.9 1.4 3.7 2.5 5.2z"/></svg>