<svg id="Camada_1" xmlns="http://www.w3.org/2000/svg" viewBox="0 0 99.2 68.5"><style>.st0{fill:#284790;}</style><path class="st0" d="M29.5 30.5s2.8 8.7 3.5 11.2c.5 1.6 2.8 2.4 3.1-.7.2-2.1.6-7.7.8-10.9 3-1.2 7.7-3.1 9.6-3.8 2.9-1.2 1.5-3.2-.2-3.1-2.3.1-9.7.1-11.4.1-.1-.1-.2-.2-.3-.2l-6.2-4.3c3.2-2.2 14.4-9.9 16-12C46.1 4.1 42.9 2.7 41 3c-1.8.3-20.2 7.5-22.9 8.6L6.9 3.8C4.5 2.1 1.3 2.5.4 3.7c-.9 1.2-.3 4.4 2 6.1l10.9 8.3c-.2 3.4-1.5 22.6-1.2 24.3.3 1.9 2.6 4.5 4.5 2 1.5-2.1 5.5-15 6.6-18.8l6.3 4.9z"/><path class="st0" d="M74.1 52.3l.3-.9c-.7-.2-1.5-.3-2.2-.5-.2.5-.4 1-.5 1.4h-9.3c.2-1.3.3-2.6.4-3.9-.8-.2-1.5-.4-2.3-.7-.1 1.6-.3 3.1-.5 4.6h-8.6c-.3-2.4-.6-5.1-.8-7.9l-2.4-.9c.2 3.2.4 6.1.8 8.9h-7.8c-.8-2.1-1.5-4.3-2-6.7-.6.3-1.4.5-2.2.6.5 2.1 1.1 4.2 1.8 6.1h-9c-2.3-3.3-3.9-7.1-4.8-11.1-.5.1-1 .2-1.6.2h-.8c3.2 15.3 16.7 26.9 32.9 27.2H56.9c11.4-.3 21.5-6.1 27.5-14.9-1.9-.4-3.9-.8-5.8-1.2h-4.5zm-42.6 2.3h8.2c1.9 4.3 4.5 7.8 7.4 10.3-6.1-1.8-11.6-5.4-15.6-10.3zm12 2.5c-.5-.8-.9-1.6-1.3-2.4h7.1c.2 1.1.4 2.2.6 3.2.6 3.1 1.3 5.5 2.2 7.4-3.2-1.4-6.2-4.2-8.6-8.2zm12.7 8.8c-.1.1-.3.2-.3.3h-.3c-.1 0-.2-.1-.3-.2-1.1-1.1-2.5-5.1-3.4-10.8 0-.1 0-.3-.1-.5h8c-.2 1-.3 1.9-.5 2.8-.6 2.9-1.3 5.3-2 6.8-.5.7-.9 1.3-1.1 1.6zm2.7 0l.3-.6c1.1-2.4 2-6.1 2.7-10.6h8.6c-.4.8-.8 1.7-1.3 2.4-2.7 4.7-6.3 7.8-10.3 8.8zm7.3-1.4c2.8-2.4 5.1-5.8 7-9.9h7.5c-3.8 4.6-8.8 8-14.5 9.9zM42.9 14.9c.1.2.2.3.3.5h6c-.6 4.2-.9 9-1.1 14.2.8-.1 1.5 0 2.3.1.1-5.3.5-10.2 1.1-14.4h8.4c.7 5 1.1 11.1 1.2 17.7h-1.6c2.3.8 4.7 1.6 7.1 2.3H75c0 .7 0 1.5-.1 2.2.8.2 1.5.4 2.3.5.1-.9.1-1.8.1-2.8h10.8c-.1 1.7-.3 3.3-.6 4.9.8.2 1.5.3 2.3.4.4-2.1.6-4.3.6-6.5-.1-18.4-15-33.5-33.5-34h-.4-.7H55.5c-1.4 0-2.8.1-4.1.3.3 1 .5 2 .4 3.1.1-.1.2-.1.4-.2-.2.4-.3.8-.5 1.3-.1.6-.3 1.2-.6 1.7-.6 1.9-1.1 4.2-1.5 6.9h-5.4c-.4.6-.8 1.3-1.3 1.8zm20.5 18.2c0-6.6-.5-12.6-1.1-17.7h9.1c2.1 5 3.4 11.1 3.6 17.7H63.4zm18.4-17.7c3.7 5 5.9 11.1 6.2 17.7H77.2c-.1-6.5-1.3-12.6-3.4-17.7h8zm-1.9-2.3h-7.1c-1.8-3.7-4-6.8-6.6-9.1 5.3 1.8 10 5 13.7 9.1zm-10.6-1.7c.3.5.6 1.1.9 1.6h-8.3c-.1-.9-.3-1.7-.4-2.5-.6-3-1.3-5.5-2.2-7.4l-.3-.6c3.9 1.1 7.5 4.2 10.3 8.9zm-17.1-.3c.6-2.9 1.3-5.3 2-6.8.4-.8.7-1.3 1-1.6.1-.1.2-.2.3-.2h.3c.1 0 .2.1.3.3 1.1 1 2.5 5 3.4 10.5h-7.7c.1-.9.3-1.6.4-2.2z"/><path class="st0" d="M85.9 43.8C80 43.8 44 31.5 44 31.5L40.1 33l1 4.4S79 48.9 83 49.7c4.9 1 15.3 0 16.3-11.3-4.5 4.9-7.5 5.4-13.4 5.4z"/></svg>