<svg id="Camada_1" xmlns="http://www.w3.org/2000/svg" viewBox="0 0 50.7 85"><style>.st0{fill:#284790;}</style><path class="st0" d="M42 0H8.7C3.9 0 0 3.9 0 8.7v67.7C0 81.1 3.9 85 8.7 85H42c4.8 0 8.7-3.9 8.7-8.7V8.7C50.7 3.9 46.8 0 42 0zM12.9 74.9c-2.8 0-5-2.2-5-5s2.2-5 5-5 5 2.3 5 5c0 2.8-2.3 5-5 5zm0-13.1c-2.8 0-5-2.2-5-5s2.2-5 5-5 5 2.2 5 5c0 2.7-2.3 5-5 5zm0-11.8c-2.8 0-5-2.2-5-5s2.2-5 5-5 5 2.2 5 5c0 2.7-2.3 5-5 5zM8.8 33.5v-2.7c0-1.2.9-2.2 1.9-2.2h10.6c1.1 0 1.9 1 1.9 2.2v2.7c0 1.2-.9 2.2-1.9 2.2H10.7c-1 0-1.9-1-1.9-2.2zm16.5 41.4c-2.8 0-5-2.2-5-5s2.2-5 5-5 5 2.3 5 5c.1 2.8-2.2 5-5 5zm0-13.1c-2.8 0-5-2.2-5-5s2.2-5 5-5 5 2.2 5 5c.1 2.7-2.2 5-5 5zm0-11.8c-2.8 0-5-2.2-5-5s2.2-5 5-5 5 2.2 5 5c.1 2.7-2.2 5-5 5zm3.2-16.5v-2.7c0-1.2.8-2.2 1.8-2.2h10.2c1 0 1.8 1 1.8 2.2v2.7c0 1.2-.8 2.2-1.8 2.2H30.3c-1 0-1.8-1-1.8-2.2zm9.3 41.4c-2.8 0-5-2.2-5-5s2.3-5 5-5c2.8 0 5 2.3 5 5 0 2.8-2.2 5-5 5zm0-13.1c-2.8 0-5-2.2-5-5s2.3-5 5-5c2.8 0 5 2.2 5 5 0 2.7-2.2 5-5 5zm0-11.8c-2.8 0-5-2.2-5-5s2.3-5 5-5c2.8 0 5 2.2 5 5 0 2.7-2.2 5-5 5zm8.6-32.7c0 3.4-2.8 6.2-6.2 6.2H10.4c-3.4 0-6.2-2.8-6.2-6.2v-5c0-3.4 2.8-6.2 6.2-6.2h29.8c3.4 0 6.2 2.8 6.2 6.2v5z"/></svg>