<svg id="Camada_1" xmlns="http://www.w3.org/2000/svg" viewBox="0 0 94.9 85"><style>.st0{fill:#284790;}</style><path class="st0" d="M91.2 22.9L59.7 1.5c-3.9-2.6-9.1-1.6-11.8 2.2l-3 4.4-3.5-2.4c-2.9-2-6.8-1.2-8.8 1.7L1.1 53.7c-2 2.9-1.2 6.8 1.7 8.8l31.5 21.4c2.9 2 6.8 1.2 8.8-1.7l1.8-2.6 5.2 3.6c3.9 2.6 9.1 1.6 11.8-2.2l31.6-46.3c2.5-3.9 1.5-9.2-2.3-11.8zM38.3 49.6l-3.1 4.1-.2.2c-.1 1.2-.3 6.3-.3 7.9 0 1.2-1.4 2.1-2.2.1-.5-1.3-1.6-4.6-2.4-6.7-2.2-.2-6-.7-7.5-.9-2.2-.3-1.6-1.9-.4-2.1 1.8-.4 7.8-2.1 7.8-2.1l3.5-4.2C31 45 22.2 42 20.8 40.8c-1.7-1.3.2-2.9 1.5-3 1.2-.1 14.4 1.3 16.8 1.5l6.1-7.3c1.3-1.6 3.5-1.9 4.3-1.2.8.6 1 2.9-.2 4.5l-5.7 7.5c.7 1.9 5.2 14.9 5.3 16.1.2 1.3-.9 3.5-2.6 2.1-1.5-1.1-6.6-9.1-8-11.4zm51.6-17.3L58.4 78.6c-1.3 1.9-4 2.4-5.9 1.1l-5.2-3.6 27.4-40.2c2-2.9 1.2-6.8-1.7-8.8L48.5 10.4l3-4.4c1.3-1.9 4-2.4 5.9-1.1l31.5 21.4c1.8 1.4 2.3 4 1 6z"/></svg>