<svg id="Camada_1" xmlns="http://www.w3.org/2000/svg" viewBox="0 0 83.9 79.4"><style>.st0{fill:#284790;}</style><path class="st0" d="M78.8 67.9c3-1.6 5.1-4.6 5.1-8V22.8c0-5.1-4.6-9.3-10.2-9.3h-2.6v46c4 1.2 7 4.4 7.7 8.4zM31.1 69.2h26.4c.3-4.9 4-8.9 8.7-9.8V13.5h-6.4V12c0-6.6-5.9-12-13.2-12h-3.4C35.9 0 30 5.4 30 12v1.5h-7.2v45.9c4.5 1.1 7.9 5 8.3 9.8zM35.9 12c0-3.6 3.2-6.6 7.2-6.6h3.4c4 0 7.2 2.9 7.2 6.6v1.5H35.9V12zM9.6 68.2c.7-4.2 3.9-7.7 8-8.7v-46h-3.4C8.6 13.5 4 17.7 4 22.8v37.1c.1 3.6 2.3 6.7 5.6 8.3zM28.5 71.1c0-4.6-3.7-8.2-8.2-8.2-4.6 0-8.2 3.7-8.2 8.2 0 4.6 3.7 8.2 8.2 8.2 4.5.1 8.2-3.6 8.2-8.2zM76.9 71.1c0-4.6-3.7-8.2-8.2-8.2-4.6 0-8.2 3.7-8.2 8.2 0 4.6 3.7 8.2 8.2 8.2 4.5.1 8.2-3.6 8.2-8.2z"/><path class="st0" d="M4.1 22.8H84v18H4.1zM0 50.8h83.9v9.1H0z"/></svg>