<svg id="Camada_1" xmlns="http://www.w3.org/2000/svg" viewBox="0 0 85 85"><style>.st0{fill:#284790;}</style><path class="st0" d="M42.5 0C19.1 0 0 19.1 0 42.5 0 66 19.1 85 42.5 85 66 85 85 66 85 42.5 85 19.1 66 0 42.5 0zm32.6 59.1l-4.8-2.8c-.9-.5-2.2-.2-2.7.7-.6.9-.2 2.2.7 2.7l4.8 2.8c-2.8 4.2-6.4 7.9-10.7 10.7l-2.8-4.8c-.5-.9-1.8-1.3-2.7-.7-.9.5-1.3 1.8-.7 2.7l2.8 4.8c-4.4 2.2-9.3 3.6-14.6 3.9v-5.6c0-1.1-.9-2-2-2s-2 .9-2 2V79c-5.2-.3-10.1-1.6-14.6-3.9l2.8-4.8c.5-.9.2-2.2-.7-2.7-.9-.5-2.2-.2-2.7.7l-2.8 4.8c-4.2-2.8-7.9-6.4-10.7-10.7l4.9-2.8c.9-.5 1.3-1.8.7-2.7-.5-.9-1.8-1.3-2.7-.7L9.8 59C7.7 54.6 6.3 49.7 6 44.5h5.6c1.1 0 2-.9 2-2s-.9-2-2-2H6c.3-5.2 1.7-10.1 3.9-14.5l4.8 2.8c.9.5 2.2.2 2.7-.7.5-.9.2-2.2-.7-2.7l-4.8-2.8c2.8-4.2 6.4-7.9 10.7-10.7l2.8 4.9c.6.9 1.8 1.3 2.7.7.9-.5 1.3-1.8.7-2.7L26 9.9c4.4-2.2 9.3-3.6 14.6-3.9v5.6c0 1.1.9 2 2 2s2-.9 2-2V6c5.2.3 10.1 1.6 14.6 3.9l-2.8 4.8c-.6.9-.2 2.2.7 2.7.9.5 2.2.2 2.7-.7l2.8-4.9c4.2 2.8 7.9 6.4 10.7 10.7l-4.8 2.8c-.9.5-1.3 1.8-.7 2.7.6.9 1.8 1.3 2.7.7l4.8-2.8c2.3 4.4 3.6 9.3 3.9 14.6h-5.6c-1.1 0-2 .9-2 2s.9 2 2 2H79c-.3 5.2-1.6 10.1-3.9 14.6zm-15.4-9.7l-15.2-8.1V19c0-1.1-.9-2-2-2s-2 .9-2 2v23.5c0 .1 0 .2.1.3 0 .1 0 .3.1.4 0 .1.1.2.2.3.1.1.1.2.2.3l.3.3.2.2L57.8 53c1 .5 2.2.2 2.7-.8.5-1.1.1-2.3-.8-2.8z"/></svg>