<svg id="Camada_1" xmlns="http://www.w3.org/2000/svg" viewBox="0 0 57.3 56.7"><style>.st0{fill:#8FCDF3;}</style><path class="st0" d="M6.5 49l.3.3L0 56l.6.7 6.8-6.8.3.3 9.8-6.7-4.3-4.3zM49.5 13l5-5 2.1 2.1.7-.7L48 0l-.7.7 1.9 1.9-5 5-4.5-4.5-2.1 2.1 1.2 1.2-23.7 23.7-2 8.4 5.1 5.1 9-1.4 23.6-23.6 1.1 1.1 2.1-2.1-4.5-4.6zm2.4 5.1L50.8 17 26.7 41.1l-8 1.2-4.2-4.2 1.8-7.4 2-2 6.2 6.2 1.1-1.1-6.2-6.2 4.3-4.3 7.9 7.9 1.1-1.1-7.9-7.9 7.9-7.9 8.1 8.1 1.1-1.1-8.1-8.1 6.8-6.8-1.2-1.2.4-.4 12.8 12.8-.7.5z"/><path class="st0" d="M28.325 18.594l1.06-1.06 6.576 6.575-1.06 1.06z"/></svg>