<svg id="Camada_1" xmlns="http://www.w3.org/2000/svg" viewBox="0 0 85 73.3"><style>.st0{fill:#284790;}</style><path class="st0" d="M85 26.9c0-4.8-10.5-8.6-23.4-8.6-1 0-2.1 0-3.1.1v-3.8c0-1.2-1-2.3-2.7-3.2V6.7C55.9 3 46.3 0 34.5 0S13.1 3 13.1 6.7V12c0 1.2 1 2.3 2.7 3.2V20c0 .4.1.9.4 1.3-8.4 1.6-14.3 5.1-14.3 9.3v8.2C.7 40 0 41.4 0 42.8v8.1c0 1.3.6 2.5 1.6 3.6v8.6c0 5.6 10.9 10.2 24.4 10.2 13.5 0 24.4-4.6 24.4-10.2v-1c3.3.7 7.1 1 11.2 1 12.9 0 23.4-3.9 23.4-8.6v-6.9c0-1.1-.5-2.1-1.5-3v-7.4-.5c.9-.9 1.5-1.9 1.5-3v-6.8zM55.9 15.3c-1.2 2.6-9.1 4.7-18.7 4.7-7.5 0-14-1.2-17-3.1C24 18 29 18.6 34.5 18.6c9.4 0 17.5-1.9 20.3-4.6.5.5.9.9 1.1 1.3zM15.6 7.1c1.2-2.6 9.1-4.7 18.7-4.7s17.5 2 18.7 4.7c-1.2 2.6-9.1 4.7-18.7 4.7S16.7 9.7 15.6 7.1zM3.1 43.8c.1-.4.4-.8.7-1.2 3.6 3.7 12.4 6.3 22.6 6.3 7.4 0 14-1.4 18.5-3.5-2.9 3.2-10.9 5.5-20.5 5.5-11 0-20-3.1-21.3-7.1zM26 63.1c-9.8 0-18.1-2.5-20.7-5.9 4.5 2.4 11.4 3.9 19.2 3.9 10 0 18.6-2.5 22.4-6.1.2.3.4.7.5 1C46 60 37 63.1 26 63.1zm.4-25.1c-11 0-20-3.1-21.4-7.1 1.3-4 10.4-7.1 21.4-7.1s20 3.1 21.4 7.1c-1.4 4-10.4 7.1-21.4 7.1zm22.5 4.7c.4-.4.8-.9 1.1-1.4 3.4.7 7.4 1.1 11.6 1.1 7.5 0 14.2-1.3 18.5-3.3-2.4 2.9-10.4 5-19.9 5-4.2 0-8.1-.4-11.3-1.1v-.3zm12.7 11.8c-4.3 0-8.2-.4-11.5-1.2-.2-.5-.5-1.1-.9-1.6 3.3.6 7 1 11 1 9.6 0 17.8-2.1 21.4-5.1.2.3.4.5.5.8-1.3 3.5-9.9 6.1-20.5 6.1zm0-21.1c-4.4 0-8.5-.5-11.8-1.2v-.3c0-2.6-2.4-5-6.4-6.9 3.5-2.2 10.3-3.7 18.2-3.7 10.5 0 19.2 2.6 20.5 6-1.3 3.5-9.9 6.1-20.5 6.1z"/></svg>