<svg id="Camada_1" xmlns="http://www.w3.org/2000/svg" viewBox="0 0 99.2 108.3"><style>.st0{fill:#284790;}</style><path class="st0" d="M96.4.1L3.4 0C1.9 0 .6.6.6 1.3v28.3c0 .7 1.3 1.3 2.8 1.3h16.8v2L2.9 33C1.3 33 0 34.3 0 35.8v61c0 1.6 1.3 2.9 2.8 2.9h9.4c0 .9.7 1.6 1.6 1.6h6.3c.9 0 1.6-.7 1.6-1.6h16.1c0 .6.6 1 1.3 1v4.6c0 1.6 1.4 2.9 3.1 2.9h14.2c1.7 0 3.1-1.3 3.1-2.8v-4.6c.7 0 1.3-.5 1.3-1h16.1c0 .9.7 1.6 1.6 1.6h6.3c.9 0 1.6-.7 1.6-1.6h9.4c1.6 0 2.9-1.3 2.9-2.8l.1-61c0-1.6-1.3-2.9-2.8-2.9H78.7v-2h17.7c1.6 0 2.9-.6 2.9-1.3V1.5C99.2.7 97.9.1 96.4.1zM41.1 1.3h16.6c.8 0 1.4.8 1.4 1.8s-.6 1.8-1.4 1.8H41.1c-.8 0-1.4-.8-1.4-1.8s.6-1.8 1.4-1.8zm16.1 102.4c0 1.2-1.1 2.2-2.4 2.2h-11c-1.3 0-2.4-1-2.4-2.2v-2.9h.1c.7 0 1.3-.5 1.3-1h13.1c0 .6.6 1 1.3 1h.1l-.1 2.9zm35.4-66.6c1.5 0 2.7 1.2 2.7 2.6l-.1 55.2c0 1.4-1.2 2.6-2.7 2.6H6c-1.5 0-2.7-1.2-2.7-2.6l.1-55.2c0-1.4 1.2-2.6 2.7-2.6h86.5zM29.9 33v-2h39v2h-39zm65.9-9c0 .4-1.2.8-2.7.8l-86.5-.1c-1.5 0-2.7-.3-2.7-.8L4 7.6c0-.4 1.2-.8 2.7-.8h5.7c0 .9.7 1.6 1.6 1.6h6.3c.9 0 1.6-.7 1.6-1.6l55.1.1c0 .9.7 1.6 1.6 1.6h6.3c.9 0 1.6-.7 1.6-1.6h6.6c1.5 0 2.7.3 2.7.8V24z"/><path class="st0" d="M89.5 39.6l-80.3-.1c-1.4 0-2.5 1.1-2.5 2.4v50.6c0 1.3 1.1 2.4 2.5 2.4l80.3.1c1.4 0 2.5-1.1 2.5-2.4V42c0-1.3-1.1-2.4-2.5-2.4zm-28.9 9H75l2.3 4.1-3.9 7.2-5.6-4.8-5.6 4.8-3.9-7.2 2.3-4.1zm-36.4 0h14.4l2.3 4.1-3.9 7.2-5.6-4.8-5.6 4.8-3.9-7.2 2.3-4.1zm23.4 33.2c0 2.3-1.8 4.1-4.1 4.1H19.3c-2.3 0-4.1-1.8-4.1-4.1V57.4c0-2.3 1.7-3.3 4.1-4.1.5-.2 1.1-.3 1.7-.5l4.6 8.4 5.2-4.5c.1.2.4.3.6.3.3 0 .5-.1.6-.3l5.2 4.5 4.6-8.4c.6.1 1.2.3 1.7.5 2.4.8 4.1 1.8 4.1 4.1v24.4zm36.4 0c0 2.3-1.8 4.1-4.1 4.1H55.6c-2.3 0-4.1-1.8-4.1-4.1V57.4c0-2.3 1.7-3.3 4.1-4.1.5-.2 1.1-.3 1.7-.5l4.6 8.4 5.2-4.5c.1.2.4.3.6.3.3 0 .5-.1.6-.3l5.2 4.5 4.6-8.4c.6.1 1.2.3 1.7.5 2.4.8 4.1 1.8 4.1 4.1v24.4z"/></svg>