<svg id="Camada_1" xmlns="http://www.w3.org/2000/svg" viewBox="0 0 89.6 76.5"><style>.st0{fill:#284790;}</style><path class="st0" d="M65.1 54.4H18.7c-1.1 0-2.1.9-2.1 2.1 0 1.1.9 2.1 2.1 2.1H65c1.1 0 2.1-.9 2.1-2.1.1-1.2-.9-2.1-2-2.1zm5.1-13H18.7c-1.1 0-2.1.9-2.1 2.1 0 1.2.9 2.1 2.1 2.1h51.5c1.2 0 2.1-.9 2.1-2.1 0-1.2-.9-2.1-2.1-2.1zM86.4 7.8h-9.9V3.1c0-1.7-1.4-3.1-3.1-3.1-1.7 0-3.1 1.4-3.1 3.1v4.7h-12V3.1c0-1.7-1.4-3.1-3.1-3.1-1.7 0-3.1 1.4-3.1 3.1v4.7H37.5V3.1c0-1.7-1.4-3.1-3.1-3.1-1.7 0-3.1 1.4-3.1 3.1v4.7h-12V3.1c0-1.7-1.4-3.1-3.1-3.1C14.4 0 13 1.4 13 3.1v4.7H3.1C1.4 7.8 0 9.2 0 10.9v62.5c0 1.7 1.4 3.1 3.1 3.1h83.3c1.7 0 3.1-1.4 3.1-3.1V10.9c.1-1.7-1.3-3.1-3.1-3.1zm-3.1 62.5h-77V14.1H13v.8c0 1.7 1.4 3.1 3.1 3.1 1.7 0 3.1-1.4 3.1-3.1v-.8h12v.8c0 1.7 1.4 3.1 3.1 3.1 1.7 0 3.1-1.4 3.1-3.1v-.8H52v.8c0 1.7 1.4 3.1 3.1 3.1 1.7 0 3.1-1.4 3.1-3.1v-.8h12v.8c0 1.7 1.4 3.1 3.1 3.1 1.7 0 3.1-1.4 3.1-3.1v-.8h6.8v56.2zM72.1 28.4H18.7c-1.1 0-2.1.9-2.1 2.1 0 1.2.9 2.1 2.1 2.1h53.4c1.1 0 2.1-.9 2.1-2.1 0-1.2-.9-2.1-2.1-2.1z"/></svg>