<svg id="Camada_1" xmlns="http://www.w3.org/2000/svg" viewBox="0 0 152.3 39.6"><style>.st0{fill:#8FCDF3;}</style><path class="st0" d="M7.3 7.8h-.2L.9 11.2 0 7.5l7.8-4.2h4.1V39H7.3V7.8zM48.7 20.8c0 12.2-4.5 18.9-12.4 18.9-7 0-11.7-6.5-11.8-18.4 0-12 5.2-18.6 12.4-18.6 7.5 0 11.8 6.7 11.8 18.1zm-19.4.5c0 9.3 2.9 14.6 7.3 14.6 4.9 0 7.3-5.8 7.3-14.9 0-8.8-2.3-14.6-7.3-14.6-4.2 0-7.3 5.2-7.3 14.9zM89.4 0v32.2c0 2.4.1 5.1.2 6.9h-4.3l-.3-4.7h-.1c-1.5 3-4.7 5.2-9.1 5.2-6.4 0-11.4-5.4-11.4-13.5-.1-8.9 5.4-14.3 11.9-14.3 4.1 0 6.8 1.9 8 4.1h.1V0h5zm-4.9 23.3c0-.6-.1-1.4-.2-2-.7-3.1-3.4-5.6-7-5.6-5 0-8 4.4-8 10.3 0 5.4 2.6 9.8 7.9 9.8 3.2 0 6.2-2.1 7.1-5.8.2-.7.2-1.3.2-2.1v-4.6zM102.8 4.9c.1 1.6-1.2 3-3.1 3-1.7 0-2.9-1.3-2.9-3s1.3-3 3-3c1.8 0 3 1.3 3 3zM97.4 39V12.4h4.8V39h-4.8zM125 39l-.4-3.4h-.2c-1.5 2.1-4.3 4-8.1 4-5.4 0-8.1-3.8-8.1-7.6 0-6.4 5.7-10 16-9.9v-.5c0-2.2-.6-6.2-6-6.2-2.5 0-5.1.8-6.9 2l-1.1-3.2c2.2-1.4 5.4-2.4 8.7-2.4 8.1 0 10.1 5.6 10.1 10.9v10c0 2.3.1 4.6.4 6.4H125zm-.7-13.5c-5.3-.1-11.3.8-11.3 6 0 3.1 2.1 4.6 4.6 4.6 3.5 0 5.7-2.2 6.4-4.5.2-.5.3-1 .3-1.5v-4.6zM136.1 34.1c1.4.9 4 1.9 6.4 1.9 3.5 0 5.2-1.8 5.2-4 0-2.3-1.4-3.6-4.9-4.9-4.8-1.7-7-4.3-7-7.5 0-4.3 3.5-7.8 9.2-7.8 2.7 0 5.1.8 6.5 1.6l-1.2 3.5c-1-.7-3-1.5-5.4-1.5-2.9 0-4.5 1.6-4.5 3.6 0 2.2 1.6 3.2 5.1 4.5 4.6 1.8 7 4.1 7 8 0 4.7-3.6 8-10 8-2.9 0-5.6-.7-7.5-1.8l1.1-3.6z"/></svg>