<svg id="Camada_1" xmlns="http://www.w3.org/2000/svg" viewBox="0 0 218.7 68.2"><style>.st0{fill:none;stroke:#BABCBE;stroke-width:10;stroke-linecap:round;stroke-miterlimit:10;} .st1{fill:#262424;} .st2{fill:#8FCDF3;}</style><path class="st0" d="M96.8 17.1l21.3 21.3-21.3 21.2"/><path class="st1" d="M5.6 28.3c0-.5.1-.9.3-1.3.2-.4.4-.8.7-1.1.3-.3.7-.5 1.1-.7.4-.2.8-.3 1.3-.3s.9.1 1.3.3c.4.2.8.4 1.1.7.3.3.5.7.7 1.1.2.4.3.8.3 1.3s-.1.9-.3 1.3c-.2.4-.4.8-.7 1.1-.3.3-.7.5-1.1.7-.4.2-.8.3-1.3.3s-.9-.1-1.3-.3c-.4-.2-.8-.4-1.1-.7-.3-.3-.5-.7-.7-1.1-.2-.4-.3-.8-.3-1.3zM19.2 33.7V20.8h4.1c.8 0 1.5.1 2 .2.6.2 1 .4 1.4.7.4.3.6.6.8 1.1.2.4.3.9.3 1.4 0 .3 0 .6-.1.9-.1.3-.2.6-.5.8s-.5.5-.8.7c-.3.2-.7.4-1.1.5.9.2 1.7.5 2.1 1 .5.5.7 1.1.7 1.9 0 .5-.1 1-.3 1.5s-.5.8-.9 1.2c-.4.3-.9.6-1.4.8s-1.2.3-1.9.3h-4.4zm1.8-7.2h2.3c.5 0 .9-.1 1.3-.2s.7-.3.9-.5c.2-.2.4-.4.5-.7.1-.3.2-.6.2-.9 0-.8-.2-1.3-.7-1.7-.5-.4-1.2-.5-2.1-.5H21v4.5zm0 1.3v4.5h2.8c.5 0 .9-.1 1.3-.2s.7-.3.9-.5.4-.5.5-.7.2-.6.2-.9c0-.7-.2-1.2-.7-1.6-.5-.4-1.2-.6-2.1-.6H21zM34.2 24.4c.5 0 1.1.1 1.5.3.5.2.9.4 1.2.8s.6.8.8 1.3c.2.5.3 1.1.3 1.7 0 .3 0 .4-.1.5-.1.1-.2.1-.3.1h-6.1c0 .6.1 1.1.2 1.5s.3.8.6 1.1.6.5.9.6c.3.1.7.2 1.2.2.4 0 .7 0 1-.1s.5-.2.8-.3c.2-.1.4-.2.5-.3.1-.1.3-.1.4-.1.1 0 .2.1.3.2l.4.6c-.2.2-.4.4-.7.6s-.6.3-.9.4c-.3.1-.6.2-1 .3-.3.1-.7.1-1 .1-.6 0-1.2-.1-1.7-.3-.5-.2-1-.5-1.4-.9-.4-.4-.7-.9-.9-1.5-.2-.6-.3-1.3-.3-2.1 0-.6.1-1.2.3-1.8.2-.6.5-1 .8-1.4.4-.4.8-.7 1.3-1 .7-.4 1.3-.5 1.9-.5zm.1 1.2c-.8 0-1.4.2-1.8.7-.4.4-.7 1.1-.8 1.9h5c0-.4-.1-.7-.2-1-.1-.3-.3-.6-.4-.8-.2-.2-.4-.4-.7-.5-.4-.3-.8-.3-1.1-.3zM40.1 33.7V20.4h1.6v5.5c.4-.4.8-.8 1.3-1.1.5-.3 1-.4 1.7-.4.5 0 1 .1 1.4.3.4.2.8.5 1.1.9.3.4.5.9.7 1.5s.2 1.2.2 2c0 .7-.1 1.3-.3 1.9s-.4 1.1-.8 1.5c-.3.4-.8.8-1.2 1-.5.2-1 .4-1.7.4-.6 0-1.1-.1-1.5-.3-.4-.2-.8-.5-1.1-1l-.1.8c0 .2-.2.3-.4.3h-.9zm4.1-8c-.5 0-1 .1-1.4.4s-.8.6-1.1 1v4.4c.3.4.6.7 1 .8s.7.2 1.2.2c.9 0 1.5-.3 2-.9.5-.6.7-1.5.7-2.6 0-.6-.1-1.1-.2-1.5-.1-.4-.3-.8-.5-1-.2-.3-.4-.5-.7-.6s-.6-.2-1-.2zM52.3 21.7c0 .2 0 .3-.1.4-.1.1-.1.3-.3.4-.1.1-.2.2-.4.2-.1.1-.3.1-.4.1-.2 0-.3 0-.4-.1-.1-.1-.3-.1-.4-.2-.1-.1-.2-.2-.2-.4-.1-.1-.1-.3-.1-.4 0-.2 0-.3.1-.4.1-.1.1-.3.2-.4.1-.1.2-.2.4-.2.1-.1.3-.1.4-.1.2 0 .3 0 .4.1.1.1.3.1.4.2.1.1.2.2.3.4 0 .1.1.2.1.4zm-.4 2.8v9.1h-1.6v-9.1h1.6zM61.2 33.7c-.2 0-.4-.1-.4-.3l-.1-1.1c-.4.5-.8.9-1.3 1.1-.5.3-1.1.4-1.7.4-.5 0-1-.1-1.4-.3-.4-.2-.8-.5-1.1-.9-.3-.4-.5-.9-.7-1.5s-.2-1.3-.2-2 .1-1.3.3-1.9.4-1.1.8-1.5c.3-.4.8-.8 1.2-1 .5-.2 1-.4 1.7-.4.6 0 1 .1 1.4.3.4.2.8.5 1.1.8v-5.1h1.6v13.3h-1.2zM58 32.5c.5 0 1-.1 1.4-.4.4-.2.8-.6 1.1-1v-4.4c-.3-.4-.6-.7-1-.8-.4-.2-.7-.2-1.2-.2-.9 0-1.5.3-2 .9-.5.6-.7 1.5-.7 2.6 0 .6.1 1.1.2 1.5.1.4.3.8.5 1 .2.3.4.5.7.6.3.1.7.2 1 .2zM71.5 33.7h-.7c-.2 0-.3 0-.4-.1-.1 0-.2-.1-.2-.3l-.2-.9c-.2.2-.5.4-.7.6s-.5.3-.7.4c-.3.1-.5.2-.8.3-.3.1-.6.1-.9.1-.4 0-.7 0-1-.1-.3-.1-.6-.2-.8-.4-.2-.2-.4-.5-.5-.8-.1-.3-.2-.7-.2-1.1 0-.4.1-.7.3-1s.5-.6 1-.9 1-.5 1.7-.6c.7-.2 1.6-.2 2.6-.2V28c0-.7-.2-1.3-.5-1.6-.3-.4-.8-.5-1.3-.5-.4 0-.7 0-1 .1-.3.1-.5.2-.7.3-.2.1-.4.2-.5.3-.1.1-.3.1-.4.1-.1 0-.2 0-.3-.1l-.2-.2-.3-.5c.5-.5 1-.8 1.6-1.1s1.2-.4 1.9-.4c.5 0 1 .1 1.4.3s.7.4 1 .7.5.7.6 1.1c.1.4.2.9.2 1.4v5.8zm-4.2-1c.3 0 .5 0 .8-.1s.5-.1.7-.2c.2-.1.4-.2.6-.4.2-.1.4-.3.6-.5v-1.9c-.7 0-1.4 0-1.9.1s-.9.2-1.3.4c-.3.2-.6.3-.7.5s-.2.4-.2.7c0 .2 0 .5.1.6s.2.3.3.4c.1.1.3.2.5.2.1.1.3.2.5.2zM79.1 26c-.1.1-.2.2-.3.2-.1 0-.2 0-.3-.1-.1-.1-.3-.1-.4-.2s-.4-.2-.6-.2c-.2-.1-.5-.1-.8-.1-.3 0-.5 0-.7.1l-.6.3-.4.4c-.1.2-.1.3-.1.5s.1.4.2.6c.1.2.3.3.5.4.2.1.5.2.8.3l.9.3.9.3c.3.1.5.3.8.5.2.2.4.4.5.7.1.3.2.6.2.9 0 .4-.1.8-.2 1.2-.1.4-.4.7-.7.9-.3.3-.7.5-1.1.6-.4.2-.9.2-1.5.2s-1.2-.1-1.7-.3c-.5-.2-1-.5-1.3-.8l.4-.6c0-.1.1-.1.2-.2s.2-.1.3-.1c.1 0 .2 0 .3.1.1.1.3.2.4.3l.6.3s.5.1.9.1c.3 0 .6 0 .8-.1l.6-.3c.2-.1.3-.3.3-.5.1-.2.1-.4.1-.6 0-.3-.1-.5-.2-.6-.1-.2-.3-.3-.5-.4-.2-.1-.5-.2-.8-.3l-.9-.3-.9-.3c-.3-.1-.5-.3-.8-.5-.2-.2-.4-.4-.5-.7-.1-.3-.2-.6-.2-1 0-.3.1-.7.2-1 .1-.3.4-.6.6-.8.3-.2.6-.4 1-.6.4-.1.9-.2 1.4-.2.6 0 1.1.1 1.6.3.5.2.9.4 1.2.8l-.2.5zM7.2 55.3h-.7c-.2 0-.3 0-.4-.1-.1 0-.2-.1-.2-.3l-.2-.9c-.2.2-.5.4-.7.6s-.4.3-.7.4c-.3.1-.5.2-.8.3-.3.1-.6.1-.9.1-.4 0-.7 0-1-.1-.4-.2-.6-.3-.9-.5-.2-.2-.4-.5-.5-.8-.1-.3-.2-.6-.2-1s.1-.7.3-1 .5-.6 1-.9 1-.5 1.7-.6c.7-.2 1.6-.2 2.6-.2v-.7c0-.7-.2-1.3-.5-1.6-.3-.4-.8-.5-1.3-.5-.4 0-.7 0-1 .1-.3.1-.5.2-.7.3-.2.1-.4.2-.5.3-.1.1-.3.1-.4.1-.1 0-.2 0-.3-.1s-.1-.2-.2-.3l-.3-.5c.5-.5 1-.8 1.6-1.1s1.3-.3 2-.3c.5 0 1 .1 1.4.3s.7.4 1 .7.4.6.6 1c.1.4.2.9.2 1.4v5.9zm-4.2-1c.3 0 .5 0 .8-.1s.5-.1.7-.2c.2-.1.4-.2.6-.4.2-.1.4-.3.6-.5v-1.9c-.7 0-1.4 0-1.9.1s-.9.2-1.3.4c-.3.2-.6.3-.7.5s-.2.4-.2.7c0 .2 0 .5.1.6s.2.3.3.4c.1.1.3.2.5.2.1.1.3.2.5.2zM11.4 42v13.3H9.8V42h1.6zM20.4 47.8c0 .1-.1.1-.1.2 0 0-.1.1-.2.1s-.2 0-.3-.1-.2-.2-.4-.2c-.2-.1-.4-.2-.6-.2s-.5-.1-.9-.1-.8.1-1.2.2c-.3.2-.6.4-.9.7-.2.3-.4.7-.5 1.1-.1.4-.2.9-.2 1.4 0 .6.1 1 .2 1.5.1.4.3.8.5 1.1.2.3.5.5.8.7.3.2.7.2 1.1.2.4 0 .7 0 1-.1.3-.1.5-.2.6-.3.2-.1.3-.2.4-.3.1-.1.2-.1.3-.1.1 0 .2.1.3.2l.7.2c-.4.5-.9.8-1.5 1.1-.6.2-1.2.3-1.9.3-.6 0-1.1-.1-1.6-.3-.5-.2-.9-.5-1.3-.9s-.6-.9-.9-1.5-.3-1.2-.3-2c0-.7.1-1.3.3-1.9.2-.6.5-1.1.8-1.5.4-.4.8-.7 1.3-1 .5-.2 1.1-.4 1.8-.4.6 0 1.2.1 1.7.3.5.2.9.5 1.3.9l-.3.7zM26.3 46c.7 0 1.3.1 1.8.3.5.2 1 .5 1.4.9.4.4.7.9.9 1.5.2.6.3 1.2.3 1.9s-.1 1.4-.3 1.9c-.2.6-.5 1.1-.9 1.5-.4.4-.8.7-1.4.9-.5.2-1.1.3-1.8.3s-1.3-.1-1.8-.3c-.5-.2-1-.5-1.4-.9-.4-.4-.7-.9-.9-1.5-.2-.6-.3-1.2-.3-1.9s.1-1.4.3-1.9c.2-.6.5-1.1.9-1.5.4-.4.8-.7 1.4-.9.5-.2 1.1-.3 1.8-.3zm0 8.1c.9 0 1.6-.3 2-.9.4-.6.7-1.4.7-2.5s-.2-1.9-.7-2.5c-.4-.6-1.1-.9-2-.9-.5 0-.9.1-1.2.2-.3.2-.6.4-.8.7s-.4.7-.5 1.1c-.1.4-.2.9-.2 1.5s.1 1 .2 1.4c.1.4.3.8.5 1.1s.5.5.8.7c.4 0 .8.1 1.2.1zM36.3 46c.7 0 1.3.1 1.8.3.5.2 1 .5 1.4.9.4.4.7.9.9 1.5.2.6.3 1.2.3 1.9s-.1 1.4-.3 1.9c-.2.6-.5 1.1-.9 1.5-.4.4-.8.7-1.4.9-.5.2-1.1.3-1.8.3s-1.3-.1-1.8-.3c-.5-.2-1-.5-1.4-.9-.4-.4-.7-.9-.9-1.5-.2-.6-.3-1.2-.3-1.9s.1-1.4.3-1.9c.2-.6.5-1.1.9-1.5.4-.4.8-.7 1.4-.9.6-.2 1.2-.3 1.8-.3zm0 8.1c.9 0 1.6-.3 2-.9.4-.6.7-1.4.7-2.5s-.2-1.9-.7-2.5c-.4-.6-1.1-.9-2-.9-.5 0-.9.1-1.2.2-.3.2-.6.4-.8.7s-.4.7-.5 1.1c-.1.4-.2.9-.2 1.5s.1 1 .2 1.4c.1.4.3.8.5 1.1s.5.5.8.7c.4 0 .8.1 1.2.1zM39 42.2l-2.1 2.3-.2.2s-.2.1-.3.1h-1l1.3-2.2.3-.3c.1-.1.2-.1.4-.1H39zM44.4 42v13.3h-1.6V42h1.6zM49.4 43.3c0 .2 0 .3-.1.4-.1.1-.1.3-.3.4-.1.1-.2.2-.4.2-.1.1-.3.1-.4.1-.2 0-.3 0-.4-.1-.1-.1-.3-.1-.4-.2-.1-.1-.2-.2-.2-.4-.1-.1-.1-.3-.1-.4 0-.2 0-.3.1-.4.1-.1.1-.3.2-.4.1-.1.2-.2.4-.2.1-.1.3-.1.4-.1.2 0 .3 0 .4.1.1.1.3.1.4.2.1.1.2.2.3.4.1.1.1.2.1.4zm-.4 2.8v9.1h-1.6v-9.1H49zM58.1 47.8c0 .1-.1.1-.1.2 0 0-.1.1-.2.1s-.2 0-.3-.1-.2-.2-.4-.2c-.2-.1-.4-.2-.6-.2s-.5-.1-.9-.1-.8.1-1.2.2c-.3.2-.6.4-.9.7-.2.3-.4.7-.5 1.1-.1.4-.2.9-.2 1.4 0 .6.1 1 .2 1.5.1.4.3.8.5 1.1.2.3.5.5.8.7.3.2.7.2 1.1.2.4 0 .7 0 1-.1.3-.1.5-.2.6-.3.2-.1.3-.2.4-.3.1-.1.2-.1.3-.1.1 0 .2.1.3.2l.5.6c-.4.5-.9.8-1.5 1.1-.6.2-1.2.3-1.9.3-.6 0-1.1-.1-1.6-.3-.5-.2-.9-.5-1.3-.9s-.6-.9-.9-1.5-.3-1.2-.3-2c0-.7.1-1.3.3-1.9.2-.6.5-1.1.8-1.5.4-.4.8-.7 1.3-1 .5-.2 1.1-.4 1.8-.4.6 0 1.2.1 1.7.3.5.2.9.5 1.3.9l-.1.3zM67 55.3h-.7c-.2 0-.3 0-.4-.1-.1 0-.2-.1-.2-.3l-.2-.9c-.2.2-.5.4-.7.6s-.5.3-.7.4c-.3.1-.5.2-.8.3-.3.1-.6.1-.9.1-.4 0-.7 0-1-.1-.3-.1-.6-.2-.8-.4-.2-.2-.4-.5-.5-.8-.1-.3-.2-.7-.2-1.1 0-.4.1-.7.3-1s.5-.6 1-.9 1-.5 1.7-.6c.7-.2 1.6-.2 2.6-.2v-.7c0-.7-.2-1.3-.5-1.6-.3-.4-.8-.5-1.3-.5-.4 0-.7 0-1 .1-.3.1-.5.2-.7.3-.2.1-.4.2-.5.3-.1.1-.3.1-.4.1-.1 0-.2 0-.3-.1l-.2-.2-.3-.5c.5-.5 1-.8 1.6-1.1s1.2-.4 1.9-.4c.5 0 1 .1 1.4.3s.7.4 1 .7.5.7.6 1.1c.1.4.2.9.2 1.4v5.8zm-4.2-1c.3 0 .5 0 .8-.1s.5-.1.7-.2c.2-.1.4-.2.6-.4.2-.1.4-.3.6-.5v-1.9c-.7 0-1.4 0-1.9.1s-.9.2-1.3.4c-.3.2-.6.3-.7.5s-.2.4-.2.7c0 .2 0 .5.1.6s.2.3.3.4c.1.1.3.2.5.2.1.1.3.2.5.2zM74.6 47.6c-.1.1-.2.2-.3.2-.1 0-.2 0-.3-.1-.1-.1-.3-.1-.4-.2s-.4-.2-.6-.2c-.2-.1-.5-.1-.8-.1-.3 0-.5 0-.7.1l-.6.3-.4.4c-.1.2-.1.3-.1.5s.1.4.2.6c.1.2.3.3.5.4.2.1.5.2.8.3l.9.3.9.3c.3.1.5.3.8.5.2.2.4.4.5.7.1.3.2.6.2.9 0 .4-.1.8-.2 1.2-.1.4-.4.7-.7.9-.3.3-.7.5-1.1.6-.4.2-.9.2-1.5.2s-1.2-.1-1.7-.3c-.5-.2-1-.5-1.3-.8l.4-.6c0-.1.1-.1.2-.2s.2-.1.3-.1c.1 0 .2 0 .3.1.1.1.3.2.4.3l.6.3s.5.1.9.1c.3 0 .6 0 .8-.1l.6-.3c.2-.1.3-.3.3-.5.1-.2.1-.4.1-.6 0-.3-.1-.5-.2-.6-.1-.2-.3-.3-.5-.4-.2-.1-.5-.2-.8-.3l-.9-.3-.9-.3c-.3-.1-.5-.3-.8-.5-.2-.2-.4-.4-.5-.7-.1-.3-.2-.6-.2-1 0-.3.1-.7.2-1 .1-.3.4-.6.6-.8.3-.2.6-.4 1-.6.4-.1.9-.2 1.4-.2.6 0 1.1.1 1.6.3.5.2.9.4 1.2.8l-.2.5zM77 47.5c0-.2 0-.3.1-.4.1-.1.1-.3.2-.4.1-.1.2-.2.4-.2.1-.1.3-.1.4-.1.2 0 .3 0 .4.1.1.1.3.1.4.2.1.1.2.2.2.4.1.1.1.3.1.4 0 .2 0 .3-.1.4-.1.1-.1.3-.2.4-.1.1-.2.2-.4.2-.1.1-.3.1-.4.1-.2 0-.3 0-.4-.1-.1-.1-.3-.1-.4-.2-.1-.1-.2-.2-.2-.4 0-.1-.1-.2-.1-.4zm0 6.8c0-.2 0-.3.1-.4.1-.1.1-.3.2-.4.1-.1.2-.2.4-.2.1-.1.3-.1.4-.1.2 0 .3 0 .4.1.1.1.3.1.4.2.1.1.2.2.2.4.1.1.1.3.1.4 0 .2 0 .3-.1.4-.1.1-.1.3-.2.4-.1.1-.2.2-.4.2-.1.1-.3.1-.4.1-.2 0-.3 0-.4-.1-.1-.1-.3-.1-.4-.2-.1-.1-.2-.2-.2-.4 0-.1-.1-.3-.1-.4z"/><g><path class="st2" d="M151.8 66.9h-6.5V33.8H137v-5.2l14.8-1.4v39.7zM191.7 66.9h-25.2v-4.5l12.2-14.1c2-2.3 3.4-4.3 4.1-5.8.8-1.5 1.2-3 1.2-4.4 0-1.7-.5-3-1.4-4.1-.9-1-2.3-1.6-4-1.6-2 0-3.6.7-4.6 2-1.1 1.3-1.6 3-1.6 4.9H166l-.1-.2c-.1-3.3 1-6.2 3.3-8.5s5.4-3.5 9.3-3.5c3.7 0 6.7 1 8.8 3 2.1 2 3.2 4.6 3.2 7.9 0 2.2-.6 4.3-1.8 6.2s-3.1 4.5-5.8 7.8l-8.2 9.5.1.1h16.9v5.3zM218.7 24.2c0-.9-.6-1.7-1.1-2.4-.5-.7-1.1-1.4-1.7-2.1-.3-.4-.7-.7-1-1.1-.1-.1-1-.8-1-.9V3.2c.2 0 .3-.1.3-.2V1.5c0-.1-.1-.2-.3-.2v-.1c0-.3-.2-.9-.6-.9h-4.4c-.3 0-.6.6-.6.9v.1c-.2 0-.3.1-.3.2v1.4c0 .1.1.2.3.2v14.5c0 .2-.8.8-1 .9-.4.4-.7.7-1 1.1-.6.7-1.2 1.4-1.7 2.1-.5.7-1.1 1.5-1.1 2.4l-.1 1.1v41c.2.4.2.9.6 1.2.8.6 1.9.5 2.8.5.3 0 3.4.2 4.3.2.9 0 4-.1 4.3-.2.9-.1 2.1.1 2.8-.5.4-.3.4-.8.6-1.2v-41l-.1-1z"/><g><path class="st2" d="M149.1 20.8l-.2-1.8h-.1c-.8 1.1-2.4 2.2-4.4 2.2-2.9 0-4.4-2.1-4.4-4.2 0-3.5 3.1-5.4 8.7-5.4v-.3c0-1.2-.3-3.4-3.3-3.4-1.4 0-2.8.4-3.8 1.1l-.6-1.8c1.2-.8 2.9-1.3 4.8-1.3 4.4 0 5.5 3 5.5 5.9v5.4c0 1.3.1 2.5.2 3.5h-2.4zm-.4-7.4c-2.9-.1-6.1.5-6.1 3.3 0 1.7 1.1 2.5 2.5 2.5 1.9 0 3.1-1.2 3.5-2.4.1-.3.2-.6.2-.8v-2.6zM158.6 2.1v4.2h3.8v2h-3.8v7.8c0 1.8.5 2.8 2 2.8.7 0 1.2-.1 1.5-.2l.1 2c-.5.2-1.3.4-2.3.4-1.2 0-2.2-.4-2.8-1.1-.8-.8-1-2.1-1-3.8V8.3h-2.3v-2h2.3V2.8l2.5-.7zM166.6 14c.1 3.6 2.3 5 5 5 1.9 0 3-.3 4-.8l.5 1.9c-.9.4-2.5.9-4.8.9-4.5 0-7.1-2.9-7.1-7.3s2.6-7.8 6.8-7.8c4.7 0 6 4.2 6 6.8 0 .5-.1 1-.1 1.2h-10.3zm7.8-1.9c0-1.7-.7-4.3-3.7-4.3-2.7 0-3.8 2.5-4 4.3h7.7zM175 0l-3.7 4.3h-1.9L172 0h3z"/></g></g></svg>