<svg id="Camada_1" xmlns="http://www.w3.org/2000/svg" xmlns:xlink="http://www.w3.org/1999/xlink" viewBox="0 0 324 115.8"><style>.st0{fill:#8FCDF3;} .st1{fill:#262424;}</style><path class="st0" d="M70.3 15.3c0-8.4-8-15.3-17.7-15.3-9.8 0-17.7 6.8-17.7 15.3V45.1c0 6.4 5.1 11.6 11.4 11.6H59c6.3 0 11.4-5.2 11.4-11.6V15.3zM56.2 49.4h-5.8l1.4-9.5c-1.6-.6-2.8-2.1-2.8-3.9 0-2.3 1.8-4.1 4.1-4.1s4.1 1.9 4.1 4.1c0 1.8-1.2 3.4-2.9 3.9l1.9 9.5zm-10-28.7c-2.5 0-4.7.8-6.6 2.2v-7.6h-.1c0-6.2 5.8-11.2 13-11.2s13 5 13 11.2V23c-1.9-1.4-4.2-2.3-6.7-2.3H46.2zM143.3 85.2v12.9h12.4v3.3h-12.4v13h-3.5v-13h-12.4v-3.3h12.4V85.2h3.5z"/><path class="st1" d="M9.8 99.1c.1 0 .2 0 .3.1l.7.7c-.5.6-1.2 1.1-1.9 1.4-.8.3-1.7.5-2.7.5-.9 0-1.8-.2-2.5-.5s-1.4-.8-1.9-1.4S.7 98.8.4 98 0 96.3 0 95.3c0-1 .2-1.9.5-2.7.3-.8.8-1.5 1.3-2.1.6-.6 1.3-1 2-1.4.8-.3 1.7-.5 2.6-.5.9 0 1.8.1 2.5.4.7.3 1.3.7 1.8 1.2l-.6.8c0 .1-.1.1-.1.1-.1 0-.1.1-.2.1s-.2 0-.2-.1-.2-.1-.3-.2-.3 0-.5-.1l-.6-.3c-.2-.1-.5-.2-.8-.2s-.6-.1-1-.1c-.7 0-1.3.1-1.9.4-.6.2-1.1.6-1.5 1s-.7 1-1 1.6c-.2.6-.3 1.3-.3 2.1s.1 1.5.3 2.2c.2.6.5 1.2.9 1.6.4.4.9.8 1.4 1 .5.2 1.1.3 1.8.3.4 0 .7 0 1-.1.3 0 .6-.1.9-.2.3-.1.5-.2.7-.4.2-.1.5-.3.7-.5.3-.1.4-.1.4-.1zM16.5 92.5c.7 0 1.3.1 1.8.3.5.2 1 .5 1.4.9s.7.9.9 1.5c.2.6.3 1.2.3 1.9s-.1 1.4-.3 1.9c-.2.6-.5 1.1-.9 1.5-.4.4-.8.7-1.4.9-.5.2-1.1.3-1.8.3s-1.3-.1-1.8-.3c-.5-.2-1-.5-1.4-.9-.4-.4-.7-.9-.9-1.5-.2-.6-.3-1.2-.3-1.9s.1-1.4.3-1.9.5-1.1.9-1.5.8-.7 1.4-.9c.6-.2 1.2-.3 1.8-.3zm0 8.1c.9 0 1.6-.3 2-.9.4-.6.7-1.4.7-2.5s-.2-1.9-.7-2.5c-.4-.6-1.1-.9-2-.9-.5 0-.9.1-1.2.2-.3.2-.6.4-.8.7-.2.3-.4.7-.5 1.1-.1.4-.2.9-.2 1.5s.1 1 .2 1.4c.1.4.3.8.5 1.1.2.3.5.5.8.7.4.1.8.1 1.2.1zM22.8 101.8v-9.1h1c.2 0 .4.1.4.3l.1.9c.3-.4.7-.8 1.1-1 .4-.3.9-.4 1.5-.4s1.1.2 1.5.5c.4.3.7.8.8 1.4.1-.3.3-.6.5-.9.2-.2.4-.4.7-.6.3-.2.5-.3.8-.3.3-.1.6-.1.9-.1.5 0 .9.1 1.3.2.4.2.7.4 1 .7.3.3.5.7.6 1.1.1.4.2.9.2 1.5v5.8h-1.6V96c0-.7-.2-1.3-.5-1.6-.3-.4-.8-.6-1.4-.6-.3 0-.5 0-.8.1-.2.1-.4.2-.6.4-.2.2-.3.4-.4.7-.1.3-.2.6-.2.9v5.8h-1.6V96c0-.7-.1-1.3-.4-1.6-.3-.4-.7-.5-1.3-.5-.4 0-.8.1-1.1.3s-.6.5-.9.9v6.8h-1.6zM47.3 94.3c0 .1-.1.1-.1.2 0 0-.1.1-.2.1s-.2 0-.3-.1c-.1-.1-.2-.2-.4-.2-.2-.1-.4-.2-.6-.2s-.5-.1-.9-.1-.8.1-1.2.2c-.3.2-.6.4-.9.7-.2.3-.4.7-.5 1.1-.1.4-.2.9-.2 1.4 0 .6.1 1 .2 1.5.1.4.3.8.5 1.1.2.3.5.5.8.7.3.2.7.2 1.1.2.4 0 .7 0 1-.1.3-.1.5-.2.6-.3s.3-.2.4-.3c.1-.1.2-.1.3-.1.1 0 .2.1.3.2l.4.6c-.4.5-.9.8-1.5 1.1-.6.2-1.2.3-1.9.3-.6 0-1.1-.1-1.6-.3s-.9-.5-1.3-.9-.6-.9-.9-1.5c-.2-.6-.3-1.2-.3-2 0-.7.1-1.3.3-1.9.2-.6.5-1.1.8-1.5s.8-.7 1.3-1c.5-.2 1.1-.4 1.8-.4.6 0 1.2.1 1.7.3.5.2.9.5 1.3.9v.3zM56.2 101.8h-.7c-.2 0-.3 0-.4-.1-.1 0-.2-.1-.2-.3l-.2-.8c-.2.2-.5.4-.7.6-.2.2-.5.3-.7.4-.3.1-.5.2-.8.3-.3.1-.6.1-.9.1-.4 0-.7 0-1-.1-.3-.1-.6-.2-.8-.4-.2-.2-.4-.5-.5-.8-.1-.3-.2-.7-.2-1.1 0-.4.1-.7.3-1 .2-.3.5-.6 1-.9.4-.3 1-.5 1.7-.6.7-.2 1.6-.2 2.6-.2v-.7c0-.7-.2-1.3-.5-1.6s-.8-.5-1.3-.5c-.4 0-.7 0-1 .1s-.5.2-.7.3c-.2.1-.4.2-.5.3-.1.1-.3.1-.4.1-.1 0-.2 0-.3-.1l-.2-.2-.3-.5c.5-.5 1-.8 1.6-1.1.6-.2 1.2-.4 1.9-.4.5 0 1 .1 1.4.3.4.2.7.4 1 .7.3.3.5.7.6 1.1.1.4.2.9.2 1.4v5.7zm-4.2-1c.3 0 .5 0 .8-.1s.5-.1.7-.2.4-.2.6-.4c.2-.1.4-.3.6-.5v-1.9c-.7 0-1.4 0-1.9.1s-.9.2-1.3.4-.6.3-.7.5c-.1.2-.2.4-.2.7 0 .2 0 .4.1.6.1.2.2.3.3.4s.3.2.5.2c.1.2.3.2.5.2zM65 101.8c-.2 0-.4-.1-.4-.3l-.1-1.1c-.4.5-.8.9-1.3 1.1-.5.3-1.1.4-1.7.4-.5 0-1-.1-1.4-.3-.4-.2-.8-.5-1.1-.9s-.5-.9-.7-1.5-.3-1.2-.3-2c0-.7.1-1.3.3-1.9s.4-1.1.8-1.5c.3-.4.8-.8 1.2-1 .5-.2 1-.4 1.7-.4.6 0 1 .1 1.4.3.4.2.7.5 1.1.8v-5.1H66v13.3h-1zm-3.1-1.2c.5 0 1-.1 1.4-.4.4-.2.8-.6 1.1-1v-4.4c-.3-.4-.6-.7-1-.8-.4-.2-.7-.2-1.2-.2-.9 0-1.5.3-2 .9-.5.6-.7 1.5-.7 2.6 0 .6.1 1.1.2 1.5.1.4.3.8.5 1s.4.5.7.6.7.2 1 .2zM72.3 92.5c.5 0 1 .1 1.5.3s.9.4 1.2.8c.3.3.6.8.8 1.3.2.5.3 1.1.3 1.7 0 .3 0 .4-.1.5-.1.1-.2.1-.3.1h-6.1c0 .6.1 1.1.2 1.5.1.4.3.8.6 1.1s.6.5.9.6c.3.1.7.2 1.2.2.4 0 .7 0 1-.1.3-.1.5-.2.8-.3.2-.1.4-.2.5-.3.1-.1.3-.1.4-.1.1 0 .2.1.3.2l.5.6c-.2.2-.4.4-.7.6-.3.2-.6.3-.9.4-.3.1-.6.2-1 .3s-.7.1-1 .1c-.6 0-1.2-.1-1.7-.3s-1-.5-1.4-.9-.7-.9-.9-1.5-.4-1.5-.4-2.3c0-.6.1-1.2.3-1.8.2-.6.5-1 .8-1.4.4-.4.8-.7 1.3-1 .6-.2 1.2-.3 1.9-.3zm0 1.2c-.8 0-1.4.2-1.8.7-.4.4-.7 1.1-.8 1.9h5c0-.4-.1-.7-.2-1-.1-.3-.3-.6-.5-.8s-.4-.4-.7-.5-.6-.3-1-.3zM84.8 101.8h-.7c-.2 0-.3 0-.4-.1-.1 0-.2-.1-.2-.3l-.2-.8c-.2.2-.5.4-.7.6-.2.2-.5.3-.7.4-.3.1-.5.2-.8.3-.3.1-.6.1-.9.1-.4 0-.7 0-1-.1-.3-.1-.6-.2-.8-.4-.2-.2-.4-.5-.5-.8-.1-.3-.2-.7-.2-1.1 0-.4.1-.7.3-1 .2-.3.5-.6 1-.9.4-.3 1-.5 1.7-.6.7-.2 1.6-.2 2.6-.2v-.7c0-.7-.2-1.3-.5-1.6s-.8-.5-1.3-.5c-.4 0-.7 0-1 .1s-.5.2-.7.3c-.2.1-.4.2-.5.3-.1.1-.3.1-.4.1-.1 0-.2 0-.3-.1l-.2-.2-.3-.5c.5-.5 1-.8 1.6-1.1.6-.2 1.2-.4 1.9-.4.5 0 1 .1 1.4.3.4.2.7.4 1 .7.3.3.5.7.6 1.1.1.4.2.9.2 1.4v5.7zm-4.1-1c.3 0 .5 0 .8-.1s.5-.1.7-.2.4-.2.6-.4c.2-.1.4-.3.6-.5v-1.9c-.7 0-1.4 0-1.9.1s-.9.2-1.3.4-.6.3-.7.5c-.1.2-.2.4-.2.7 0 .2 0 .4.1.6.1.2.2.3.3.4s.3.2.5.2c.1.2.2.2.5.2zM93.7 101.8c-.2 0-.4-.1-.4-.3l-.1-1.1c-.4.5-.8.9-1.3 1.1-.5.3-1.1.4-1.7.4-.5 0-1-.1-1.4-.3-.4-.2-.8-.5-1.1-.9s-.5-.9-.7-1.5-.2-1.3-.2-2 .1-1.3.3-1.9.4-1.1.8-1.5c.3-.4.8-.8 1.2-1 .5-.2 1-.4 1.7-.4.6 0 1 .1 1.4.3.4.2.7.5 1.1.8v-5.1h1.6v13.3h-1.2zm-3.1-1.2c.5 0 1-.1 1.4-.4.4-.2.8-.6 1.1-1v-4.4c-.3-.4-.6-.7-1-.8-.4-.2-.7-.2-1.2-.2-.9 0-1.5.3-2 .9-.5.6-.7 1.5-.7 2.6 0 .6.1 1.1.2 1.5.1.4.3.8.5 1s.4.5.7.6.6.2 1 .2zM101 92.5c.7 0 1.3.1 1.8.3.5.2 1 .5 1.4.9s.7.9.9 1.5c.2.6.3 1.2.3 1.9s-.1 1.4-.3 1.9c-.2.6-.5 1.1-.9 1.5-.4.4-.8.7-1.4.9-.5.2-1.1.3-1.8.3s-1.3-.1-1.8-.3c-.5-.2-1-.5-1.4-.9-.4-.4-.7-.9-.9-1.5-.2-.6-.3-1.2-.3-1.9s.1-1.4.3-1.9.5-1.1.9-1.5.8-.7 1.4-.9c.5-.2 1.1-.3 1.8-.3zm0 8.1c.9 0 1.6-.3 2-.9.4-.6.7-1.4.7-2.5s-.2-1.9-.7-2.5c-.4-.6-1.1-.9-2-.9-.5 0-.9.1-1.2.2-.3.2-.6.4-.8.7-.2.3-.4.7-.5 1.1-.1.4-.2.9-.2 1.5s.1 1 .2 1.4c.1.4.3.8.5 1.1.2.3.5.5.8.7.3.1.7.1 1.2.1z"/><g><path class="st1" d="M215.3 78.1v1.4h-6.2v4.3h5v1.4h-5v4.4h6.2V91h-7.9V78.1h7.9zM220.3 91.1c-.7 0-1.3-.2-1.7-.6-.4-.4-.6-1-.6-1.7v-5.6h-1c-.1 0-.2 0-.2-.1-.1-.1-.1-.1-.1-.3v-.6l1.5-.2.4-2.8c0-.1.1-.2.1-.2.1-.1.2-.1.3-.1h.8V82h2.6v1.2h-2.6v5.5c0 .4.1.7.3.9.2.2.4.3.7.3.2 0 .3 0 .4-.1.1 0 .2-.1.3-.1.1-.1.2-.1.2-.1.1 0 .1-.1.2-.1s.2.1.2.2l.5.8c-.3.3-.6.5-1 .6-.5-.1-.9 0-1.3 0zM226.4 79c0 .2 0 .3-.1.4-.1.1-.1.3-.3.4-.1.1-.2.2-.4.2-.1.1-.3.1-.4.1s-.3 0-.4-.1c-.1-.1-.3-.1-.4-.2-.1-.1-.2-.2-.2-.4-.1-.1-.1-.3-.1-.4 0-.2 0-.3.1-.4.1-.1.1-.3.2-.4.1-.1.2-.2.4-.2.1-.1.3-.1.4-.1s.3 0 .4.1c.1.1.3.1.4.2.1.1.2.2.3.4.1.1.1.2.1.4zm-.3 2.8V91h-1.6v-9.1h1.6zM236.3 81.8V94h-1.6v-4.4c-.4.4-.8.8-1.3 1.1s-1 .4-1.7.4c-.5 0-1-.1-1.4-.3-.4-.2-.8-.5-1.1-.9s-.5-.9-.7-1.5-.2-1.3-.2-2 .1-1.3.3-1.9.4-1.1.8-1.5c.3-.4.8-.8 1.2-1 .5-.2 1-.4 1.7-.4.6 0 1.1.1 1.5.3.4.2.8.5 1.1.9l.1-.7c.1-.2.2-.3.4-.3h.9zm-4.1 8c.5 0 1-.1 1.4-.4.4-.2.8-.6 1.1-1V84c-.3-.4-.6-.7-1-.8-.4-.2-.7-.2-1.2-.2-.9 0-1.5.3-2 .9-.5.6-.7 1.5-.7 2.6 0 .6.1 1.1.2 1.5.1.4.3.8.5 1s.4.5.7.6.6.2 1 .2zM240.3 81.8v5.8c0 .7.2 1.2.5 1.6.3.4.8.6 1.4.6.5 0 .9-.1 1.3-.3.4-.2.8-.5 1.1-.9v-6.7h1.6V91h-1c-.2 0-.4-.1-.4-.3l-.1-1c-.4.4-.8.8-1.3 1.1-.5.3-1.1.4-1.7.4-.5 0-.9-.1-1.3-.2-.4-.2-.7-.4-1-.7-.3-.3-.5-.7-.6-1.1-.1-.4-.2-.9-.2-1.4V82h1.7zM252.6 81.7c.5 0 1 .1 1.5.3s.9.4 1.2.8c.3.3.6.8.8 1.3.2.5.3 1.1.3 1.7 0 .3 0 .4-.1.5-.1.1-.2.1-.3.1h-6.1c0 .6.1 1.1.2 1.5.1.4.3.8.6 1.1s.6.5.9.6c.3.1.7.2 1.2.2.4 0 .7 0 1-.1.3-.1.5-.2.8-.3.2-.1.4-.2.5-.3.1-.1.3-.1.4-.1.1 0 .2.1.3.2l.5.6c-.2.2-.4.4-.7.6-.3.2-.6.3-.9.4-.3.1-.6.2-1 .3s-.7.1-1 .1c-.6 0-1.2-.1-1.7-.3s-1-.5-1.4-.9-.7-.9-.9-1.5-.3-1.3-.3-2.1c0-.6.1-1.2.3-1.8.2-.6.5-1 .8-1.4.4-.4.8-.7 1.3-1 .5-.4 1.1-.5 1.8-.5zm0 1.2c-.8 0-1.4.2-1.8.7-.4.4-.7 1.1-.8 1.9h5c0-.4-.1-.7-.2-1-.1-.3-.3-.6-.5-.8s-.4-.4-.7-.5-.6-.3-1-.3zM261.1 91.1c-.7 0-1.3-.2-1.7-.6-.4-.4-.6-1-.6-1.7v-5.6h-1.1c-.1 0-.2 0-.2-.1-.1-.1-.1-.1-.1-.3v-.6l1.6-.2.4-2.8c0-.1.1-.2.1-.2.1-.1.2-.1.3-.1h.8V82h2.6v1.2h-2.6v5.5c0 .4.1.7.3.9.2.2.4.3.7.3.2 0 .3 0 .4-.1.1 0 .2-.1.3-.1.1-.1.2-.1.2-.1.1 0 .1-.1.2-.1s.2.1.2.2l.5.8c-.3.3-.6.5-1 .6-.4-.1-.8 0-1.3 0zM271.8 91h-.7c-.2 0-.3 0-.4-.1-.1 0-.2-.1-.2-.3l-.2-.8c-.2.2-.5.4-.7.6-.2.2-.5.3-.7.4-.3.1-.5.2-.8.3-.3.1-.6.1-.9.1-.4 0-.7 0-1-.1-.3-.1-.6-.2-.8-.4-.2-.2-.4-.5-.5-.8-.1-.3-.2-.7-.2-1.1 0-.4.1-.7.3-1 .2-.3.5-.6 1-.9.4-.3 1-.5 1.7-.6.7-.2 1.6-.2 2.6-.2v-.7c0-.7-.2-1.3-.5-1.6s-.8-.8-1.4-.8c-.4 0-.7 0-1 .1s-.5.2-.7.3c-.2.1-.4.2-.5.3-.1.1-.3.1-.4.1-.1 0-.2 0-.3-.1l-.2-.2-.3-.5c.5-.5 1-.8 1.6-1.1.6-.2 1.2-.4 1.9-.4.5 0 1 .1 1.4.3.4.2.7.4 1 .7.3.3.5.7.6 1.1.1.4.2.9.2 1.4v6zm-4.2-1c.3 0 .5 0 .8-.1s.5-.1.7-.2.4-.2.6-.4c.2-.1.4-.3.6-.5v-1.9c-.7 0-1.4 0-1.9.1s-.9.2-1.3.4-.6.3-.7.5c-.1.2-.2.4-.2.7 0 .2 0 .4.1.6.1.2.2.3.3.4s.3.2.5.2c.1.2.3.2.5.2zM284.1 91c-.2 0-.4-.1-.4-.3l-.1-1.1c-.4.5-.8.9-1.3 1.1-.5.3-1.1.4-1.7.4-.5 0-1-.1-1.4-.3-.4-.2-.8-.5-1.1-.9s-.5-.9-.7-1.5-.2-1.3-.2-2 .1-1.3.3-1.9.4-1.1.8-1.5c.3-.4.8-.8 1.2-1 .5-.2 1-.4 1.7-.4.6 0 1 .1 1.4.3.4.2.7.5 1.1.8v-5.1h1.6V91h-1.2zm-3.1-1.2c.5 0 1-.1 1.4-.4.4-.2.8-.6 1.1-1V84c-.3-.4-.6-.7-1-.8-.4-.2-.7-.2-1.2-.2-.9 0-1.5.3-2 .9-.5.6-.7 1.5-.7 2.6 0 .6.1 1.1.2 1.5.1.4.3.8.5 1s.4.5.7.6.6.2 1 .2zM291.5 81.7c.7 0 1.3.1 1.8.3.5.2 1 .5 1.4.9s.7.9.9 1.5c.2.6.3 1.2.3 1.9s-.1 1.4-.3 1.9c-.2.6-.5 1.1-.9 1.5-.4.4-.8.7-1.4.9-.5.2-1.1.3-1.8.3s-1.3-.1-1.8-.3c-.5-.2-1-.5-1.4-.9-.4-.4-.7-.9-.9-1.5-.2-.6-.3-1.2-.3-1.9s.1-1.4.3-1.9.5-1.1.9-1.5.8-.7 1.4-.9c.5-.2 1.1-.3 1.8-.3zm0 8.1c.9 0 1.6-.3 2-.9.4-.6.7-1.4.7-2.5s-.2-1.9-.7-2.5c-.4-.6-1.1-.9-2-.9-.5 0-.9.1-1.2.2-.3.2-.6.4-.8.7-.2.3-.4.7-.5 1.1-.1.4-.2.9-.2 1.5s.1 1 .2 1.4c.1.4.3.8.5 1.1.2.3.5.5.8.7.3.1.7.1 1.2.1zM181 105.3h.7c.2 0 .4 0 .5-.1s.3-.2.4-.3l4.3-4.9c.1-.1.3-.3.4-.3.1-.1.3-.1.5-.1h1.5l-4.9 5.6c-.1.1-.2.3-.4.4-.1.1-.2.2-.4.2.2.1.3.1.4.2s.3.2.4.4l5.1 6.1h-1.8s-.1 0-.2-.1c-.1 0-.1-.1-.2-.1 0 0-.1-.1-.1-.2l-4.5-5.1-.2-.2c-.1-.1-.1-.1-.2-.1s-.2-.1-.3-.1h-1v5.9h-1.7V99.7h1.7v5.6zM193.2 100.6c0 .2 0 .3-.1.4-.1.1-.1.3-.3.4-.1.1-.2.2-.4.2-.1.1-.3.1-.4.1s-.3 0-.4-.1c-.1-.1-.3-.1-.4-.2-.1-.1-.2-.2-.2-.4-.1-.1-.1-.3-.1-.4 0-.2 0-.3.1-.4.1-.1.1-.3.2-.4.1-.1.2-.2.4-.2.1-.1.3-.1.4-.1s.3 0 .4.1c.1.1.3.1.4.2.1.1.2.2.3.4.1.1.1.2.1.4zm-.3 2.8v9.1h-1.6v-9.1h1.6zM198.4 112.7c-.7 0-1.3-.2-1.7-.6-.4-.4-.6-1-.6-1.7v-5.6H195c-.1 0-.2 0-.2-.1-.1-.1-.1-.1-.1-.3v-.6l1.5-.2.4-2.8c0-.1.1-.2.1-.2.1-.1.2-.1.3-.1h.8v3.1h2.6v1.2h-2.6v5.5c0 .4.1.7.3.9.2.2.4.3.7.3.2 0 .3 0 .4-.1.1 0 .2-.1.3-.1.1-.1.2-.1.2-.1.1 0 .1-.1.2-.1s.2.1.2.2l.5.8c-.3.3-.6.5-1 .6-.3-.1-.7 0-1.2 0zM204.6 99.7h1.4c.2 0 .3 0 .4.1.1.1.2.2.2.3l3.6 9.1c.1.2.2.4.2.7.1.2.1.5.2.7.1-.3.1-.5.2-.7.1-.2.1-.5.2-.7l3.6-9.1c0-.1.1-.2.2-.3s.2-.1.4-.1h1.4l-5.3 12.9h-1.6l-5.1-12.9zM220.3 100.6c0 .2 0 .3-.1.4-.1.1-.1.3-.3.4-.1.1-.2.2-.4.2-.1.1-.3.1-.4.1s-.3 0-.4-.1c-.1-.1-.3-.1-.4-.2-.1-.1-.2-.2-.2-.4-.1-.1-.1-.3-.1-.4 0-.2 0-.3.1-.4.1-.1.1-.3.2-.4.1-.1.2-.2.4-.2.1-.1.3-.1.4-.1s.3 0 .4.1c.1.1.3.1.4.2.1.1.2.2.3.4 0 .1.1.2.1.4zm-.4 2.8v9.1h-1.6v-9.1h1.6zM229.4 112.6h-.7c-.2 0-.3 0-.4-.1-.1 0-.2-.1-.2-.3l-.2-.8c-.2.2-.5.4-.7.6-.2.2-.5.3-.7.4-.3.1-.5.2-.8.3-.3.1-.6.1-.9.1-.4 0-.7 0-1-.1-.3-.1-.6-.2-.8-.4-.2-.2-.4-.5-.5-.8-.1-.3-.2-.7-.2-1.1 0-.4.1-.7.3-1 .2-.3.5-.6 1-.9.4-.3 1-.5 1.7-.6.7-.2 1.6-.2 2.6-.2v-.7c0-.7-.2-1.3-.5-1.6s-.8-.5-1.3-.5c-.4 0-.7 0-1 .1s-.5.2-.7.3c-.2.1-.4.2-.5.3-.1.1-.3.1-.4.1-.1 0-.2 0-.3-.1l-.2-.2-.3-.5c.5-.5 1-.8 1.6-1.1.6-.2 1.2-.4 1.9-.4.5 0 1 .1 1.4.3.4.2.7.4 1 .7.3.3.5.7.6 1.1.1.4.2.9.2 1.4v5.7zm-4.1-1c.3 0 .5 0 .8-.1s.5-.1.7-.2.4-.2.6-.4c.2-.1.4-.3.6-.5v-1.9c-.7 0-1.4 0-1.9.1s-.9.2-1.3.4-.6.3-.7.5c-.1.2-.2.4-.2.7 0 .2 0 .4.1.6.1.2.2.3.3.4s.3.2.5.2c.1.2.2.2.5.2zM234.9 103.3c.4 0 .8 0 1.1.1.3.1.7.2.9.4h2.5v.6c0 .2-.1.3-.4.4l-1 .1c.2.4.3.8.3 1.3 0 .4-.1.8-.3 1.2-.2.4-.4.7-.7.9-.3.3-.7.5-1.1.6-.4.1-.9.2-1.4.2-.4 0-.8-.1-1.2-.2-.2.1-.3.3-.4.4-.1.1-.1.3-.1.4 0 .2.1.4.3.5.2.1.4.2.7.2.3 0 .6.1 1 .1h1.1s.8 0 1.1.1c.4.1.7.2 1 .3s.5.4.7.6c.2.3.3.6.3 1s-.1.8-.3 1.1c-.2.4-.5.7-.8 1-.4.3-.8.5-1.3.7-.5.2-1.1.3-1.8.3s-1.2-.1-1.8-.2c-.5-.1-.9-.3-1.2-.5-.3-.2-.6-.5-.7-.8-.2-.3-.2-.6-.2-.9 0-.5.1-.8.4-1.1.3-.3.7-.6 1.2-.8-.3-.1-.5-.3-.6-.5s-.2-.5-.2-.8c0-.1 0-.3.1-.4 0-.1.1-.3.2-.4.1-.1.2-.3.4-.4.1-.1.3-.2.5-.3-.5-.3-.8-.6-1.1-1s-.4-.9-.4-1.5c0-.4.1-.8.3-1.2.2-.4.4-.7.7-.9.3-.3.7-.5 1.1-.6s.6 0 1.1 0zm2.9 9.7c0-.2-.1-.4-.2-.6s-.3-.2-.5-.3c-.2-.1-.5-.1-.7-.2-.3 0-.6-.1-.9-.1h-1c-.3 0-.6 0-.9-.1-.3.2-.6.4-.8.6-.2.2-.3.5-.3.8 0 .2.1.4.2.6.1.2.3.3.5.5.2.1.5.2.8.3.3.1.7.1 1.2.1.4 0 .8 0 1.2-.1s.6-.2.9-.3c.2-.1.4-.3.5-.5-.1-.2 0-.4 0-.7zm-2.9-4.9c.3 0 .6 0 .9-.1.2-.1.5-.2.6-.4.2-.2.3-.4.4-.6.1-.2.1-.5.1-.7 0-.6-.2-1-.5-1.3s-.8-.5-1.5-.5c-.6 0-1.1.2-1.5.5s-.5.8-.5 1.3c0 .3 0 .5.1.7.1.2.2.4.4.6.2.2.4.3.6.4.3.1.6.1.9.1zM244.7 103.3c.5 0 1 .1 1.5.3s.9.4 1.2.8c.3.3.6.8.8 1.3.2.5.3 1.1.3 1.7 0 .3 0 .4-.1.5-.1.1-.2.1-.3.1H242c0 .6.1 1.1.2 1.5.1.4.3.8.6 1.1s.6.5.9.6c.3.1.7.2 1.2.2.4 0 .7 0 1-.1.3-.1.5-.2.8-.3.2-.1.4-.2.5-.3.1-.1.3-.1.4-.1.1 0 .2.1.3.2l.5.6c-.2.2-.4.4-.7.6-.3.2-.6.3-.9.4-.3.1-.6.2-1 .3s-.7.1-1 .1c-.6 0-1.2-.1-1.7-.3s-1-.5-1.4-.9-.7-.9-.9-1.5-.3-1.3-.3-2.1c0-.6.1-1.2.3-1.8.2-.6.5-1 .8-1.4.4-.4.8-.7 1.3-1 .5-.4 1.1-.5 1.8-.5zm0 1.2c-.8 0-1.4.2-1.8.7-.4.4-.7 1.1-.8 1.9h5c0-.4-.1-.7-.2-1-.1-.3-.3-.6-.5-.8s-.4-.4-.7-.5-.6-.3-1-.3zM250.5 112.6v-9.1h1c.2 0 .4.1.4.3l.1.9c.3-.4.7-.8 1.1-1 .4-.3.9-.4 1.5-.4s1.1.2 1.5.5c.4.3.7.8.8 1.4.1-.3.3-.6.5-.9.2-.2.4-.4.7-.6.3-.2.5-.3.8-.3.3-.1.6-.1.9-.1.5 0 .9.1 1.3.2.4.2.7.4 1 .7.3.3.5.7.6 1.1.1.4.2.9.2 1.5v5.8h-1.6v-5.8c0-.7-.2-1.3-.5-1.6-.3-.4-.8-.6-1.4-.6-.3 0-.5 0-.8.1-.2.1-.4.2-.6.4-.2.2-.3.4-.4.7-.1.3-.2.6-.2.9v5.8h-1.6v-5.8c0-.7-.1-1.3-.4-1.6-.3-.4-.7-.5-1.3-.5-.4 0-.8.1-1.1.3s-.6.5-.9.9v6.8h-1.6zM279.6 112.6h-1.3c-.2 0-.3 0-.4-.1-.1-.1-.2-.2-.2-.3l-1.2-3.1h-5.8l-1.2 3.1c0 .1-.1.2-.2.3-.1.1-.2.1-.4.1h-1.4l5.2-12.9h1.8l5.1 12.9zm-8.5-4.8h4.8l-2-5.2c-.1-.3-.3-.7-.4-1.2-.1.2-.1.5-.2.7-.1.2-.1.4-.2.5l-2 5.2zM282.7 99.3v13.3h-1.6V99.3h1.6zM287.4 99.3v13.3h-1.6V99.3h1.6zM292.3 100.6c0 .2 0 .3-.1.4-.1.1-.1.3-.3.4-.1.1-.2.2-.4.2-.1.1-.3.1-.4.1s-.3 0-.4-.1c-.1-.1-.3-.1-.4-.2-.1-.1-.2-.2-.2-.4-.1-.1-.1-.3-.1-.4 0-.2 0-.3.1-.4.1-.1.1-.3.2-.4.1-.1.2-.2.4-.2.1-.1.3-.1.4-.1s.3 0 .4.1c.1.1.3.1.4.2.1.1.2.2.3.4.1.1.1.2.1.4zm-.3 2.8v9.1h-1.6v-9.1h1.6zM301.5 112.6h-.7c-.2 0-.3 0-.4-.1-.1 0-.2-.1-.2-.3l-.2-.8c-.2.2-.5.4-.7.6-.2.2-.5.3-.7.4-.3.1-.5.2-.8.3-.3.1-.6.1-.9.1-.4 0-.7 0-1-.1-.3-.1-.6-.2-.8-.4-.2-.2-.4-.5-.5-.8-.1-.3-.2-.7-.2-1.1 0-.4.1-.7.3-1 .2-.3.5-.6 1-.9.4-.3 1-.5 1.7-.6.7-.2 1.6-.2 2.6-.2v-.7c0-.7-.2-1.3-.5-1.6s-.8-.5-1.3-.5c-.4 0-.7 0-1 .1s-.5.2-.7.3c-.2.1-.4.2-.5.3-.1.1-.3.1-.4.1-.1 0-.2 0-.3-.1l-.2-.2-.3-.5c.5-.5 1-.8 1.6-1.1.6-.2 1.2-.4 1.9-.4.5 0 1 .1 1.4.3.4.2.7.4 1 .7.3.3.5.7.6 1.1.1.4.2.9.2 1.4v5.7zm-4.2-1c.3 0 .5 0 .8-.1s.5-.1.7-.2.4-.2.6-.4c.2-.1.4-.3.6-.5v-1.9c-.7 0-1.4 0-1.9.1s-.9.2-1.3.4-.6.3-.7.5c-.1.2-.2.4-.2.7 0 .2 0 .4.1.6.1.2.2.3.3.4s.3.2.5.2c.1.2.3.2.5.2zM303.9 112.6v-9.1h1c.2 0 .4.1.4.3l.1 1c.4-.4.8-.8 1.3-1.1s1.1-.4 1.7-.4c.5 0 .9.1 1.3.2.4.2.7.4 1 .7.3.3.4.7.6 1.1.1.4.2.9.2 1.4v5.8h-1.6v-5.8c0-.7-.2-1.2-.5-1.6-.3-.4-.8-.6-1.4-.6-.5 0-.9.1-1.3.3s-.8.5-1.1.9v6.7h-1.7zM320.3 104.1c0 .1 0 .2-.1.3s-.1.2-.2.3l-4.9 6.6h5v1.3h-6.9v-.7c0-.1 0-.2.1-.3s.1-.2.2-.3l5-6.6h-4.9v-1.3h6.8v.7zM321.7 111.6c0-.2 0-.3.1-.4.1-.1.1-.3.2-.4.1-.1.2-.2.4-.2.1-.1.3-.1.4-.1.2 0 .3 0 .4.1.1.1.3.1.4.2.1.1.2.2.2.4.1.1.1.3.1.4 0 .2 0 .3-.1.4-.1.1-.1.3-.2.4-.1.1-.2.2-.4.2-.1.1-.3.1-.4.1-.2 0-.3 0-.4-.1-.1-.1-.3-.1-.4-.2-.1-.1-.2-.2-.2-.4-.1-.1-.1-.3-.1-.4z"/></g><image width="1281" height="551" xlink:href="../../../../../../../Downloads/tagMala.png" transform="translate(180.27 -1400.984) scale(.1106)" overflow="visible"/></svg>