<svg id="Camada_1" xmlns="http://www.w3.org/2000/svg" viewBox="0 0 65.1 68.6"><style>.st0{fill:#8FCDF3;}</style><path class="st0" d="M18.9 7.7V23h14.7v3.9H18.9v15.4h-4.2V26.8H0v-3.9h14.7V7.7h4.2zM64.3 4.8H48.2l-1.6 10.9c1-.1 1.9-.3 3.4-.3 3.3 0 6.5.7 9.1 2.3 3.3 1.9 6 5.5 6 10.9 0 8.3-6.6 14.4-15.7 14.4-4.6 0-8.5-1.3-10.5-2.6l1.4-4.4c1.8 1 5.2 2.3 9 2.3 5.4 0 10-3.5 10-9.2-.1-5.5-3.7-9.4-12.2-9.4-2.4 0-4.3.3-5.9.5L44.1 0h20.2v4.8zM1.6 49H4v8.2c.4-.7 1-1.3 1.7-1.7.7-.4 1.5-.7 2.4-.7 1.8 0 4.6 1.1 4.6 5.6v7.8h-2.4v-7.5c0-2.1-.8-3.9-3-3.9-1.5 0-2.8 1.1-3.2 2.4-.1.3-.1.7-.1 1.1v7.9H1.6V49zM28.5 61.6c0 4.8-3.4 7-6.5 7-3.5 0-6.3-2.6-6.3-6.7 0-4.4 2.9-7 6.5-7 3.8-.1 6.3 2.7 6.3 6.7zm-10.4.1c0 2.9 1.7 5 4 5s4-2.1 4-5.1c0-2.2-1.1-5-3.9-5-2.9 0-4.1 2.6-4.1 5.1zM31.5 59.2c0-1.5 0-2.9-.1-4.1h2.1l.1 2.6h.1c.6-1.8 2-2.9 3.6-2.9.3 0 .5 0 .7.1v2.2c-.2-.1-.5-.1-.8-.1-1.7 0-2.9 1.3-3.2 3.1-.1.3-.1.7-.1 1.1v7h-2.4v-9zM47.5 68.3l-.2-1.7h-.1c-.7 1-2.1 2-4 2-2.7 0-4-1.9-4-3.8 0-3.2 2.8-4.9 7.9-4.9v-.3c0-1.1-.3-3-3-3-1.2 0-2.5.4-3.4 1l-.5-1.6c1.1-.7 2.7-1.2 4.3-1.2 4 0 5 2.7 5 5.4v4.9c0 1.1.1 2.2.2 3.1h-2.2zm-.4-6.7c-2.6-.1-5.6.4-5.6 3 0 1.5 1 2.3 2.2 2.3 1.7 0 2.8-1.1 3.2-2.2.1-.2.1-.5.1-.8v-2.3zM53 65.8c.7.5 1.9.9 3.1.9 1.7 0 2.5-.9 2.5-2s-.7-1.8-2.4-2.4c-2.4-.8-3.5-2.1-3.5-3.7 0-2.1 1.7-3.8 4.5-3.8 1.3 0 2.5.4 3.2.8l-.6 1.7c-.5-.3-1.5-.8-2.7-.8-1.4 0-2.2.8-2.2 1.8 0 1.1.8 1.6 2.5 2.2 2.3.9 3.4 2 3.4 4 0 2.3-1.8 3.9-4.9 3.9-1.4 0-2.8-.4-3.7-.9l.8-1.7z"/></svg>