<svg id="Camada_1" xmlns="http://www.w3.org/2000/svg" viewBox="0 0 236 177.1"><style>.st0{fill:#262424;} .st1{fill:#8FCDF3;}</style><path class="st0" d="M63.4 10.8c.8-.1 1.7-.2 3-.2 1.5 0 2.7.4 3.4 1 .7.6 1.1 1.5 1.1 2.5 0 1.1-.3 2-.9 2.6-.8.9-2.2 1.3-3.7 1.3-.5 0-.9 0-1.3-.1v4.9h-1.6v-12zm1.5 5.8c.3.1.8.1 1.3.1 1.9 0 3-.9 3-2.6 0-1.6-1.1-2.4-2.9-2.4-.7 0-1.2.1-1.5.1v4.8zM77.2 22.8l-.1-1.1H77c-.5.7-1.4 1.3-2.7 1.3-1.8 0-2.7-1.2-2.7-2.5 0-2.1 1.9-3.3 5.2-3.2v-.2c0-.7-.2-2-2-2-.8 0-1.7.3-2.3.6l-.4-1c.7-.5 1.8-.8 2.9-.8 2.7 0 3.3 1.8 3.3 3.6v3.3c0 .8 0 1.5.1 2.1h-1.2zm-.2-4.5c-1.7 0-3.7.3-3.7 2 0 1 .7 1.5 1.5 1.5 1.1 0 1.9-.7 2.1-1.5.1-.1.1-.3.1-.5v-1.5zM81.1 16.8c0-1 0-1.9-.1-2.7h1.4l.1 1.7h.1c.4-1.2 1.4-1.9 2.4-1.9.2 0 .3 0 .5.1v1.5c-.2 0-.3-.1-.5-.1-1.1 0-1.9.8-2.1 2 0 .2-.1.5-.1.7v4.6h-1.6v-5.9zM91.7 22.8l-.1-1.1h-.1c-.5.7-1.4 1.3-2.6 1.3-1.8 0-2.7-1.2-2.7-2.5 0-2.1 1.9-3.3 5.2-3.2v-.2c0-.7-.2-2-2-2-.8 0-1.7.3-2.3.6l-.4-1c.7-.5 1.8-.8 2.9-.8 2.7 0 3.3 1.8 3.3 3.6v3.3c0 .8 0 1.5.1 2.1h-1.3zm-.2-4.5c-1.7 0-3.7.3-3.7 2 0 1 .7 1.5 1.5 1.5 1.1 0 1.9-.7 2.1-1.5.1-.2.1-.3.1-.5v-1.5zM100.3 18.7c0 2.1 1.4 3 3 3 1.1 0 1.8-.2 2.4-.5l.3 1.1c-.6.3-1.5.5-2.9.5-2.7 0-4.3-1.8-4.3-4.4s1.5-4.7 4.1-4.7c2.8 0 3.6 2.5 3.6 4.1 0 .3 0 .6-.1.7h-6.1zm4.6-1.1c0-1-.4-2.6-2.2-2.6-1.6 0-2.3 1.5-2.4 2.6h4.6zM108.4 10h1.6v12.8h-1.6V10zM113.5 18.7c0 2.1 1.4 3 3 3 1.1 0 1.8-.2 2.4-.5l.3 1.1c-.6.3-1.5.5-2.9.5-2.7 0-4.3-1.8-4.3-4.4s1.5-4.7 4.1-4.7c2.8 0 3.6 2.5 3.6 4.1 0 .3 0 .6-.1.7h-6.1zm4.7-1.1c0-1-.4-2.6-2.2-2.6-1.6 0-2.3 1.5-2.4 2.6h4.6zM121.4 21.2c.5.3 1.3.6 2.1.6 1.2 0 1.7-.6 1.7-1.3 0-.8-.5-1.2-1.6-1.6-1.6-.6-2.3-1.4-2.3-2.5 0-1.4 1.1-2.6 3-2.6.9 0 1.7.3 2.1.5l-.4 1.2c-.3-.2-1-.5-1.8-.5-.9 0-1.5.5-1.5 1.2s.5 1 1.7 1.5c1.5.6 2.3 1.3 2.3 2.6 0 1.5-1.2 2.6-3.3 2.6-1 0-1.8-.2-2.4-.6l.4-1.1zM128.4 15.5c0-.7.5-1.1 1.1-1.1.6 0 1 .5 1.1 1.1 0 .6-.4 1.1-1.1 1.1-.7 0-1.1-.5-1.1-1.1zm0 6.4c0-.7.5-1.1 1.1-1.1.6 0 1 .5 1.1 1.1 0 .6-.4 1.1-1.1 1.1-.7 0-1.1-.5-1.1-1.1zM69.5 36.9c0 .1-.1.1-.1.2 0 0-.1.1-.2.1s-.2 0-.3-.1-.2-.2-.4-.2c-.2-.1-.4-.2-.6-.2s-.5-.1-.9-.1-.8.1-1.2.2c-.3.2-.6.4-.9.7-.2.3-.4.7-.5 1.1-.1.4-.2.9-.2 1.4 0 .6.1 1 .2 1.5.1.4.3.8.5 1.1.2.3.5.5.8.7.3.2.7.2 1.1.2.4 0 .7 0 1-.1.3-.1.5-.2.6-.3.2-.1.3-.2.4-.3.1-.1.2-.1.3-.1.1 0 .2.1.3.2l.5.6c-.4.5-.9.8-1.5 1.1-.6.2-1.2.3-1.9.3-.6 0-1.1-.1-1.6-.3-.5-.2-.9-.5-1.3-.9s-.6-.9-.9-1.5-.3-1.2-.3-2c0-.7.1-1.3.3-1.9.2-.6.5-1.1.8-1.5.4-.4.8-.7 1.3-1 .5-.2 1.1-.4 1.8-.4.6 0 1.2.1 1.7.3.5.2.9.5 1.3.9l-.1.3zM78.4 44.4h-.7c-.2 0-.3 0-.4-.1-.1 0-.2-.1-.2-.3l-.2-.8c-.2.2-.5.4-.7.6s-.5.3-.7.4c-.3.1-.5.2-.8.3-.3.1-.6.1-.9.1-.4 0-.7 0-1-.1-.3-.1-.6-.2-.8-.4-.2-.2-.4-.5-.5-.8-.1-.3-.2-.7-.2-1.1 0-.4.1-.7.3-1s.5-.6 1-.9 1-.5 1.7-.6c.7-.2 1.6-.2 2.6-.2v-.7c0-.7-.2-1.3-.5-1.6-.3-.4-.8-.5-1.3-.5-.4 0-.7 0-1 .1-.3.1-.5.2-.7.3-.2.1-.4.2-.5.3-.1.1-.3.1-.4.1-.1 0-.2 0-.3-.1l-.2-.2-.3-.5c.5-.5 1-.8 1.6-1.1s1.2-.4 1.9-.4c.5 0 1 .1 1.4.3s.7.4 1 .7.5.7.6 1.1c.1.4.2.9.2 1.4v5.7zm-4.2-1c.3 0 .5 0 .8-.1s.5-.1.7-.2c.2-.1.4-.2.6-.4.2-.1.4-.3.6-.5v-1.9c-.7 0-1.4 0-1.9.1s-.9.2-1.3.4c-.3.2-.6.3-.7.5s-.2.4-.2.7c0 .2 0 .5.1.6s.2.3.3.4c.1.1.3.2.5.2.1.2.3.2.5.2zM82.6 31.1v13.3H81V31.1h1.6zM87.7 46.6h.1s.1 0 .2.1c.1 0 .1.1.2.1h.3c.3 0 .4 0 .6-.1.1-.1.2-.2.2-.4 0-.1 0-.2-.1-.3-.1-.1-.2-.1-.3-.2s-.3-.1-.5-.1-.4-.1-.6-.1l.3-1.1c-.5-.1-1-.2-1.4-.5-.4-.2-.8-.6-1.1-1-.3-.4-.5-.9-.7-1.4-.2-.5-.3-1.2-.3-1.8 0-.7.1-1.3.3-1.9.2-.6.5-1.1.8-1.5.4-.4.8-.7 1.3-1 .5-.2 1.1-.4 1.8-.4.6 0 1.2.1 1.7.3.5.2.9.5 1.3.9l-.4.6c0 .1-.1.1-.1.2 0 0-.1.1-.2.1s-.2 0-.3-.1-.2-.2-.4-.2c-.2-.1-.4-.2-.6-.2s-.5-.1-.9-.1-.8.1-1.2.2c-.3.2-.6.4-.9.7-.2.3-.4.7-.5 1.1-.1.4-.2.9-.2 1.4 0 .6.1 1 .2 1.5.1.4.3.8.5 1.1.2.3.5.5.8.7.3.2.7.2 1.1.2.4 0 .7 0 1-.1.3-.1.5-.2.6-.3.2-.1.3-.2.4-.3.1-.1.2-.1.3-.1h.2c.1 0 .1.1.1.1l.5.6c-.4.4-.8.8-1.3 1-.5.2-1.1.4-1.6.4l.2.3c.5.1.9.3 1.2.5s.4.5.4.8c0 .2 0 .4-.1.5-.1.2-.2.3-.4.4-.2.1-.4.2-.6.2-.2.1-.5.1-.8.1-.2 0-.5 0-.7-.1-.2-.1-.4-.1-.6-.2l.2-.5c-.1 0-.1-.1 0-.1zM100.5 44.4h-.7c-.2 0-.3 0-.4-.1-.1 0-.2-.1-.2-.3l-.2-.8c-.2.2-.5.4-.7.6s-.5.3-.7.4c-.3.1-.5.2-.8.3-.3.1-.6.1-.9.1-.4 0-.7 0-1-.1-.3-.1-.6-.2-.8-.4-.2-.2-.4-.5-.5-.8-.1-.3-.2-.7-.2-1.1 0-.4.1-.7.3-1s.5-.6 1-.9 1-.5 1.7-.6c.7-.2 1.6-.2 2.6-.2v-.7c0-.7-.2-1.3-.5-1.6-.3-.4-.8-.5-1.3-.5-.4 0-.7 0-1 .1-.3.1-.5.2-.7.3-.2.1-.4.2-.5.3-.1.1-.3.1-.4.1-.1 0-.2 0-.3-.1l-.2-.2-.3-.5c.5-.5 1-.8 1.6-1.1s1.2-.4 1.9-.4c.5 0 1 .1 1.4.3s.7.4 1 .7.5.7.6 1.1c.1.4.2.9.2 1.4v5.7zm-4.1-1c.3 0 .5 0 .8-.1s.5-.1.7-.2c.2-.1.4-.2.6-.4.2-.1.4-.3.6-.5v-1.9c-.7 0-1.4 0-1.9.1s-.9.2-1.3.4c-.3.2-.6.3-.7.5s-.2.4-.2.7c0 .2 0 .5.1.6s.2.3.3.4c.1.1.3.2.5.2.1.2.3.2.5.2zM108.2 35.3v9.8c0 .4 0 .7-.1 1-.1.3-.2.6-.5.8-.2.2-.5.4-.8.6-.3.1-.7.2-1.2.2h-.5c-.2 0-.3-.1-.5-.1l.1-.9c0-.1 0-.1.1-.1H105.4c.5 0 .8-.1 1-.3.2-.2.3-.6.3-1.1v-9.8h1.5zm.4-2.9c0 .2 0 .3-.1.4-.1.1-.1.3-.3.4-.1.1-.2.2-.4.2-.1.1-.3.1-.4.1-.2 0-.3 0-.4-.1-.1-.1-.3-.1-.4-.2-.1-.1-.2-.2-.2-.4-.1-.1-.1-.3-.1-.4 0-.2 0-.3.1-.4.1-.1.1-.3.2-.4.1-.1.2-.2.4-.2.1-.1.3-.1.4-.1.2 0 .3 0 .4.1.1.1.3.1.4.2.1.1.2.2.3.4.1.1.1.2.1.4zM114.6 35.1c.5 0 1 .1 1.5.3.5.2.9.4 1.2.8s.6.8.8 1.3c.2.5.3 1.1.3 1.7 0 .3 0 .4-.1.5-.1.1-.2.1-.3.1h-6c0 .6.1 1.1.2 1.5s.3.8.6 1.1.6.5.9.6c.3.1.7.2 1.2.2.4 0 .7 0 1-.1s.5-.2.8-.3c.2-.1.4-.2.5-.3.1-.1.3-.1.4-.1.1 0 .2.1.3.2l.5.6c-.2.2-.4.4-.7.6-.3.2-.6.3-.9.4s-.6.2-1 .3c-.3.1-.7.1-1 .1-.6 0-1.2-.1-1.7-.3-.5-.2-1-.5-1.4-.9-.4-.4-.7-.9-.9-1.5-.2-.6-.3-1.3-.3-2.1 0-.6.1-1.2.3-1.8.2-.6.5-1 .8-1.4.4-.4.8-.7 1.3-1 .5-.4 1.1-.5 1.7-.5zm.1 1.2c-.8 0-1.4.2-1.8.7-.4.4-.7 1.1-.8 1.9h5c0-.4-.1-.7-.2-1-.1-.3-.3-.6-.4-.8-.2-.2-.4-.4-.7-.5-.4-.2-.8-.3-1.1-.3zM127.1 44.4h-.7c-.2 0-.3 0-.4-.1-.1 0-.2-.1-.2-.3l-.2-.8c-.2.2-.5.4-.7.6-.2.2-.5.3-.7.4-.3.1-.5.2-.8.3-.3.1-.6.1-.9.1-.4 0-.7 0-1-.1-.3-.1-.6-.2-.8-.4-.2-.2-.4-.5-.5-.8s-.2-.7-.2-1.1c0-.4.1-.7.3-1s.5-.6 1-.9c.4-.3 1-.5 1.7-.6.7-.2 1.6-.2 2.6-.2v-.7c0-.7-.2-1.3-.5-1.6-.3-.4-.8-.5-1.3-.5-.4 0-.7 0-1 .1-.3.1-.5.2-.7.3-.2.1-.4.2-.5.3-.1.1-.3.1-.4.1-.1 0-.2 0-.3-.1l-.2-.2-.3-.5c.5-.5 1-.8 1.6-1.1s1.2-.4 1.9-.4c.5 0 1 .1 1.4.3.4.2.7.4 1 .7.3.3.5.7.6 1.1.1.4.2.9.2 1.4v5.7zm-4.1-1c.3 0 .5 0 .8-.1.2-.1.5-.1.7-.2.2-.1.4-.2.6-.4.2-.1.4-.3.6-.5v-1.9c-.7 0-1.4 0-1.9.1s-.9.2-1.3.4c-.3.2-.6.3-.7.5-.1.2-.2.4-.2.7 0 .2 0 .5.1.6s.2.3.3.4c.1.1.3.2.5.2.1.2.3.2.5.2zM129.6 44.4v-9.1h1c.2 0 .4.1.4.3l.1 1c.4-.4.8-.8 1.3-1.1.5-.3 1.1-.4 1.7-.4.5 0 .9.1 1.3.2s.7.4 1 .7.4.7.6 1.1c.1.4.2.9.2 1.4v5.8h-1.6v-5.8c0-.7-.2-1.2-.5-1.6-.3-.4-.8-.6-1.4-.6-.5 0-.9.1-1.3.3-.4.2-.8.5-1.1.9v6.7h-1.7zM144.8 36.8c-.1.1-.2.2-.3.2-.1 0-.2 0-.3-.1-.1-.1-.3-.1-.4-.2s-.4-.2-.6-.2c-.2-.1-.5-.1-.8-.1-.3 0-.5 0-.7.1l-.6.3c-.2.1-.3.3-.4.4-.1.2-.1.3-.1.5s.1.4.2.6c.1.2.3.3.5.4s.5.2.8.3l.9.3.9.3s.5.3.8.5c.2.2.4.4.5.7.1.3.2.6.2.9 0 .4-.1.8-.2 1.2-.1.4-.4.7-.7.9-.3.3-.7.5-1.1.6-.4.2-.9.2-1.5.2s-1.2-.1-1.7-.3c-.5-.2-1-.5-1.3-.8l.4-.6c0-.1.1-.1.2-.2.1 0 .2-.1.3-.1.1 0 .2 0 .3.1.1.1.3.2.4.3l.6.3s.5.1.9.1c.3 0 .6 0 .8-.1l.6-.3c.2-.1.3-.3.3-.5.1-.2.1-.4.1-.6 0-.3-.1-.5-.2-.6-.1-.2-.3-.3-.5-.4s-.5-.2-.8-.3l-.9-.3-.9-.3c-.3-.1-.5-.3-.8-.5-.2-.2-.4-.4-.5-.7-.1-.3-.2-.6-.2-1 0-.3.1-.7.2-1 .1-.3.4-.6.6-.8.3-.2.6-.4 1-.6.4-.1.9-.2 1.4-.2.6 0 1.1.1 1.6.3.5.2.9.4 1.2.8l-.2.5zM146.9 43.3c0-.1 0-.3.1-.4s.1-.2.2-.3.2-.2.3-.2c.1-.1.3-.1.4-.1.2 0 .3 0 .5.1.1.1.3.2.4.3.1.1.2.3.2.4 0 .2.1.3.1.5 0 .3 0 .5-.1.8l-.3.9s-.3.6-.5.8c-.2.3-.5.5-.7.7l-.3-.3c-.1-.1-.1-.2-.1-.3 0-.1 0-.2.1-.2.1-.1.1-.2.2-.3.1-.1.2-.2.3-.4.1-.1.2-.3.3-.5.1-.2.1-.4.2-.6h-.2c-.2 0-.3 0-.4-.1s-.2-.1-.3-.2-.2-.2-.2-.4c-.1.1-.2-.1-.2-.2zM69.5 58.5c0 .1-.1.1-.1.2 0 0-.1.1-.2.1s-.2 0-.3-.1-.2-.2-.4-.2c-.2-.1-.4-.2-.6-.2s-.5-.3-.9-.3-.8.1-1.2.2c-.3.2-.6.4-.9.7-.2.3-.4.7-.5 1.1-.1.4-.2.9-.2 1.4 0 .6.1 1 .2 1.5.1.4.3.8.5 1.1.2.3.5.5.8.7.3.2.7.2 1.1.2.4 0 .7 0 1-.1.3-.1.5-.2.6-.3.2-.1.3-.2.4-.3.1-.1.2-.1.3-.1.1 0 .2.1.3.2l.5.6c-.4.5-.9.8-1.5 1.1-.6.2-1.2.3-1.9.3-.6 0-1.1-.1-1.6-.3-.5-.2-.9-.5-1.3-.9s-.6-.9-.9-1.5-.3-1.2-.3-2c0-.7.1-1.3.3-1.9.2-.6.5-1.1.8-1.5.4-.4.8-.7 1.3-1 .5-.2 1.1-.4 1.8-.4.6 0 1.2.1 1.7.3.5.2.9.5 1.3.9l-.1.5zM78.4 66h-.7c-.2 0-.3 0-.4-.1-.1 0-.2-.1-.2-.3l-.2-.8c-.2.2-.5.4-.7.6s-.5.3-.7.4c-.2.1-.5.2-.8.2-.3.1-.6.1-.9.1-.4 0-.7 0-1-.1-.3-.1-.6-.2-.8-.4-.2-.2-.4-.5-.5-.8-.1-.3-.2-.7-.2-1.1 0-.4.1-.7.3-1s.5-.6 1-.9 1-.5 1.7-.6c.7-.2 1.6-.2 2.6-.2v-.7c0-.7-.2-1.3-.5-1.6-.3-.5-.8-.7-1.4-.7-.4 0-.7 0-1 .1-.3.1-.5.2-.7.3-.2.1-.4.2-.5.3-.1.1-.3.1-.4.1-.1 0-.2 0-.3-.1l-.2-.2-.3-.5c.5-.5 1-.8 1.6-1.1s1.2-.4 1.9-.4c.5 0 1 .1 1.4.3s.7.4 1 .7.5.7.6 1.1c.1.4.2.9.2 1.4v6zm-4.2-1c.3 0 .5 0 .8-.1s.5-.1.7-.2c.2-.1.4-.2.6-.4.2-.1.4-.3.6-.5v-1.9c-.7 0-1.4 0-1.9.1s-.9.2-1.3.4c-.3.2-.6.3-.7.5s-.2.4-.2.7c0 .2 0 .5.1.6s.2.3.3.4c.1.1.3.2.5.2.1.2.3.2.5.2zM80.8 66v-9.1h1c.2 0 .4.1.4.3l.1.9c.3-.4.7-.8 1.1-1 .4-.3.9-.4 1.5-.4s1.1.2 1.5.5.7.8.8 1.4c.1-.3.3-.6.5-.9s.4-.4.7-.6c.3-.2.5-.3.8-.3.3-.1.6-.1.9-.1.5 0 .9.1 1.3.2.4.2.7.4 1 .7.3.3.5.7.6 1.1s.2.9.2 1.5V66h-1.6v-5.8c0-.7-.2-1.3-.5-1.6s-.7-.6-1.3-.6c-.3 0-.5 0-.8.1-.2.1-.4.2-.6.4-.2.2-.3.4-.4.7-.1.3-.2.6-.2 1V66h-1.6v-5.8c0-.7-.1-1.3-.4-1.6-.3-.4-.8-.6-1.3-.6-.4 0-.8.1-1.1.3-.3.2-.6.5-.9.9V66h-1.7zM97.8 54c0 .2 0 .3-.1.4-.1.1-.1.3-.3.4-.1.1-.2.2-.4.2-.1.1-.3.1-.4.1-.2 0-.3 0-.4-.1-.1-.1-.3-.1-.4-.2-.1-.1-.2-.2-.2-.4-.1-.1-.1-.3-.1-.4 0-.2 0-.3.1-.4.1-.1.1-.3.2-.4.1-.1.2-.2.4-.2.1-.1.3-.1.4-.1.2 0 .3 0 .4.1.1.1.3.1.4.2.1.1.2.2.3.4 0 .1.1.2.1.4zm-.4 2.9V66h-1.6v-9.1h1.6zM105.4 58.4c-.1.1-.2.2-.3.2-.1 0-.2 0-.3-.1-.1-.1-.3-.1-.4-.2s-.4-.2-.6-.2c-.2-.1-.5-.1-.8-.1-.3 0-.5 0-.7.1l-.6.3-.4.4c-.1.2-.1.3-.1.5s.1.4.2.6c.1.2.3.3.5.4.2.1.5.2.8.3l.9.3.9.3c.3.1.5.3.8.5.2.2.4.4.5.7.1.3.2.6.2.9 0 .4-.1.8-.2 1.2-.1.4-.4.7-.7.9-.3.3-.7.5-1.1.6-.4.2-.9.2-1.5.2s-1.2-.1-1.7-.3c-.5-.2-1-.5-1.3-.8l.4-.6c0-.1.1-.1.2-.2s.2-.1.3-.1c.1 0 .2 0 .3.1.1.1.3.2.4.3l.6.3s.5.1.9.1c.3 0 .6 0 .8-.1l.6-.3c.2-.1.3-.3.3-.5.1-.2.1-.4.1-.6 0-.3-.1-.5-.2-.6-.1-.2-.3-.3-.5-.4-.2-.1-.5-.2-.8-.3l-.9-.3-.9-.3c-.3-.1-.5-.3-.8-.5-.2-.2-.4-.4-.5-.7-.1-.3-.2-.6-.2-1 0-.3.1-.7.2-1 .1-.3.4-.6.6-.8.3-.2.6-.4 1-.6.4-.1.9-.2 1.4-.2.6 0 1.1.1 1.6.3.5.2.9.4 1.2.8l-.2.5zM114.7 66h-.7c-.2 0-.3 0-.4-.1-.1 0-.2-.1-.2-.3l-.2-.8c-.2.2-.5.4-.7.6s-.5.3-.7.4c-.3.1-.5.2-.8.3-.3.1-.6.1-.9.1-.4 0-.7 0-1-.1-.3-.1-.6-.2-.8-.4-.2-.2-.4-.5-.5-.8-.1-.3-.2-.7-.2-1.1 0-.4.1-.7.3-1s.5-.6 1-.9 1-.5 1.7-.6c.7-.2 1.6-.2 2.6-.2v-.7c0-.7-.2-1.3-.5-1.6-.3-.4-.8-.5-1.3-.5-.4 0-.7 0-1 .1-.3.1-.5.2-.7.3-.2.1-.4.2-.5.3-.1.1-.3.1-.4.1-.1 0-.2 0-.3-.1l-.2-.2-.3-.5c.5-.5 1-.8 1.6-1.1s1.2-.4 1.9-.4c.5 0 1 .1 1.4.3s.7.4 1 .7c.3.3.5.7.6 1.1.1.4.2.9.2 1.4V66zm-4.1-1c.3 0 .5 0 .8-.1s.5-.1.7-.2c.2-.1.4-.2.6-.4.2-.1.4-.3.6-.5v-1.9c-.7 0-1.4 0-1.9.1s-.9.2-1.3.4c-.3.2-.6.3-.7.5s-.2.4-.2.7c0 .2 0 .5.1.6s.2.3.3.4c.1.1.3.2.5.2.1.2.3.2.5.2zM124.3 56.7c.7 0 1.3.1 1.8.3.5.2 1 .5 1.4.9.4.4.7.9.9 1.5.2.6.3 1.2.3 1.9s-.1 1.4-.3 1.9c-.2.6-.5 1.1-.9 1.5-.4.4-.8.7-1.4.9-.5.2-1.1.3-1.8.3s-1.3-.1-1.8-.3c-.5-.2-1-.5-1.4-.9-.4-.4-.7-.9-.9-1.5s-.3-1.2-.3-1.9.1-1.4.3-1.9c.2-.6.5-1.1.9-1.5.4-.4.8-.7 1.4-.9.5-.2 1.2-.3 1.8-.3zm0 8.2c.9 0 1.6-.3 2-.9.4-.6.7-1.4.7-2.5s-.2-1.9-.7-2.5c-.4-.6-1.1-.9-2-.9-.5 0-.9.1-1.2.2-.3.2-.6.4-.8.7-.2.3-.4.7-.5 1.1-.1.4-.2.9-.2 1.5s.1 1 .2 1.4c.1.4.3.8.5 1.1.2.3.5.5.8.7.4 0 .8.1 1.2.1zM132 56.9v5.8c0 .7.2 1.2.5 1.6.3.4.8.6 1.4.6.5 0 .9-.1 1.3-.3s.8-.5 1.1-.9V57h1.6v9h-1c-.2 0-.4-.1-.4-.3l-.1-1c-.4.4-.8.8-1.3 1.1-.5.3-1.1.4-1.7.4-.5 0-.9-.1-1.3-.2-.4-.2-.7-.4-1-.7s-.5-.7-.6-1.1c-.1-.4-.2-.9-.2-1.4V57h1.7zM144.1 69.1V56.9h1c.2 0 .4.1.4.3l.1 1.1c.4-.5.8-.9 1.3-1.1s1.1-.4 1.7-.4c.5 0 1 .1 1.4.3s.8.5 1.1.9c.3.4.5.9.7 1.5s.2 1.3.2 2-.1 1.3-.3 1.9c-.2.6-.4 1.1-.8 1.5-.3.4-.7.8-1.2 1-.5.2-1 .4-1.7.4-.6 0-1-.1-1.4-.3-.4-.2-.8-.4-1.1-.8v4h-1.4zm4.1-11.1c-.5 0-1 .1-1.4.4-.4.2-.8.6-1.1 1v4.4c.3.4.6.7 1 .8s.7.2 1.2.2c.8 0 1.5-.3 2-.9.5-.6.7-1.5.7-2.6 0-.6-.1-1.1-.2-1.5-.1-.4-.3-.8-.5-1-.2-.3-.4-.5-.7-.6s-.7-.2-1-.2zM157.7 56.7c.7 0 1.3.1 1.8.3.5.2 1 .5 1.4.9.4.4.7.9.9 1.5.2.6.3 1.2.3 1.9s-.1 1.4-.3 1.9c-.2.6-.5 1.1-.9 1.5-.4.4-.8.7-1.4.9-.5.2-1.1.3-1.8.3s-1.3-.1-1.8-.3c-.5-.2-1-.5-1.4-.9-.4-.4-.7-.9-.9-1.5s-.3-1.2-.3-1.9.1-1.4.3-1.9c.2-.6.5-1.1.9-1.5.4-.4.8-.7 1.4-.9.6-.2 1.2-.3 1.8-.3zm0 8.2c.9 0 1.6-.3 2-.9.4-.6.7-1.4.7-2.5s-.2-1.9-.7-2.5c-.4-.6-1.1-.9-2-.9-.5 0-.9.1-1.2.2-.3.2-.6.4-.8.7-.2.3-.4.7-.5 1.1-.1.4-.2.9-.2 1.5s.1 1 .2 1.4c.1.4.3.8.5 1.1.2.3.5.5.8.7.4 0 .8.1 1.2.1zM165.8 52.7V66h-1.6V52.7h1.6zM172.4 56.7c.7 0 1.3.1 1.8.3.5.2 1 .5 1.4.9.4.4.7.9.9 1.5.2.6.3 1.2.3 1.9s-.1 1.4-.3 1.9-.5 1.1-.9 1.5c-.4.4-.8.7-1.4.9-.5.2-1.1.3-1.8.3s-1.3-.1-1.8-.3c-.5-.2-1-.5-1.4-.9-.4-.4-.7-.9-.9-1.5-.2-.6-.3-1.2-.3-1.9s.1-1.4.3-1.9c.2-.6.5-1.1.9-1.5.4-.4.8-.7 1.4-.9.5-.2 1.1-.3 1.8-.3zm0 8.2c.9 0 1.6-.3 2-.9.4-.6.7-1.4.7-2.5s-.2-1.9-.7-2.5c-.4-.6-1.1-.9-2-.9-.5 0-.9.1-1.2.2-.3.2-.6.4-.8.7-.2.3-.4.7-.5 1.1-.1.4-.2.9-.2 1.5s.1 1 .2 1.4c.1.4.3.8.5 1.1.2.3.5.5.8.7.3 0 .7.1 1.2.1zM178.2 65c0-.2 0-.3.1-.4.1-.1.1-.3.2-.4.1-.1.2-.2.4-.2.1-.1.3-.1.4-.1.2 0 .3 0 .4.1.1.1.3.1.4.2.1.1.2.2.2.4.1.1.1.3.1.4 0 .2 0 .3-.1.4-.1.1-.1.3-.2.4-.1.1-.2.2-.4.2-.1.1-.3.1-.4.1-.2 0-.3 0-.4-.1-.1-.1-.3-.1-.4-.2-.1-.1-.2-.2-.2-.4-.1-.1-.1-.2-.1-.4z"/><g><path class="st0" d="M122.7 88.7c.8-.1 1.7-.2 3-.2 1.5 0 2.7.4 3.4 1 .7.6 1.1 1.5 1.1 2.5 0 1.1-.3 2-.9 2.6-.8.9-2.2 1.3-3.7 1.3-.5 0-.9 0-1.3-.1v4.9h-1.6v-12zm1.6 5.8c.3.1.8.1 1.3.1 1.9 0 3-.9 3-2.6 0-1.6-1.1-2.4-2.9-2.4-.7 0-1.2.1-1.5.1v4.8zM136.6 100.6l-.1-1.1h-.1c-.5.7-1.4 1.3-2.7 1.3-1.8 0-2.7-1.2-2.7-2.5 0-2.1 1.9-3.3 5.2-3.2v-.2c0-.7-.2-2-2-2-.8 0-1.7.3-2.3.6l-.4-1c.7-.5 1.8-.8 2.9-.8 2.7 0 3.3 1.8 3.3 3.6v3.3c0 .8 0 1.5.1 2.1h-1.2zm-.2-4.4c-1.7 0-3.7.3-3.7 2 0 1 .7 1.5 1.5 1.5 1.1 0 1.9-.7 2.1-1.5.1-.2.1-.3.1-.5v-1.5zM140.5 94.6c0-1 0-1.9-.1-2.7h1.4l.1 1.7h.1c.4-1.2 1.4-1.9 2.4-1.9.2 0 .3 0 .5.1v1.5c-.2 0-.3-.1-.5-.1-1.1 0-1.9.8-2.1 2 0 .2-.1.5-.1.7v4.6h-1.6v-5.9zM151.1 100.6l-.1-1.1h-.1c-.5.7-1.4 1.3-2.7 1.3-1.8 0-2.7-1.2-2.7-2.5 0-2.1 1.9-3.3 5.2-3.2v-.2c0-.7-.2-2-2-2-.8 0-1.7.3-2.3.6l-.4-1c.7-.5 1.8-.8 2.9-.8 2.7 0 3.3 1.8 3.3 3.6v3.3c0 .8 0 1.5.1 2.1h-1.2zm-.2-4.4c-1.7 0-3.7.3-3.7 2 0 1 .7 1.5 1.5 1.5 1.1 0 1.9-.7 2.1-1.5.1-.2.1-.3.1-.5v-1.5zM159.6 96.6c0 2.1 1.4 3 3 3 1.1 0 1.8-.2 2.4-.4l.3 1.1c-.6.3-1.5.5-2.9.5-2.7 0-4.3-1.8-4.3-4.4 0-2.6 1.5-4.7 4.1-4.7 2.8 0 3.6 2.5 3.6 4.1 0 .3 0 .6-.1.7h-6.1zm4.7-1.2c0-1-.4-2.6-2.2-2.6-1.6 0-2.3 1.5-2.4 2.6h4.6zM167.8 87.9h1.6v12.8h-1.6V87.9zM176.8 100.6l-.1-1.1h-.1c-.5.7-1.4 1.3-2.7 1.3-1.8 0-2.7-1.2-2.7-2.5 0-2.1 1.9-3.3 5.2-3.2v-.2c0-.7-.2-2-2-2-.8 0-1.7.3-2.3.6l-.4-1c.7-.5 1.8-.8 2.9-.8 2.7 0 3.3 1.8 3.3 3.6v3.3c0 .8 0 1.5.1 2.1h-1.2zm-.2-4.4c-1.7 0-3.7.3-3.7 2 0 1 .7 1.5 1.5 1.5 1.1 0 1.9-.7 2.1-1.5.1-.2.1-.3.1-.5v-1.5zM180.5 99c.5.3 1.3.6 2.1.6 1.2 0 1.7-.6 1.7-1.3 0-.8-.5-1.2-1.6-1.6-1.6-.6-2.3-1.4-2.3-2.5 0-1.4 1.1-2.6 3-2.6.9 0 1.7.3 2.1.5l-.4 1.2c-.3-.2-1-.5-1.8-.5-.9 0-1.5.5-1.5 1.2s.5 1 1.7 1.5c1.5.6 2.3 1.3 2.3 2.6 0 1.5-1.2 2.6-3.3 2.6-1 0-1.8-.2-2.4-.6l.4-1.1zM187.4 93.4c0-.7.5-1.1 1.1-1.1s1 .5 1.1 1.1c0 .6-.4 1.1-1.1 1.1-.6 0-1.1-.5-1.1-1.1zm0 6.3c0-.7.5-1.1 1.1-1.1s1 .5 1.1 1.1c0 .6-.4 1.1-1.1 1.1-.6 0-1.1-.4-1.1-1.1zM29.7 113.1H31c.1 0 .2 0 .3.1l.2.2 2.3 5.9c.1.2.1.4.2.6 0 .2.1.4.1.6 0-.2.1-.4.2-.6.1-.2.1-.4.2-.6l2.3-5.9c0-.1.1-.2.2-.2s.2-.1.3-.1h1.3l-3.7 9.1h-1.4l-3.8-9.1zM43.5 113c.5 0 1.1.1 1.5.3.5.2.9.4 1.2.8.3.3.6.8.8 1.3.2.5.3 1.1.3 1.7 0 .3 0 .4-.1.5-.1.1-.2.1-.3.1h-6.1c0 .6.1 1.1.2 1.5s.3.8.6 1.1.6.5.9.6c.3.1.7.2 1.2.2.4 0 .7 0 1-.1.3-.1.5-.2.8-.3.2-.1.4-.2.5-.3s.3-.1.4-.1c.1 0 .2.1.3.2l.4.6c-.2.2-.4.4-.7.6-.3.2-.6.3-.9.4-.3.1-.6.2-1 .3-.3.1-.7.1-1 .1-.6 0-1.2-.1-1.7-.3-.5-.2-1-.5-1.4-.9-.4-.4-.7-.9-.9-1.5-.2-.6-.3-1.3-.3-2.1 0-.6.1-1.2.3-1.8s.5-1 .8-1.4c.4-.4.8-.7 1.3-1 .6-.4 1.2-.5 1.9-.5zm0 1.2c-.8 0-1.4.2-1.8.7-.4.4-.7 1.1-.8 1.9h5c0-.4-.1-.7-.2-1-.1-.3-.3-.6-.4-.8-.2-.2-.4-.4-.7-.5-.4-.3-.7-.3-1.1-.3zM54.5 114.6c-.1.1-.2.2-.3.2-.1 0-.2 0-.3-.1-.1-.1-.3-.1-.4-.2-.2-.1-.4-.2-.6-.2-.2-.1-.5-.1-.8-.1-.3 0-.5 0-.7.1l-.6.3c-.2.1-.3.3-.4.4-.1.2-.1.3-.1.5s.1.4.2.6c.1.2.3.3.5.4.2.1.5.2.8.3l.9.3.9.3c.3.1.5.3.8.4.2.2.4.4.5.7.1.3.2.6.2.9 0 .4-.1.8-.2 1.2s-.4.7-.7.9c-.3.3-.7.5-1.1.6-.4.2-.9.2-1.5.2s-1.2-.1-1.7-.3c-.5-.2-1-.5-1.3-.8l.4-.6c0-.1.1-.1.2-.2.1 0 .2-.1.3-.1.1 0 .2 0 .3.1.1.1.3.2.4.3l.6.3s.5.1.9.1c.3 0 .6 0 .8-.1l.6-.3c.2-.1.3-.3.3-.5.1-.2.1-.4.1-.6 0-.3-.1-.5-.2-.6-.1-.2-.3-.3-.5-.4-.2-.1-.5-.2-.8-.3l-.9-.3-.9-.3c-.3-.1-.5-.3-.8-.5-.2-.2-.4-.4-.5-.7-.1-.3-.2-.6-.2-1 0-.3.1-.7.2-1s.4-.6.6-.8.6-.4 1-.6c.4-.1.9-.2 1.4-.2.6 0 1.1.1 1.6.3.5.2.9.4 1.2.8l-.2.6zM59.9 122.4c-.7 0-1.3-.2-1.7-.6s-.6-1-.6-1.7v-5.6h-1.1c-.1 0-.2 0-.2-.1-.1-.1-.1-.1-.1-.3v-.6l1.5-.2.4-2.8c0-.1.1-.2.1-.2.1-.1.1-.1.3-.1h.8v3.1h2.6v1.2h-2.6v5.5c0 .4.1.7.3.9s.4.3.7.3c.2 0 .3 0 .4-.1s.2-.1.3-.1c.1-.1.2-.1.2-.1s.1-.1.2-.1.2.1.2.2l.5.8c-.3.3-.6.5-1 .6-.4-.1-.8 0-1.2 0zM66 110.3c0 .2 0 .3-.1.4s-.1.3-.3.4c-.1.1-.2.2-.4.2-.1.1-.3.1-.4.1-.2 0-.3 0-.4-.1-.1-.1-.3-.1-.4-.2-.1-.1-.2-.2-.2-.4-.1-.1-.1-.3-.1-.4 0-.2 0-.3.1-.4.1-.1.1-.3.2-.4.1-.1.2-.2.4-.2.1-.1.3-.1.4-.1.2 0 .3 0 .4.1.1.1.3.1.4.2.1.1.2.2.3.4 0 .1.1.2.1.4zm-.4 2.8v9.1H64v-9.1h1.6zM74.8 122.2c-.2 0-.4-.1-.4-.3l-.1-1.1c-.4.5-.8.9-1.3 1.1-.5.3-1.1.4-1.7.4-.5 0-1-.1-1.4-.3-.4-.2-.8-.5-1.1-.9-.3-.4-.5-.9-.7-1.5s-.2-1.3-.2-2 .1-1.3.3-1.9c.2-.6.4-1.1.8-1.5.3-.4.8-.8 1.2-1 .5-.2 1-.4 1.7-.4.6 0 1 .1 1.4.3s.8.5 1.1.8V109H76v13.3h-1.2zm-3.1-1.1c.5 0 1-.1 1.4-.4.4-.2.8-.6 1.1-1v-4.4c-.3-.4-.6-.7-1-.8-.4-.2-.7-.2-1.2-.2-.9 0-1.5.3-2 .9s-.7 1.5-.7 2.6c0 .6.1 1.1.2 1.5s.3.8.5 1c.2.3.4.5.7.6.3.1.7.2 1 .2zM82.2 113c.7 0 1.3.1 1.8.3.5.2 1 .5 1.4.9.4.4.7.9.9 1.5.2.6.3 1.2.3 1.9s-.1 1.4-.3 1.9c-.2.6-.5 1.1-.9 1.5-.4.4-.8.7-1.4.9-.5.2-1.1.3-1.8.3s-1.3-.1-1.8-.3c-.5-.2-1-.5-1.4-.9-.4-.4-.7-.9-.9-1.5-.2-.6-.3-1.2-.3-1.9s.1-1.4.3-1.9c.2-.6.5-1.1.9-1.5.4-.4.8-.7 1.4-.9.5-.2 1.1-.3 1.8-.3zm0 8.1c.9 0 1.6-.3 2-.9.4-.6.7-1.4.7-2.5s-.2-1.9-.7-2.5c-.4-.6-1.1-.9-2-.9-.5 0-.9.1-1.2.2s-.6.4-.8.7c-.2.3-.4.7-.5 1.1-.1.4-.2.9-.2 1.5 0 .5.1 1 .2 1.4.1.4.3.8.5 1.1s.5.5.8.7.7.1 1.2.1zM95.7 113c.7 0 1.3.1 1.8.3.5.2 1 .5 1.4.9.4.4.7.9.9 1.5.2.6.3 1.2.3 1.9s-.1 1.4-.3 1.9c-.2.6-.5 1.1-.9 1.5-.4.4-.8.7-1.4.9-.5.2-1.1.3-1.8.3s-1.3-.1-1.8-.3c-.5-.2-1-.5-1.4-.9-.4-.4-.7-.9-.9-1.5-.2-.6-.3-1.2-.3-1.9s.1-1.4.3-1.9c.2-.6.5-1.1.9-1.5.4-.4.8-.7 1.4-.9.5-.2 1.1-.3 1.8-.3zm0 8.1c.9 0 1.6-.3 2-.9.4-.6.7-1.4.7-2.5s-.2-1.9-.7-2.5c-.4-.6-1.1-.9-2-.9-.5 0-.9.1-1.2.2s-.6.4-.8.7c-.2.3-.4.7-.5 1.1-.1.4-.2.9-.2 1.5 0 .5.1 1 .2 1.4.1.4.3.8.5 1.1s.5.5.8.7.7.1 1.2.1zM103.4 113.1v5.8c0 .7.2 1.2.5 1.6.3.4.8.6 1.4.6.5 0 .9-.1 1.3-.3.4-.2.8-.5 1.1-.9v-6.7h1.6v9.1h-1c-.2 0-.4-.1-.4-.3l-.1-1c-.4.4-.8.8-1.3 1.1-.5.3-1.1.4-1.7.4-.5 0-.9-.1-1.3-.2-.4-.2-.7-.4-1-.7-.3-.3-.5-.7-.6-1.1s-.2-.9-.2-1.4v-5.8h1.7zM121.7 114.7c0 .1-.1.1-.1.2 0 0-.1.1-.2.1s-.2 0-.3-.1c-.1-.1-.2-.2-.4-.2-.2-.1-.4-.2-.6-.2-.2-.1-.5-.1-.9-.1s-.8.1-1.2.2c-.3.2-.6.4-.9.7-.2.3-.4.7-.5 1.1s-.2.9-.2 1.4c0 .6.1 1 .2 1.5s.3.8.5 1.1c.2.3.5.5.8.7s.7.2 1.1.2c.4 0 .7 0 1-.1s.5-.2.6-.3.3-.2.4-.3c.1-.1.2-.1.3-.1.1 0 .2.1.3.2l.5.6c-.4.5-.9.8-1.5 1.1-.6.2-1.2.3-1.9.3-.6 0-1.1-.1-1.6-.3-.5-.2-.9-.5-1.3-.9s-.6-.9-.9-1.5-.3-1.2-.3-2c0-.7.1-1.3.3-1.9.2-.6.5-1.1.8-1.5.4-.4.8-.7 1.3-1 .5-.2 1.1-.4 1.8-.4.6 0 1.2.1 1.7.3.5.2.9.5 1.3.9l-.1.3zM130.6 122.2h-.7c-.2 0-.3 0-.4-.1-.1 0-.2-.2-.2-.3l-.2-.8c-.2.2-.5.4-.7.6-.2.2-.5.3-.7.4-.3.1-.5.2-.8.3-.3.1-.6.1-1 .1s-.7 0-1-.1c-.3-.1-.6-.2-.8-.4-.2-.2-.4-.4-.5-.8-.1-.3-.2-.7-.2-1.1 0-.4.1-.7.3-1s.5-.6 1-.9c.4-.3 1-.5 1.7-.6s1.6-.2 2.6-.2v-.7c0-.7-.2-1.3-.5-1.6s-.8-.5-1.3-.5c-.4 0-.7.1-1 .1-.3.1-.5.2-.7.3-.2.1-.4.2-.5.3-.1.1-.3.2-.4.2-.1 0-.2 0-.3-.1l-.2-.2-.3-.5c.5-.5 1-.8 1.6-1.1s1.2-.4 1.9-.4c.5 0 1 .1 1.4.3.4.2.7.4 1 .7.3.3.5.7.6 1.1.1.4.2.9.2 1.4v5.6zm-4.2-.9c.3 0 .5 0 .8-.1.2-.1.5-.1.7-.2.2-.1.4-.2.6-.4.2-.1.4-.3.6-.5v-1.9c-.7 0-1.4 0-1.9.1s-.9.2-1.3.4c-.3.2-.6.3-.7.5-.1.2-.2.4-.2.7 0 .2 0 .4.1.6.1.2.2.3.3.4s.3.2.5.2c.1.1.3.2.5.2zM134.8 109v13.3h-1.6V109h1.6zM139.9 124.5h.1s.1 0 .2.1c.1 0 .1.1.2.1h.3c.3 0 .4 0 .6-.1s.2-.2.2-.4c0-.1 0-.2-.1-.3-.1-.1-.2-.1-.3-.2-.1-.1-.3-.1-.5-.1s-.4-.1-.6-.1l.3-1.1c-.5-.1-1-.2-1.4-.5-.4-.2-.8-.6-1.1-.9-.3-.4-.5-.9-.7-1.4-.2-.5-.3-1.2-.3-1.8 0-.7.1-1.3.3-1.9.2-.6.5-1.1.8-1.5.4-.4.8-.7 1.3-1 .5-.2 1.1-.4 1.8-.4.6 0 1.2.1 1.7.3.5.2.9.5 1.3.9l-.4.6c0 .1-.1.1-.1.2 0 0-.1.1-.2.1s-.2 0-.3-.1c-.1-.1-.2-.2-.4-.2-.2-.1-.4-.2-.6-.2-.2-.1-.5-.1-.9-.1s-.8.1-1.2.2c-.3.2-.6.4-.9.7-.2.3-.4.7-.5 1.1s-.2.9-.2 1.4c0 .6.1 1 .2 1.5s.3.8.5 1.1c.2.3.5.5.8.7s.7.2 1.1.2c.4 0 .7 0 1-.1s.5-.2.6-.3.3-.2.4-.3c.1-.1.2-.1.3-.1h.2c.1 0 .1.1.1.1l.5.6c-.4.4-.8.8-1.3 1-.5.2-1.1.4-1.6.4l-.2.5c.5.1.9.3 1.2.5s.4.5.4.8c0 .2 0 .4-.1.5-.1.2-.2.3-.4.4-.2.1-.4.2-.6.2-.2.1-.5.1-.8.1-.2 0-.5 0-.7-.1s-.4-.1-.6-.2l.2-.5c.2-.4.3-.4.4-.4zM152.7 122.2h-.7c-.2 0-.3 0-.4-.1-.1 0-.2-.2-.2-.3l-.2-.8c-.2.2-.5.4-.7.6-.2.2-.5.3-.7.4-.3.1-.5.2-.8.3-.3.1-.6.1-1 .1s-.7 0-1-.1c-.3-.1-.6-.2-.8-.4-.2-.2-.4-.4-.5-.8-.1-.3-.2-.7-.2-1.1 0-.4.1-.7.3-1s.5-.6 1-.9c.4-.3 1-.5 1.7-.6s1.6-.2 2.6-.2v-.7c0-.7-.2-1.3-.5-1.6s-.8-.5-1.3-.5c-.4 0-.7.1-1 .1-.3.1-.5.2-.7.3-.2.1-.4.2-.5.3-.1.1-.3.2-.4.2-.1 0-.2 0-.3-.1l-.2-.2-.3-.5c.5-.5 1-.8 1.6-1.1s1.2-.4 1.9-.4c.5 0 1 .1 1.4.3.4.2.7.4 1 .7.3.3.5.7.6 1.1.1.4.2.9.2 1.4v5.6zm-4.2-.9c.3 0 .5 0 .8-.1.2-.1.5-.1.7-.2.2-.1.4-.2.6-.4.2-.1.4-.3.6-.5v-1.9c-.7 0-1.4 0-1.9.1s-.9.2-1.3.4c-.3.2-.6.3-.7.5-.1.2-.2.4-.2.7 0 .2 0 .4.1.6.1.2.2.3.3.4s.3.2.5.2c.1.1.3.2.5.2zM155.3 122.4c-.1.2-.2.4-.4.5-.2.1-.3.2-.5.2h-.7l5.4-13.5c.1-.2.2-.3.3-.4.1-.1.3-.2.5-.2h.7l-5.3 13.4zM166.1 114.6c-.1.1-.2.2-.3.2-.1 0-.2 0-.3-.1s-.3-.1-.4-.2c-.2-.1-.4-.2-.6-.2-.2-.1-.5-.1-.8-.1-.3 0-.5 0-.7.1l-.6.3c-.2.1-.3.3-.4.4-.1.2-.1.3-.1.5s.1.4.2.6.3.3.5.4c.2.1.5.2.8.3l.9.3.9.3c.3.1.5.3.8.4s.4.4.5.7c.1.3.2.6.2.9 0 .4-.1.8-.2 1.2-.1.4-.4.7-.7.9-.3.3-.7.5-1.1.6-.4.2-.9.2-1.5.2s-1.2-.1-1.7-.3c-.5-.2-1-.5-1.3-.8l.4-.6c0-.1.1-.1.2-.2.1 0 .2-.1.3-.1.1 0 .2 0 .3.1.1.1.3.2.4.3l.6.3s.5.1.9.1c.3 0 .6 0 .8-.1l.6-.3c.2-.1.3-.3.3-.5.1-.2.1-.4.1-.6 0-.3-.1-.5-.2-.6-.1-.2-.3-.3-.5-.4s-.5-.2-.8-.3l-.9-.3-.9-.3c-.3-.1-.5-.3-.8-.5-.2-.2-.4-.4-.5-.7-.1-.3-.2-.6-.2-1 0-.3.1-.7.2-1 .1-.3.4-.6.6-.8.3-.2.6-.4 1-.6.4-.1.9-.2 1.4-.2.6 0 1.1.1 1.6.3.5.2.9.4 1.2.8l-.2.6zM175.4 122.2h-.7c-.2 0-.3 0-.4-.1-.1 0-.2-.2-.2-.3l-.2-.8c-.2.2-.5.4-.7.6-.2.2-.5.3-.7.4-.3.1-.5.2-.8.3-.3.1-.6.1-1 .1s-.7 0-1-.1c-.3-.1-.6-.2-.8-.4-.2-.2-.4-.4-.5-.8-.1-.3-.2-.7-.2-1.1 0-.4.1-.7.3-1s.5-.6 1-.9c.4-.3 1-.5 1.7-.6s1.6-.2 2.6-.2v-.7c0-.7-.2-1.3-.5-1.6s-.8-.5-1.3-.5c-.4 0-.7.1-1 .1-.3.1-.5.2-.7.3-.2.1-.4.2-.5.3-.1.1-.3.2-.4.2-.1 0-.2 0-.3-.1l-.2-.2-.3-.5c.5-.5 1-.8 1.6-1.1s1.2-.4 1.9-.4c.5 0 1 .1 1.4.3.4.2.7.4 1 .7.3.3.5.7.6 1.1.1.4.2.9.2 1.4v5.6zm-4.2-.9c.3 0 .5 0 .8-.1.2-.1.5-.1.7-.2.2-.1.4-.2.6-.4.2-.1.4-.3.6-.5v-1.9c-.7 0-1.4 0-1.9.1s-.9.2-1.3.4c-.3.2-.6.3-.7.5-.1.2-.2.4-.2.7 0 .2 0 .4.1.6.1.2.2.3.3.4s.3.2.5.2c.1.1.3.2.5.2zM180 110.3c0 .2 0 .3-.1.4-.1.1-.1.3-.3.4-.1.1-.2.2-.4.2s-.3.1-.4.1c-.2 0-.3 0-.4-.1-.1-.1-.3-.1-.4-.2-.1-.1-.2-.2-.2-.4-.1-.1-.1-.3-.1-.4 0-.2 0-.3.1-.4.1-.1.1-.3.2-.4.1-.1.2-.2.4-.2.1-.1.3-.1.4-.1.2 0 .3 0 .4.1s.3.1.4.2c.1.1.2.2.3.4 0 .1.1.2.1.4zm-.4 2.8v9.1H178v-9.1h1.6zM189.1 122.2h-.7c-.2 0-.3 0-.4-.1s-.2-.2-.2-.3l-.2-.8c-.2.2-.5.4-.7.6-.2.2-.5.3-.7.4-.3.1-.5.2-.8.3-.3.1-.6.1-.9.1-.4 0-.7 0-1-.1-.3-.1-.6-.2-.8-.4-.2-.2-.4-.4-.5-.8-.1-.3-.2-.7-.2-1.1 0-.4.1-.7.3-1s.5-.6 1-.9c.4-.3 1-.5 1.7-.6.7-.2 1.6-.2 2.6-.2v-.7c0-.7-.2-1.3-.5-1.6s-.8-.5-1.3-.5c-.4 0-.7.1-1 .1-.3.1-.5.2-.7.3-.2.1-.4.2-.5.3-.1.1-.3.2-.4.2-.1 0-.2 0-.3-.1l-.2-.2-.3-.5c.5-.5 1-.8 1.6-1.1.6-.2 1.2-.4 1.9-.4.5 0 1 .1 1.4.3s.7.4 1 .7c.3.3.5.7.6 1.1s.2.9.2 1.4v5.6zm-4.1-.9c.3 0 .5 0 .8-.1s.5-.1.7-.2c.2-.1.4-.2.6-.4.2-.1.4-.3.6-.5v-1.9c-.7 0-1.4 0-1.9.1s-.9.2-1.3.4c-.3.2-.6.3-.7.5-.1.2-.2.4-.2.7 0 .2 0 .4.1.6.1.2.2.3.3.4.1.1.3.2.5.2.1.1.3.2.5.2zM6.9 136.3c0 .1-.1.1-.1.2 0 0-.1.1-.2.1s-.2 0-.3-.1c-.1-.1-.2-.2-.4-.2-.2-.1-.4-.2-.6-.2-.2-.1-.5-.1-.9-.1s-.8.1-1.2.2c-.3.2-.6.4-.9.7-.2.3-.4.7-.5 1.1-.1.4-.2.9-.2 1.4 0 .6.1 1 .2 1.5s.3.8.5 1.1c.2.3.5.5.8.7.3.2.7.2 1.1.2.4 0 .7 0 1-.1s.5-.2.6-.3.3-.2.4-.3.2-.1.3-.1c.1 0 .2.1.3.2l.5.6c-.4.5-.9.8-1.5 1.1-.5-.1-1.1 0-1.8 0-.6 0-1.1-.1-1.6-.3-.5-.2-.9-.5-1.3-.9s-.6-.9-.9-1.5-.2-1.3-.2-2 .1-1.3.3-1.9c.2-.6.5-1.1.8-1.5.4-.4.8-.7 1.3-1 .5-.2 1.1-.4 1.8-.4.6 0 1.2.1 1.7.3.5.2.9.5 1.3.9l-.3.6zM12.7 134.6c.7 0 1.3.1 1.8.3.5.2 1 .5 1.4.9.4.4.7.9.9 1.5.2.6.3 1.2.3 1.9s-.1 1.4-.3 1.9c-.2.6-.5 1.1-.9 1.5-.4.4-.8.7-1.4.9-.5.2-1.1.3-1.8.3s-1.3-.1-1.8-.3c-.5-.2-1-.5-1.4-.9-.4-.4-.7-.9-.9-1.5-.2-.6-.3-1.2-.3-1.9s.1-1.4.3-1.9c.2-.6.5-1.1.9-1.5.4-.4.8-.7 1.4-.9.6-.2 1.2-.3 1.8-.3zm0 8.1c.9 0 1.6-.3 2-.9.4-.6.7-1.4.7-2.5s-.2-1.9-.7-2.5c-.4-.6-1.1-.9-2-.9-.5 0-.9.1-1.2.2s-.6.4-.8.7c-.2.3-.4.7-.5 1.1-.1.4-.2.9-.2 1.5 0 .5.1 1 .2 1.4.1.4.3.8.5 1.1s.5.5.8.7.8.1 1.2.1zM19.1 143.8v-9.1h1c.2 0 .4.1.4.3l.1.9c.3-.4.7-.8 1.1-1s.9-.4 1.5-.4 1.1.2 1.5.5.7.8.8 1.4c.1-.3.3-.6.5-.9s.4-.4.7-.6c.3-.2.5-.3.8-.3.3-.1.6-.1.9-.1.5 0 .9.1 1.3.2.4.2.7.4 1 .7.3.3.5.7.6 1.1.1.4.2.9.2 1.5v5.8h-1.6V138c0-.7-.2-1.3-.5-1.6s-.8-.6-1.4-.6c-.3 0-.5 0-.8.1-.2.1-.4.2-.6.4-.2.2-.3.4-.4.7-.1.3-.2.6-.2 1v5.8h-1.6V138c0-.7-.1-1.3-.4-1.6s-.7-.5-1.3-.5c-.4 0-.8.1-1.1.3-.3.2-.6.5-.9.9v6.8h-1.6zM38.7 134.7v5.8c0 .7.2 1.2.5 1.6.3.4.8.6 1.4.6.5 0 .9-.1 1.3-.3.4-.2.8-.5 1.1-.9v-6.7h1.6v9.1h-1c-.2 0-.4-.1-.4-.3l-.1-1c-.4.4-.8.8-1.3 1.1-.5.3-1.1.4-1.7.4-.5 0-.9-.1-1.3-.2-.4-.2-.7-.4-1-.7-.3-.3-.5-.7-.6-1.1s-.2-.9-.2-1.4v-5.8h1.7zM47.3 143.8v-9.1h1c.2 0 .4.1.4.3l.1.9c.3-.4.7-.8 1.1-1s.9-.4 1.5-.4 1.1.2 1.5.5.7.8.8 1.4c.1-.3.3-.6.5-.9s.4-.4.7-.6c.3-.2.5-.3.8-.3.3-.1.6-.1.9-.1.5 0 .9.1 1.3.2.4.2.7.4 1 .7.3.3.5.7.6 1.1.1.4.2.9.2 1.5v5.8h-1.6V138c0-.7-.2-1.3-.5-1.6s-.8-.6-1.4-.6c-.3 0-.5 0-.8.1-.2.1-.4.2-.6.4-.2.2-.3.4-.4.7-.1.3-.2.6-.2 1v5.8h-1.6V138c0-.7-.1-1.3-.4-1.6s-.7-.5-1.3-.5c-.4 0-.8.1-1.1.3-.3.2-.6.5-.9.9v6.8h-1.6zM68.8 143.8h-.7c-.2 0-.3 0-.4-.1-.1 0-.2-.2-.2-.3l-.2-.8c-.2.2-.5.4-.7.6-.2.2-.5.3-.7.4-.3.1-.5.2-.8.3-.3.1-.6.1-.9.1-.4 0-.7 0-1-.1s-.6-.2-.8-.4c-.2-.2-.4-.4-.5-.8-.1-.3-.2-.7-.2-1.1 0-.4.1-.7.3-1s.5-.6 1-.9c.4-.3 1-.5 1.7-.6s1.6-.2 2.6-.2v-.9c0-.7-.2-1.3-.5-1.6-.3-.4-.8-.5-1.3-.5-.4 0-.7.1-1 .1-.3.1-.5.2-.7.3-.2.1-.4.2-.5.3-.1.1-.3.2-.4.2-.1 0-.2 0-.3-.1l-.2-.2-.3-.5c.5-.5 1-.8 1.6-1.1s1.2-.4 1.9-.4c.5 0 1 .1 1.4.3s.7.4 1 .7c.3.3.5.7.6 1.1.1.4.2.9.2 1.4v5.8zm-4.2-.9c.3 0 .5 0 .8-.1s.5-.1.7-.2c.2-.1.4-.2.6-.4.2-.1.4-.3.6-.5v-1.9c-.7 0-1.4 0-1.9.1s-.9.2-1.3.4c-.3.2-.6.3-.7.5s-.2.4-.2.7c0 .2 0 .4.1.6.1.2.2.3.3.4s.3.2.5.2c.1.1.3.2.5.2zM74.8 143.8v-13.3h1.6v5.5c.4-.4.8-.8 1.3-1.1.5-.3 1-.4 1.7-.4.5 0 1 .1 1.4.3.4.2.8.5 1.1.9.3.4.5.9.7 1.5.2.6.2 1.2.2 2 0 .7-.1 1.3-.3 1.9-.2.6-.4 1.1-.8 1.5-.3.4-.8.8-1.2 1-.5.2-1 .4-1.7.4-.6 0-1.1-.1-1.5-.3-.4-.2-.8-.5-1.1-1l-.1.8c0 .2-.2.3-.4.3h-.9zm4-7.9c-.5 0-1 .1-1.4.4s-.8.6-1.1 1v4.4c.3.4.6.7 1 .8s.7.2 1.2.2c.9 0 1.5-.3 2-.9.5-.6.7-1.5.7-2.6 0-.6-.1-1.1-.2-1.5-.1-.4-.3-.8-.5-1-.2-.3-.4-.5-.7-.6-.3-.2-.6-.2-1-.2zM86.5 130.6v13.3h-1.6v-13.3h1.6zM90.8 134.7v5.8c0 .7.2 1.2.5 1.6.3.4.8.6 1.4.6.5 0 .9-.1 1.3-.3.4-.2.8-.5 1.1-.9v-6.7h1.6v9.1h-1c-.2 0-.4-.1-.4-.3l-.1-1c-.4.4-.8.8-1.3 1.1-.5.3-1.1.4-1.7.4-.5 0-.9-.1-1.3-.2-.4-.2-.7-.4-1-.7-.3-.3-.5-.7-.6-1.1s-.2-.9-.2-1.4v-5.8h1.7zM104.6 136.2c-.1.1-.2.2-.3.2-.1 0-.2 0-.3-.1-.1-.1-.3-.1-.4-.2-.2-.1-.4-.2-.6-.2-.2-.1-.5-.1-.8-.1-.3 0-.5 0-.7.1l-.6.3c-.2.1-.3.3-.4.4-.1.2-.1.3-.1.5s.1.4.2.6c.1.2.3.3.5.4.2.1.5.2.8.3l.9.3.9.3c.3.1.5.3.8.4.2.2.4.4.5.7.1.3.2.6.2.9 0 .4-.1.8-.2 1.2s-.4.7-.7.9c-.3.3-.7.5-1.1.6-.4.2-.9.2-1.5.2s-1.2-.1-1.7-.3c-.5-.2-1-.5-1.3-.8l.4-.6c0-.1.1-.1.2-.2.1 0 .2-.1.3-.1.1 0 .2 0 .3.1.1.1.3.2.4.3l.6.3s.5.1.9.1c.3 0 .6 0 .8-.1l.6-.3c.2-.1.3-.3.3-.5.1-.2.1-.4.1-.6 0-.3-.1-.5-.2-.6-.1-.2-.3-.3-.5-.4-.2-.1-.5-.2-.8-.3l-.9-.3-.9-.3c-.3-.1-.5-.3-.8-.5-.2-.2-.4-.4-.5-.7-.1-.3-.2-.6-.2-1 0-.3.1-.7.2-1s.4-.6.6-.8.6-.4 1-.6c.4-.1.9-.2 1.4-.2.6 0 1.1.1 1.6.3.5.2.9.4 1.2.8l-.2.6zM113.9 143.8h-.7c-.2 0-.3 0-.4-.1-.1 0-.2-.2-.2-.3l-.2-.8c-.2.2-.5.4-.7.6-.2.2-.5.3-.7.4-.3.1-.5.2-.8.3-.3.1-.6.1-.9.1-.4 0-.7 0-1-.1s-.6-.2-.8-.4c-.2-.2-.4-.4-.5-.8-.1-.3-.2-.7-.2-1.1 0-.4.1-.7.3-1s.5-.6 1-.9c.4-.3 1-.5 1.7-.6s1.6-.2 2.6-.2v-.9c0-.7-.2-1.3-.5-1.6-.3-.4-.8-.5-1.3-.5-.4 0-.7.1-1 .1-.3.1-.5.2-.7.3-.2.1-.4.2-.5.3-.1.1-.3.2-.4.2-.1 0-.2 0-.3-.1l-.2-.2-.3-.5c.5-.5 1-.8 1.6-1.1s1.2-.4 1.9-.4c.5 0 1 .1 1.4.3s.7.4 1 .7c.3.3.5.7.6 1.1.1.4.2.9.2 1.4v5.8zm-4.2-.9c.3 0 .5 0 .8-.1s.5-.1.7-.2c.2-.1.4-.2.6-.4.2-.1.4-.3.6-.5v-1.9c-.7 0-1.4 0-1.9.1s-.9.2-1.3.4c-.3.2-.6.3-.7.5s-.2.4-.2.7c0 .2 0 .4.1.6.1.2.2.3.3.4s.3.2.5.2c.1.1.3.2.5.2zM123.4 134.6c.5 0 1.1.1 1.5.3.5.2.9.4 1.2.8.3.3.6.8.8 1.3.2.5.3 1.1.3 1.7 0 .3 0 .4-.1.5s-.2.1-.3.1h-6.1c0 .6.1 1.1.2 1.5.1.4.3.8.6 1.1s.6.5.9.6c.3.1.7.2 1.2.2.4 0 .7 0 1-.1.3-.1.5-.2.8-.3.2-.1.4-.2.5-.3.1-.1.3-.1.4-.1.1 0 .2.1.3.2l.4.6c-.2.2-.4.4-.7.6-.3.2-.6.3-.9.4-.3.1-.6.2-1 .3-.3.1-.7.1-1 .1-.6 0-1.2-.1-1.7-.3-.5-.2-1-.5-1.4-.9-.4-.4-.7-.9-.9-1.5-.2-.6-.3-1.3-.3-2.1 0-.6.1-1.2.3-1.8.2-.6.5-1 .8-1.4.4-.4.8-.7 1.3-1 .6-.4 1.2-.5 1.9-.5zm0 1.2c-.8 0-1.4.2-1.8.7-.4.4-.7 1.1-.8 1.9h5c0-.4-.1-.7-.2-1-.1-.3-.3-.6-.5-.8-.2-.2-.4-.4-.7-.5s-.6-.3-1-.3zM131 130.6v13.3h-1.6v-13.3h1.6zM137.4 134.6c.5 0 1 .1 1.5.3.5.2.9.4 1.2.8.3.3.6.8.8 1.3.2.5.3 1.1.3 1.7 0 .3 0 .4-.1.5-.1.1-.2.1-.3.1h-6.1c0 .6.1 1.1.2 1.5.1.4.3.8.6 1.1s.6.5.9.6.7.2 1.2.2c.4 0 .7 0 1-.1.3-.1.5-.2.8-.3.2-.1.4-.2.5-.3.1-.1.3-.1.4-.1.1 0 .2.1.3.2l.5.6c-.2.2-.4.4-.7.6-.3.2-.6.3-.9.4-.3.1-.6.2-1 .3-.3.1-.7.1-1 .1-.6 0-1.2-.1-1.7-.3s-1-.5-1.4-.9c-.4-.4-.7-.9-.9-1.5-.2-.6-.3-1.3-.3-2.1 0-.6.1-1.2.3-1.8.2-.6.5-1 .8-1.4s.8-.7 1.3-1c.6-.4 1.2-.5 1.8-.5zm.1 1.2c-.8 0-1.4.2-1.8.7s-.7 1.1-.8 1.9h5c0-.4-.1-.7-.2-1-.1-.3-.3-.6-.4-.8-.2-.2-.4-.4-.7-.5-.4-.3-.8-.3-1.1-.3zM146.3 134.6c.4 0 .8 0 1.1.1.3.1.7.2.9.4h2.5v.6c0 .2-.1.3-.4.4l-1 .1c.2.4.3.8.3 1.3 0 .4-.1.8-.3 1.2-.2.4-.4.7-.7.9-.3.3-.7.5-1.1.6-.4.1-.9.2-1.4.2-.4 0-.8-.1-1.2-.2-.2.1-.3.3-.4.4s-.1.3-.1.4c0 .2.1.4.3.5s.4.2.7.2c.3.1.6.1 1 .1h1.1s.8 0 1.1.1.7.2 1 .3c.3.2.5.4.7.6.2.3.3.6.3 1s-.1.8-.3 1.1-.5.7-.8 1c-.4.3-.8.5-1.3.7-.5.2-1.1.3-1.8.3s-1.2-.1-1.8-.2-.9-.3-1.2-.5-.6-.5-.7-.8c-.2-.3-.2-.6-.2-.9 0-.4.1-.8.4-1.1.3-.3.7-.6 1.2-.8-.3-.1-.5-.3-.6-.5-.2-.2-.2-.5-.2-.8 0-.1 0-.3.1-.4 0-.1.1-.3.2-.4.1-.1.2-.3.4-.4.1-.1.3-.2.5-.3-.5-.3-.8-.6-1.1-1-.3-.4-.4-.9-.4-1.5 0-.4.1-.8.3-1.2s.4-.7.7-.9c.3-.3.7-.5 1.1-.6h1.1zm2.9 9.7c0-.2-.1-.4-.2-.6s-.3-.3-.5-.3c-.2-.1-.5-.1-.7-.2-.3 0-.6-.1-.9-.1h-1s-.6 0-.9-.1c-.3.2-.6.4-.8.6s-.3.5-.3.8c0 .2.1.4.2.6.1.2.3.3.5.5.2.1.5.2.8.3.3.1.7.1 1.2.1.4 0 .8 0 1.2-.1l.9-.3c.2-.1.4-.3.5-.5-.1-.2 0-.5 0-.7zm-2.9-4.9c.3 0 .6 0 .9-.1s.5-.2.6-.4.3-.4.4-.6.1-.5.1-.7c0-.6-.2-1-.5-1.3s-.8-.5-1.5-.5c-.6 0-1.1.2-1.5.5s-.5.8-.5 1.3c0 .3 0 .5.1.7s.2.4.4.6.4.3.6.4c.3 0 .6.1.9.1zM159.2 143.8h-.7c-.2 0-.3 0-.4-.1-.1 0-.2-.2-.2-.3l-.2-.8c-.2.2-.5.4-.7.6-.2.2-.5.3-.7.4-.3.1-.5.2-.8.3-.3.1-.6.1-1 .1s-.7 0-1-.1c-.3-.1-.6-.2-.8-.4-.2-.2-.4-.4-.5-.8-.1-.3-.2-.7-.2-1.1 0-.4.1-.7.3-1s.5-.6 1-.9c.4-.3 1-.5 1.7-.6s1.6-.2 2.6-.2v-.9c0-.7-.2-1.3-.5-1.6s-.8-.5-1.3-.5c-.4 0-.7.1-1 .1-.3.1-.5.2-.7.3-.2.1-.4.2-.5.3-.1.1-.3.2-.4.2-.1 0-.2 0-.3-.1l-.2-.2-.3-.5c.5-.5 1-.8 1.6-1.1s1.2-.4 1.9-.4c.5 0 1 .1 1.4.3.4.2.7.4 1 .7.3.3.5.7.6 1.1.1.4.2.9.2 1.4v5.8zm-4.2-.9c.3 0 .5 0 .8-.1.2-.1.5-.1.7-.2.2-.1.4-.2.6-.4.2-.1.4-.3.6-.5v-1.9c-.7 0-1.4 0-1.9.1s-.9.2-1.3.4c-.3.2-.6.3-.7.5-.1.2-.2.4-.2.7 0 .2 0 .4.1.6.1.2.2.3.3.4s.3.2.5.2c.1.1.3.2.5.2zM161.6 143.8v-9.1h1c.2 0 .4.1.4.3l.1 1c.4-.4.8-.8 1.3-1.1.5-.3 1.1-.4 1.7-.4.5 0 .9.1 1.3.2.4.2.7.4 1 .7.3.3.4.7.6 1.1s.2.9.2 1.4v5.8h-1.6V138c0-.7-.2-1.2-.5-1.6-.3-.4-.8-.6-1.4-.6-.5 0-.9.1-1.3.3-.4.2-.8.5-1.1.9v6.7h-1.7zM174.4 144c-.7 0-1.3-.2-1.7-.6-.4-.4-.6-1-.6-1.7v-5.6H171c-.1 0-.2 0-.2-.1s-.1-.1-.1-.3v-.6l1.5-.2.4-2.8c0-.1.1-.2.1-.2.1-.1.2-.1.3-.1h.8v3.1h2.6v1.2h-2.6v5.5c0 .4.1.7.3.9.2.2.4.3.7.3.2 0 .3 0 .4-.1s.2-.1.3-.1.2-.1.2-.1c.1 0 .1-.1.2-.1s.2.1.2.2l.5.8c-.3.3-.6.5-1 .6-.4-.1-.8 0-1.2 0zM181.9 134.6c.5 0 1 .1 1.5.3.5.2.9.4 1.2.8.3.3.6.8.8 1.3.2.5.3 1.1.3 1.7 0 .3 0 .4-.1.5s-.2.1-.3.1h-6.1c0 .6.1 1.1.2 1.5.1.4.3.8.6 1.1s.6.5.9.6c.3.1.7.2 1.2.2.4 0 .7 0 1-.1.3-.1.5-.2.8-.3.2-.1.4-.2.5-.3.1-.1.3-.1.4-.1.1 0 .2.1.3.2l.5.6c-.2.2-.4.4-.7.6-.3.2-.6.3-.9.4-.3.1-.6.2-1 .3-.3.1-.7.1-1 .1-.6 0-1.2-.1-1.7-.3-.5-.2-1-.5-1.4-.9-.4-.4-.7-.9-.9-1.5-.2-.6-.3-1.3-.3-2.1 0-.6.1-1.2.3-1.8.2-.6.5-1 .8-1.4.4-.4.8-.7 1.3-1 .6-.4 1.2-.5 1.8-.5zm0 1.2c-.8 0-1.4.2-1.8.7-.4.4-.7 1.1-.8 1.9h5c0-.4-.1-.7-.2-1-.1-.3-.3-.6-.5-.8-.2-.2-.4-.4-.7-.5s-.6-.3-1-.3zM187.2 142.9c0-.2 0-.3.1-.4.1-.1.1-.3.2-.4.1-.1.2-.2.4-.2.1-.1.3-.1.4-.1.2 0 .3 0 .4.1.1.1.3.1.4.2.1.1.2.2.2.4.1.1.1.3.1.4 0 .2 0 .3-.1.4-.1.1-.1.3-.2.4-.1.1-.2.2-.4.2-.1.1-.3.1-.4.1-.2 0-.3 0-.4-.1s-.3-.1-.4-.2c-.1-.1-.2-.2-.2-.4-.1-.1-.1-.3-.1-.4zM50.5 154.6c-.1.1-.1.2-.2.2s-.1.1-.2.1-.2-.1-.4-.2c-.1-.1-.3-.2-.5-.3s-.5-.2-.7-.3c-.3-.1-.6-.2-1.1-.2-.4 0-.7.1-1 .2-.3.1-.6.2-.8.4-.2.2-.4.4-.5.6-.1.2-.2.5-.2.8 0 .4.1.7.3.9.2.2.4.4.7.6s.6.3 1 .4c.4.1.7.3 1.1.4.4.1.8.3 1.1.4.4.2.7.4 1 .6s.5.6.7.9c.2.4.3.8.3 1.3 0 .6-.1 1.1-.3 1.6-.2.5-.5.9-.8 1.3-.4.4-.8.7-1.4.9-.5.2-1.1.3-1.8.3-.8 0-1.6-.2-2.3-.5-.7-.3-1.3-.7-1.8-1.2l.5-.8c0-.1.1-.1.2-.2.1 0 .1-.1.2-.1s.3.1.4.2c.2.1.4.3.6.4.2.2.5.3.9.4.3.1.8.2 1.3.2.4 0 .8-.1 1.1-.2.3-.1.6-.3.8-.5s.4-.5.5-.7c.1-.3.2-.6.2-1s-.1-.7-.3-1c-.2-.2-.4-.5-.7-.6-.3-.2-.6-.3-1-.4-.4-.1-.7-.2-1.1-.4-.4-.1-.8-.3-1.1-.4-.4-.2-.7-.4-1-.6s-.5-.6-.7-1c-.2-.4-.3-.9-.3-1.4 0-.5.1-.9.3-1.3.2-.4.4-.8.8-1.1.3-.3.8-.6 1.2-.8.5-.2 1.1-.3 1.7-.3.7 0 1.4.1 2 .3.6.2 1.1.6 1.6 1l-.3 1.1zM59.9 165.4h-.7c-.2 0-.3 0-.4-.1-.1 0-.2-.1-.2-.3l-.2-.8c-.2.2-.5.4-.7.6-.2.2-.5.3-.7.4s-.5.2-.8.3c-.3.1-.6.1-.9.1-.4 0-.7-.1-1-.1-.3-.1-.6-.2-.8-.4-.2-.2-.4-.5-.5-.8-.1-.3-.2-.7-.2-1.1 0-.4.1-.7.3-1s.5-.6 1-.9c.4-.3 1-.5 1.7-.6.7-.2 1.6-.2 2.6-.2v-.7c0-.7-.2-1.3-.5-1.6-.3-.4-.8-.5-1.3-.5-.4 0-.7 0-1 .1s-.5.2-.7.3c-.2.1-.4.2-.5.3-.1.1-.3.1-.4.1-.1 0-.2 0-.3-.1l-.2-.2-.3-.5c.5-.5 1-.8 1.6-1.1s1.2-.4 1.9-.4c.5 0 1 .1 1.4.3s.7.4 1 .7c.3.3.5.7.6 1.1.1.4.2.9.2 1.4v5.7zm-4.2-.9c.3 0 .5 0 .8-.1s.5-.1.7-.2.4-.2.6-.4.4-.3.6-.5v-1.9c-.7 0-1.4 0-1.9.1s-.9.2-1.3.4c-.3.2-.6.3-.7.5s-.2.4-.2.7c0 .2 0 .5.1.6.1.2.2.3.3.4.1.1.3.2.5.2.1.1.3.2.5.2zM64.1 152.2v13.3h-1.6v-13.3h1.6zM69.7 165.6c-.7 0-1.3-.2-1.7-.6s-.6-1-.6-1.7v-5.6h-1.1c-.1 0-.2 0-.2-.1-.1-.1-.1-.1-.1-.3v-.6l1.5-.2.4-2.8c0-.1.1-.2.1-.2s.1-.1.3-.1h.7v3.1h2.6v1.2H69v5.5c0 .4.1.7.3.9.2.2.4.3.7.3.2 0 .3 0 .4-.1s.2-.1.3-.1c.1-.1.2-.1.2-.1s.1-.1.2-.1.2.1.2.2l.5.8c-.3.3-.6.5-1 .6-.3-.1-.7 0-1.1 0zM77.3 156.2c.7 0 1.3.1 1.8.3.5.2 1 .5 1.4.9s.7.9.9 1.5c.2.6.3 1.2.3 1.9s-.1 1.4-.3 1.9c-.2.6-.5 1.1-.9 1.5s-.8.7-1.4.9c-.5.2-1.1.3-1.8.3s-1.3-.1-1.8-.3c-.5-.2-1-.5-1.4-.9s-.7-.9-.9-1.5c-.2-.6-.3-1.2-.3-1.9s.1-1.4.3-1.9c.2-.6.5-1.1.9-1.5s.8-.7 1.4-.9c.5-.2 1.1-.3 1.8-.3zm0 8.1c.9 0 1.6-.3 2-.9.4-.6.7-1.4.7-2.5s-.2-1.9-.7-2.5c-.4-.6-1.1-.9-2-.9-.5 0-.9.1-1.2.2-.3.2-.6.4-.8.7-.2.3-.4.7-.5 1.1-.1.4-.2.9-.2 1.5 0 .5.1 1 .2 1.4.1.4.3.8.5 1.1s.5.5.8.7c.4 0 .8.1 1.2.1zM93.8 165.4h-.7c-.2 0-.3 0-.4-.1-.1 0-.2-.1-.2-.3l-.2-.8c-.2.2-.5.4-.7.6-.2.2-.5.3-.7.4s-.5.2-.8.3c-.3.1-.6.1-.9.1-.4 0-.7-.1-1-.1-.3-.1-.6-.2-.8-.4-.2-.2-.4-.5-.5-.8-.1-.3-.2-.7-.2-1.1 0-.4.1-.7.3-1s.5-.6 1-.9c.4-.3 1-.5 1.7-.6.7-.2 1.6-.2 2.6-.2v-.7c0-.7-.2-1.3-.5-1.6-.3-.4-.8-.5-1.3-.5-.4 0-.7 0-1 .1s-.5.2-.7.3c-.2.1-.4.2-.5.3-.1.1-.3.1-.4.1-.1 0-.2 0-.3-.1l-.2-.2-.3-.5c.5-.5 1-.8 1.6-1.1s1.2-.4 1.9-.4c.5 0 1 .1 1.4.3s.7.4 1 .7c.3.3.5.7.6 1.1.1.4.2.9.2 1.4v5.7zm-4.2-.9c.3 0 .5 0 .8-.1s.5-.1.7-.2.4-.2.6-.4.4-.3.6-.5v-1.9c-.7 0-1.4 0-1.9.1s-.9.2-1.3.4c-.3.2-.6.3-.7.5s-.2.4-.2.7c0 .2 0 .5.1.6.1.2.2.3.3.4.1.1.3.2.5.2.1.1.3.2.5.2zM98 152.2v13.3h-1.6v-13.3H98zM103.6 165.6c-.7 0-1.3-.2-1.7-.6s-.6-1-.6-1.7v-5.6h-1.1c-.1 0-.2 0-.2-.1-.1-.1-.1-.1-.1-.3v-.6l1.5-.2.4-2.8c0-.1.1-.2.1-.2s.1-.1.3-.1h.8v3.1h2.6v1.2H103v5.5c0 .4.1.7.3.9.2.2.4.3.7.3.2 0 .3 0 .4-.1s.2-.1.3-.1c.1-.1.2-.1.2-.1s.1-.1.2-.1.2.1.2.2l.5.8c-.3.3-.6.5-1 .6-.4-.1-.8 0-1.2 0zM111.2 156.2c.7 0 1.3.1 1.8.3.5.2 1 .5 1.4.9s.7.9.9 1.5.3 1.2.3 1.9-.1 1.4-.3 1.9-.5 1.1-.9 1.5-.8.7-1.4.9c-.5.2-1.1.3-1.8.3s-1.3-.1-1.8-.3c-.5-.2-1-.5-1.4-.9s-.7-.9-.9-1.5c-.2-.6-.3-1.2-.3-1.9s.1-1.4.3-1.9c.2-.6.5-1.1.9-1.5s.8-.7 1.4-.9c.6-.2 1.2-.3 1.8-.3zm0 8.1c.9 0 1.6-.3 2-.9.4-.6.7-1.4.7-2.5s-.2-1.9-.7-2.5c-.4-.6-1.1-.9-2-.9-.5 0-.9.1-1.2.2-.3.2-.6.4-.8.7-.2.3-.4.7-.5 1.1-.1.4-.2.9-.2 1.5 0 .5.1 1 .2 1.4.1.4.3.8.5 1.1s.5.5.8.7c.4 0 .8.1 1.2.1zM124.7 156.2c.7 0 1.3.1 1.8.3s1 .5 1.4.9.7.9.9 1.5c.2.6.3 1.2.3 1.9s-.1 1.4-.3 1.9c-.2.6-.5 1.1-.9 1.5s-.8.7-1.4.9c-.5.2-1.1.3-1.8.3s-1.3-.1-1.8-.3c-.5-.2-1-.5-1.4-.9s-.7-.9-.9-1.5-.3-1.2-.3-1.9.1-1.4.3-1.9.5-1.1.9-1.5.8-.7 1.4-.9c.6-.2 1.2-.3 1.8-.3zm0 8.1c.9 0 1.6-.3 2-.9.4-.6.7-1.4.7-2.5s-.2-1.9-.7-2.5c-.4-.6-1.1-.9-2-.9-.5 0-.9.1-1.2.2-.3.2-.6.4-.8.7-.2.3-.4.7-.5 1.1-.1.4-.2.9-.2 1.5 0 .5.1 1 .2 1.4.1.4.3.8.5 1.1.2.3.5.5.8.7.4 0 .8.1 1.2.1zM131 168.5v-12.2h1c.2 0 .4.1.4.3l.1 1.1c.4-.5.8-.9 1.3-1.1.5-.3 1.1-.4 1.7-.4.5 0 1 .1 1.4.3s.8.5 1.1.9.5.9.7 1.5.2 1.3.2 2-.1 1.3-.3 1.9c-.2.6-.4 1.1-.8 1.5-.3.4-.7.8-1.2 1-.5.2-1 .4-1.7.4-.6 0-1-.1-1.4-.3s-.8-.4-1.1-.8v4H131zm4.1-11c-.5 0-1 .1-1.4.4-.4.2-.8.6-1.1 1v4.4c.3.4.6.7 1 .8s.7.2 1.2.2c.8 0 1.5-.3 2-.9.5-.6.7-1.5.7-2.6 0-.6-.1-1.1-.2-1.5-.1-.4-.3-.8-.5-1s-.4-.5-.7-.6c-.3-.2-.6-.2-1-.2zM147.2 157.9c0 .1-.1.1-.1.2 0 0-.1.1-.2.1s-.2 0-.3-.1c-.1-.1-.2-.2-.4-.2-.2-.1-.4-.2-.6-.2-.2-.1-.5-.1-.9-.1s-.8.1-1.2.2c-.3.2-.6.4-.9.7-.2.3-.4.7-.5 1.1-.1.4-.2.9-.2 1.4 0 .6.1 1 .2 1.5.1.4.3.8.5 1.1.2.3.5.5.8.7.3.2.7.2 1.1.2.4 0 .7 0 1-.1.3-.1.5-.2.6-.3.2-.1.3-.2.4-.3.1-.1.2-.1.3-.1.1 0 .2.1.3.2l.5.6c-.4.5-.9.8-1.5 1.1s-1.2.3-1.9.3c-.6 0-1.1-.1-1.6-.3-.5-.2-.9-.5-1.3-.9s-.6-.9-.9-1.5-.3-1.2-.3-2c0-.7.1-1.3.3-1.9.2-.6.5-1.1.8-1.5.4-.4.8-.7 1.3-1 .5-.2 1.1-.3 1.8-.3.6 0 1.2.1 1.7.3s.9.5 1.3.9l-.1.2zM151.5 153.5c0 .2 0 .3-.1.4-.1.1-.1.3-.3.4-.1.1-.2.2-.4.2-.1.1-.3.1-.4.1s-.3 0-.4-.1c-.1-.1-.3-.1-.4-.2-.1-.1-.2-.2-.2-.4-.1-.1-.1-.3-.1-.4s0-.3.1-.4.1-.3.2-.4c.1-.1.2-.2.4-.2.1-.1.3-.1.4-.1s.3 0 .4.1c.1.1.3.1.4.2.1.1.2.2.3.4.1.1.1.2.1.4zm-.3 2.8v9.1h-1.6v-9.1h1.6zM157.7 156.2c.7 0 1.3.1 1.8.3s1 .5 1.4.9.7.9.9 1.5c.2.6.3 1.2.3 1.9s-.1 1.4-.3 1.9c-.2.6-.5 1.1-.9 1.5s-.8.7-1.4.9c-.5.2-1.1.3-1.8.3s-1.3-.1-1.8-.3c-.5-.2-1-.5-1.4-.9s-.7-.9-.9-1.5-.3-1.2-.3-1.9.1-1.4.3-1.9.5-1.1.9-1.5.8-.7 1.4-.9c.5-.2 1.1-.3 1.8-.3zm0 8.1c.9 0 1.6-.3 2-.9.4-.6.7-1.4.7-2.5s-.2-1.9-.7-2.5c-.4-.6-1.1-.9-2-.9-.5 0-.9.1-1.2.2-.3.2-.6.4-.8.7-.2.3-.4.7-.5 1.1-.1.4-.2.9-.2 1.5 0 .5.1 1 .2 1.4.1.4.3.8.5 1.1.2.3.5.5.8.7.3 0 .7.1 1.2.1zM164 165.4v-9.1h1c.2 0 .4.1.4.3l.1 1c.4-.4.8-.8 1.3-1.1.5-.3 1.1-.4 1.7-.4.5 0 .9.1 1.3.2.4.2.7.4 1 .7.3.3.4.7.6 1.1s.2.9.2 1.4v5.8H170v-5.8c0-.7-.2-1.2-.5-1.6-.3-.4-.8-.6-1.4-.6-.5 0-.9.1-1.3.3s-.8.5-1.1.9v6.7H164zM180.7 165.4h-.7c-.2 0-.3 0-.4-.1-.1 0-.2-.1-.2-.3l-.2-.8c-.2.2-.5.4-.7.6-.2.2-.5.3-.7.4s-.5.2-.8.3c-.3.1-.6.1-1 .1s-.7-.1-1-.1c-.3-.1-.6-.2-.8-.4-.2-.2-.4-.5-.5-.8-.1-.3-.2-.7-.2-1.1 0-.4.1-.7.3-1s.5-.6 1-.9c.4-.3 1-.5 1.7-.6.7-.2 1.6-.2 2.6-.2v-.7c0-.7-.2-1.3-.5-1.6-.3-.4-.8-.5-1.3-.5-.4 0-.7 0-1 .1-.3.1-.5.2-.7.3-.2.1-.4.2-.5.3-.1.1-.3.1-.4.1-.1 0-.2 0-.3-.1l-.2-.2-.3-.5c.5-.5 1-.8 1.6-1.1s1.2-.4 1.9-.4c.5 0 1 .1 1.4.3.4.2.7.4 1 .7.3.3.5.7.6 1.1.1.4.2.9.2 1.4v5.7zm-4.2-.9c.3 0 .5 0 .8-.1.2-.1.5-.1.7-.2s.4-.2.6-.4c.2-.2.4-.3.6-.5v-1.9c-.7 0-1.4 0-1.9.1s-.9.2-1.3.4c-.3.2-.6.3-.7.5-.1.2-.2.4-.2.7 0 .2 0 .5.1.6.1.2.2.3.3.4.1.1.3.2.5.2.1.1.3.2.5.2zM184.9 152.2v13.3h-1.6v-13.3h1.6zM187.2 164.5c0-.2 0-.3.1-.4.1-.1.1-.3.2-.4.1-.1.2-.2.4-.2s.3-.1.4-.1c.2 0 .3 0 .4.1.1.1.3.1.4.2.1.1.2.2.2.4.1.1.1.3.1.4 0 .2 0 .3-.1.4-.1.1-.1.3-.2.4-.1.1-.2.2-.4.2-.1.1-.3.1-.4.1-.2 0-.3 0-.4-.1-.1-.1-.3-.1-.4-.2-.1-.1-.2-.2-.2-.4-.1-.1-.1-.3-.1-.4z"/></g><g><ellipse transform="rotate(-76.65 219.693 85.724)" class="st1" cx="219.7" cy="85.7" rx="7.9" ry="7.9"/><path class="st1" d="M235.4 137.5s-9.9-20.9-10.9-23.1c-.9-2.2 0-3.3 0-3.3l3.4-7.4s2.2-4.1-1.1-5.2c-3.4-1-7.2-1.1-7.2-1.1s-3.8.1-7.2 1.1c-3.4 1-1.1 5.2-1.1 5.2l3.4 7.4s.9 1 0 3.3c-.9 2.2-10.9 23.1-10.9 23.1s-1.3 2.8 0 4.1c1.3 1.4 9.4 4.7 15.7 4.7 6.4 0 14.4-3.3 15.7-4.7 1.5-1.3.2-4.1.2-4.1z"/><path class="st1" d="M219.7 146.3c-1.7 0-3.6-.2-5.4-.6l2.2 31.4h6l2.2-31.3c-1.7.3-3.4.5-5 .5z"/></g><g><ellipse transform="rotate(-76.714 33.345 7.867)" class="st1" cx="33.3" cy="7.9" rx="7.9" ry="7.9"/><path class="st1" d="M39.4 19.9l-6.1 13.6-6.1-13.6H21l9.3 79.3h6l9.4-79.3z"/></g></svg>