<svg id="Camada_1" xmlns="http://www.w3.org/2000/svg" viewBox="0 0 59.2 99.2"><style>.st0{fill:#284790;}</style><path class="st0" d="M31.6 47.8L58.5 7.1c.9-1.4 1-3.2.2-4.8C57.8.8 56.2-.1 54.6 0L39 .5c-.8 0-1.6.3-2.3.7-.7.5-1.3 1.1-1.6 1.8L10.2 53c-.7 1.4-.7 3.1.2 4.5.9 1.4 2.4 2.2 3.9 2.1l4.1-.1-11 23.9L5.8 80c-.3-.7-1.1-1.1-1.9-1-.8.1-1.4.8-1.5 1.6L0 97.1c-.1.7.2 1.4.9 1.8.7.4 1.5.3 2-.1l12.9-10c.6-.5.9-1.3.6-2.1-.3-.8-1-1.2-1.8-1.2l-3.2.1 26.4-30.4c1.2-1.3 1.5-3.3.7-5-.8-1.7-2.6-2.7-4.3-2.6l-2.6.2z"/></svg>