<svg id="Layer_1" xmlns="http://www.w3.org/2000/svg" viewBox="0 0 170.6 111.5"><style>.st0{fill:#FFFFFF;} .st1{fill:#FFFFFF;stroke:#FFFFFF;stroke-width:0.5052;stroke-miterlimit:10;} .st2{fill:#EFC030;stroke:#EFC030;stroke-width:0.3;stroke-miterlimit:10;}</style><path class="st0" d="M98.6 84.6c0-.1 0-.1 0 0l.1-.1h.5v.2l-.6.8v.1h-.1-.1-.1-.1-.1v-.1l.5-.9zM4.4 83.3s.1 0 .1.1V85l-.1.1h-.2s-.1 0-.1-.1v-.4h-.5c-.3 0-.7-.1-1-.2-.1-.1-.3-.2-.4-.3-.1-.1-.2-.2-.2-.3-.1-.2-.1-.4-.1-.6v-5.9h-.1V77v-.1l.1-.1h.6s.1 0 .1.1v.4h-.1V83.4c0 .1 0 .1.1.1.1.1.1.2.2.3 0 .1.1.2.3.2.1 0 .3.1.5.1H4v-.6-.1l.1-.1h.3zM9.7 79.3V79.6l-.1.1h-.5v3.4c0 .3 0 .5-.1.7-.1.2-.2.4-.4.5l-.6.3c-.2.1-.4.1-.7.1H5.6h-.1V84.4v-.1l.1-.1v-4.4h-.4s-.1 0-.1-.1V79.4v-.1h1.6v.4l-.1.1h-.4v3.5c0 .1 0 .2.1.3.1.2.2.3.4.4.2.1.4.1.7.1.3 0 .5 0 .7-.1.2-.1.3-.2.4-.4.1-.1.1-.3.1-.4v-3.4h-.4s-.1 0-.1-.1V79.4c0-.1.1-.2.2-.2h1.4v.1zM15.1 79.1v.4h-.5l-1.4 2.2 1.4 2.2h.4v.4l-.1.1h-1.4s-.1 0-.1-.1V84v-.1h.5l-.8-1.2c-.2-.3-.4-.3-.7.1l-.8 1.2h.5v.4l-.1.1h-1.4s-.1 0-.1-.1V84.1 84h.5l1.4-2.2-1.4-2.1h-.3-.1l-.1-.1v-.2s0-.1.1-.1h1.6v.4h-.5l1.2 1.8 1.1-1.8h-.3-.1V79.4v-.1H15c0-.2.1-.2.1-.2zM19.4 79.1h.1v.4h-.1v3.6c0 .2 0 .4-.1.6-.1.3-.4.5-.7.7-.1.1-.3.1-.5.2h-.5c-.2 0-.5 0-.7-.1l-.6-.3c-.2-.1-.3-.3-.4-.5-.1-.2-.1-.4-.1-.7v-2.6c0-.2 0-.4.1-.7.1-.2.2-.4.4-.5l.6-.3c.2-.1.4-.1.7-.1h1.8zm-.6 1.5c0-.1 0-.2-.1-.3-.1-.2-.2-.3-.4-.4-.2-.1-.4-.1-.7-.1-.3 0-.5 0-.7.1-.2.1-.3.2-.4.4-.1.1-.1.3-.1.4v2.6c0 .2 0 .3.1.4.1.2.2.3.4.4.2.1.4.1.7.1.2 0 .3 0 .5-.1.1 0 .3-.1.4-.2.1 0 .1-.1.1-.1 0-.1.1-.1.1-.2 0 0 0-.1.1-.1V80.6zM26.7 82.9h.1v.1c0 .3 0 .5-.1.7-.1.2-.2.4-.4.5-.2.1-.3.2-.6.3-.2.1-.4.1-.7.1h-1.8s-.1 0-.1-.1V84.2v-.1h.1v-3.4-.3c0-.1.1-.2.1-.3.1-.1.2-.3.3-.4.1-.1.2-.2.4-.3.3-.1.6-.2 1-.2.2 0 .4 0 .7.1l.6.3c.2.1.3.3.4.5.1.2.1.4.1.7 0 .3 0 .5-.1.7-.1.2-.2.3-.4.5-.2.1-.3.2-.6.3-.2.1-.4.1-.7.1-.2 0-.4 0-.5.1-.1 0-.3.1-.4.2-.1.1-.2.2-.2.3 0 0 0 .1-.1.1V83.4c0 .1 0 .2.1.3.1.2.2.3.4.4.2.1.4.1.7.1.3 0 .5 0 .7-.1.2-.1.3-.2.4-.4.1-.1.1-.3.1-.4v-.1h.5zM24 80.2s0 .1-.1.1V81.5H25c.3 0 .5-.1.7-.2.2-.1.3-.2.4-.4.1-.1.1-.3.1-.4 0-.2 0-.3-.1-.4-.1-.2-.2-.3-.4-.4-.2-.1-.4-.1-.7-.1-.4 0-.7.1-.9.3 0 .1-.1.2-.1.3zM34.3 84.1h.1v.4l-.1.1h-1.8c-.4 0-.7-.1-1-.2-.3-.1-.5-.4-.7-.7-.1-.1-.1-.3-.1-.4V83v-.3c0-.1.1-.3.1-.4.1-.2.2-.4.4-.5l.6-.3c.2-.1.4-.1.7-.1.3 0 .5 0 .7-.1.2-.1.3-.2.4-.4.1-.1.1-.2.1-.3v-.2c0-.1 0-.1-.1-.1-.1-.1-.1-.2-.2-.3-.2-.2-.5-.3-.9-.3-.3 0-.5 0-.7.1-.2.1-.3.2-.4.4-.1.1-.1.3-.1.4v.1H31h-.1v-.1c0-.2 0-.4.1-.7.1-.2.2-.4.4-.5l.6-.3c.2-.1.4-.1.7-.1.4 0 .7.1 1 .2.1.1.3.2.4.3.1.1.2.2.3.4.1.2.1.4.1.6l-.2 3.6zm-1.8 0c.3 0 .5 0 .7-.1.2-.1.3-.2.4-.4.1-.1.1-.2.1-.3v-1s0-.1-.1-.1h-1.1c-.4 0-.7.1-.9.3-.1.1-.2.2-.2.3 0 .1-.1.2-.1.3v.4c0 .1 0 .2.1.3 0 .1.1.2.2.2l.2.2c.2-.2.4-.1.7-.1zM40 79.3V79.6h-.5L37.7 84h.5v.4l-.1.1h-1.4s-.1 0-.1-.1l-.1-.1v-.2s0-.1.1-.1h.5l-1.8-4.4h-.4-.1V79.3c0-.1.1-.2.2-.2h1.4c.1 0 .2.1.2.2V79.6h-.5l1.2 3.1c.1.2.2.3.2.3.1 0 .2-.1.2-.3l1.2-3h-.4-.1V79.4c0-.1.1-.2.2-.2H40v.1zM44.3 82.9h.1v.1c0 .3 0 .5-.1.7-.1.2-.2.4-.4.5-.2.1-.3.2-.6.3-.2.1-.4.1-.7.1h-1.8s-.1 0-.1-.1V84.2v-.1h.1v-3.4-.3c0-.1.1-.2.1-.3.1-.1.2-.3.3-.4.1-.1.2-.2.4-.3.3-.1.6-.2 1-.2.2 0 .4 0 .7.1l.6.3c.2.1.3.3.4.5.1.2.1.4.1.7 0 .3 0 .5-.1.7-.1.2-.2.3-.4.5-.2.1-.3.2-.6.3-.2.1-.4.1-.7.1-.2 0-.4 0-.5.1s-.3.1-.4.2c-.1.1-.2.2-.2.3 0 0 0 .1-.1.1V83.4c0 .1 0 .2.1.3.1.2.2.3.4.4.2.1.4.1.7.1.3 0 .5 0 .7-.1.2-.1.3-.2.4-.4.1-.1.1-.3.1-.4v-.1h.5zm-2.7-2.7s0 .1-.1.1V81.5h1.1c.3 0 .5-.1.7-.2.2-.1.3-.2.4-.4.1-.1.1-.3.1-.4 0-.2 0-.3-.1-.4-.1-.2-.2-.3-.4-.4-.2-.1-.4-.1-.7-.1-.4 0-.7.1-.9.3 0 .1-.1.2-.1.3zM49.8 84.1l.1.1v.2s0 .1-.1.1l-.1.1h-1.4s-.1 0-.1-.1V84.2v-.1h.5v-3.4c0-.2 0-.3-.1-.4-.1-.2-.2-.3-.4-.4-.2-.1-.4-.1-.7-.1-.3 0-.5 0-.7.1-.2.1-.3.2-.4.4-.1.1-.1.2-.1.3v3.5h.5v.4l-.1.1h-1.4s-.1 0-.1-.1V84.2v-.1h.5v-4.4h-.1V79.4v-.1H47.5c.2 0 .4 0 .7.1l.6.3c.1.1.2.1.2.2.1.1.1.2.2.3.1.2.1.4.1.7v3.4h.4c0-.2 0-.2.1-.2zM53.8 83v.1c0 .2 0 .4-.1.7-.1.2-.2.4-.4.5l-.6.3c-.2.1-.4.1-.7.1h-1.8s-.1 0-.1-.1l-.1-.1v-.2s0-.1.1-.1h.1v-4.4h-.5-.1V79.5c0-.1.1-.2.2-.2h.3c.1 0 .2-.1.2-.2v-.8h-.1l-.1-.1V78s0-.1.1-.1h.5c.1 0 .2.1.2.2v1.3h2.2c.1 0 .2.1.2.2V79.9h-1.1c-.3 0-.5 0-.7.1-.2.1-.3.2-.4.4-.1.1-.1.2-.1.3v2.6c0 .1 0 .2.1.3.1.2.2.3.4.4.2.1.4.1.7.1s.5 0 .7-.1c.2-.1.3-.2.4-.4.1-.1.1-.3.1-.4v-.1H53.7c.1-.2.1-.1.1-.1zM58.8 79.3V79.6l-.1.1h-.4v3.4c0 .3 0 .5-.1.7-.1.2-.2.4-.4.5l-.6.3c-.2.1-.4.1-.7.1h-1.8-.1V84.4v-.1l.1-.1v-4.4h-.4s-.1 0-.1-.1l-.1-.1v-.2s0-.1.1-.1h1.6l.1.1v.2s0 .1-.1.1l-.1.1h-.4v3.5c0 .1 0 .2.1.3.1.2.2.3.4.4.2.1.4.1.7.1.3 0 .5 0 .7-.1.2-.1.3-.2.4-.4.1-.1.1-.3.1-.4v-3.4h-.4s-.1 0-.1-.1V79.4c0-.1.1-.2.2-.2h1.4v.1zM63.1 80c.1.2.1.4.1.7v.1H62.9h-.1v-.1c0-.2 0-.3-.1-.4-.1-.2-.2-.3-.4-.4-.2-.1-.4-.1-.7-.1-.3 0-.5 0-.7.1-.2.1-.3.2-.4.4-.1.1-.1.2-.1.3v3.5h.5v.4l-.1.1h-1.4s-.1 0-.1-.1V84.2v-.1h.5v-4.4h-.1l-.1-.1v-.2s0-.1.1-.1H61.6c.2 0 .4 0 .7.1l.6.3c0-.1.1.1.2.3zM67.7 84.1h.1v.4l-.1.1h-1.8c-.4 0-.7-.1-1-.2-.3-.1-.5-.4-.7-.7-.1-.1-.1-.3-.1-.4V83v-.3c0-.1.1-.3.1-.4.1-.2.2-.4.4-.5l.6-.3c.2-.1.4-.1.7-.1.3 0 .5 0 .7-.1.2-.1.3-.2.4-.4.1-.1.1-.2.1-.3v-.2c0-.1 0-.1-.1-.1-.1-.1-.1-.2-.2-.3-.2-.2-.5-.3-.9-.3-.3 0-.5 0-.7.1-.2.1-.3.2-.4.4-.1.1-.1.3-.1.4v.1H64.4h-.1v-.1c0-.2 0-.4.1-.7.1-.2.2-.4.4-.5l.6-.3c.2-.1.4-.1.7-.1.4 0 .7.1 1 .2.1.1.3.2.4.3.1.1.2.2.3.4.1.2.1.4.1.6l-.2 3.6zm-1.8 0c.3 0 .5 0 .7-.1.2-.1.3-.2.4-.4.1-.1.1-.2.1-.3v-1s0-.1-.1-.1h-1.1c-.4 0-.7.1-.9.3-.1.1-.2.2-.2.3 0 .1-.1.2-.1.3v.4c0 .1 0 .2.1.3 0 .1.1.2.2.2l.2.2c.2-.2.4-.1.7-.1zM75.8 84.1v.4l-.1.1h-1.4s-.1 0-.1-.1V84.2v-.1h.5v-3.4c0-.2 0-.3-.1-.4-.1-.2-.2-.3-.4-.4-.2-.1-.4-.1-.7-.1-.3 0-.5 0-.7.1-.2.1-.3.2-.4.4-.1.1-.1.2-.1.3v3.5h.5v.4l-.1.1h-1.4s-.1 0-.1-.1V84.2v-.1h.5v-4.4h-.1V79.4v-.1H73.5c.2 0 .4 0 .7.1l.6.3c.1.1.2.1.2.2.1.1.1.2.2.3.1.2.1.4.1.7v3.4h.4c0-.2 0-.2.1-.2zM79.9 79.1h.1v.4h-.1v3.6c0 .2 0 .4-.1.6-.1.3-.4.5-.7.7-.1.1-.3.1-.5.2h-.5c-.2 0-.5 0-.7-.1l-.6-.3c-.2-.1-.3-.3-.4-.5-.1-.2-.1-.4-.1-.7v-2.6c0-.2 0-.4.1-.7.1-.2.2-.4.4-.5l.6-.3c.2-.1.4-.1.7-.1h1.8zm-.6 1.5c0-.1 0-.2-.1-.3-.1-.2-.2-.3-.4-.4-.2-.1-.4-.1-.7-.1-.3 0-.5 0-.7.1-.2.1-.3.2-.4.4-.1.1-.1.3-.1.4v2.6c0 .2 0 .3.1.4.1.2.2.3.4.4.2.1.4.1.7.1.2 0 .3 0 .5-.1s.3-.1.4-.2c.1 0 .1-.1.1-.1 0-.1.1-.1.1-.2 0 0 0-.1.1-.1V80.6zM87.3 83v.3c0 .1-.1.3-.1.4-.2.3-.4.5-.7.7-.3.1-.6.2-1 .2h-1.8s-.1 0-.1-.1V84.2v-.1h.1v-6.8h-.1V77v-.1h.5c.1 0 .2.1.2.2v2.2h1.1c.2 0 .4 0 .7.1l.6.3c.2.1.3.3.4.5.1.2.1.4.1.7V83zm-.6.5c0-.1.1-.2.1-.3v-2.6c0-.2 0-.3-.1-.4-.1-.2-.2-.3-.4-.4-.2-.1-.4-.1-.7-.1-.4 0-.7.1-.9.3-.1.1-.2.2-.2.3 0 0 0 .1-.1.1V83.2c0 .1 0 .2.1.3.1.2.2.3.4.4.2.1.4.1.7.1.3 0 .5 0 .7-.1.1-.1.2-.1.2-.2.1 0 .1-.1.2-.2zM91.8 82.9h.1v.1c0 .3 0 .5-.1.7-.1.2-.2.4-.4.5-.2.1-.3.2-.6.3-.2.1-.4.1-.7.1h-1.8s-.1 0-.1-.1V84.2v-.1h.1v-3.4-.3c0-.1.1-.2.1-.3.1-.1.2-.3.3-.4.1-.1.2-.2.4-.3.3-.1.6-.2 1-.2.2 0 .4 0 .7.1l.6.3c.2.1.3.3.4.5.1.2.1.4.1.7 0 .3 0 .5-.1.7-.1.2-.2.3-.4.5-.2.1-.3.2-.6.3-.2.1-.4.1-.7.1-.2 0-.4 0-.5.1-.1 0-.3.1-.4.2-.1.1-.2.2-.2.3 0 0 0 .1-.1.1V83.4c0 .1 0 .2.1.3.1.2.2.3.4.4.2.1.4.1.7.1.3 0 .5 0 .7-.1.2-.1.3-.2.4-.4.1-.1.1-.3.1-.4v-.1h.5zm-2.7-2.7s0 .1-.1.1V81.5h1.1c.3 0 .5-.1.7-.2.2-.1.3-.2.4-.4.1-.1.1-.3.1-.4 0-.2 0-.3-.1-.4-.1-.2-.2-.3-.4-.4-.2-.1-.4-.1-.7-.1-.4 0-.7.1-.9.3 0 .1-.1.2-.1.3zM96.5 80c.1.2.1.4.1.7v.1H96.3h-.1v-.1c0-.2 0-.3-.1-.4-.1-.2-.2-.3-.4-.4-.2-.1-.4-.1-.7-.1-.3 0-.5 0-.7.1-.2.1-.3.2-.4.4-.1.1-.1.2-.1.3v3.5h.5v.4l-.1.1h-1.4s-.1 0-.1-.1V84.2v-.1h.5v-4.4h-.1l-.1-.1v-.2s0-.1.1-.1H95c.2 0 .4 0 .7.1l.6.3c-.1-.1.1.1.2.3z"/><path class="st0" d="M99.3 84.1c.3 0 .5 0 .7-.1.2-.1.3-.2.4-.4.1-.1.1-.3.1-.4v-.1h.4v.1c0 .2 0 .4-.1.7-.1.2-.2.4-.4.5l-.6.3c-.2.1-.4.1-.7.1h-1.8s-.1 0-.1-.1V84.4v-.1h.1v-3.4c0-.2 0-.5.1-.6.1-.1.2-.3.3-.4.1-.1.2-.2.4-.3.3-.1.6-.2 1-.2.2 0 .4 0 .7.1l.6.3c.2.1.3.3.4.5.1.2.1.4.1.7v.1H100.6h-.1V81c0-.2 0-.3-.1-.4-.1-.2-.2-.3-.4-.4-.2-.1-.4-.1-.7-.1-.4 0-.7.1-.9.3-.1.1-.2.2-.2.3 0 0 0 .1-.1.1V83.6c0 .1 0 .2.1.3.1.2.2.3.4.4.2-.3.4-.2.7-.2zM105.7 79.1h.1v.4h-.1v3.6c0 .2 0 .4-.1.6-.1.3-.4.5-.7.7-.1.1-.3.1-.5.2h-.5c-.2 0-.5 0-.7-.1l-.6-.3c-.2-.1-.3-.3-.4-.5-.1-.2-.1-.4-.1-.7v-2.6c0-.2 0-.4.1-.7.1-.2.2-.4.4-.5l.6-.3c.2-.1.4-.1.7-.1h1.8zm-.6 1.5c0-.1 0-.2-.1-.3-.1-.2-.2-.3-.4-.4-.2-.1-.4-.1-.7-.1-.3 0-.5 0-.7.1-.2.1-.3.2-.4.4-.1.1-.1.3-.1.4v2.6c0 .2 0 .3.1.4.1.2.2.3.4.4.2.1.4.1.7.1.2 0 .3 0 .5-.1.1 0 .3-.1.4-.2.1 0 .1-.1.1-.1 0-.1.1-.1.1-.2 0 0 0-.1.1-.1V80.6zM112.6 77.2c-.1 0-.2-.1-.2-.2v-.2c0-.1.1-.2.2-.2h.5v7.3h.1v.4l-.1.1h-1.8c-.4 0-.7-.1-1-.2-.3-.1-.5-.4-.7-.7-.1-.1-.1-.3-.1-.4V80.4c0-.3 0-.5.1-.7.1-.2.2-.4.4-.5l.6-.3c.2-.1.4-.1.7-.1h1.1v-1.6zm-2.4 5.8v.2c0 .1 0 .2.1.3.1.2.2.3.4.4.2.1.4.1.7.1s.5 0 .7-.1c.2-.1.3-.2.4-.4.1-.1.1-.2.1-.3v-2.6-.2c0-.1 0-.1-.1-.1-.1-.1-.1-.2-.2-.3-.2-.2-.5-.3-.9-.3-.3 0-.5 0-.7.1-.2.1-.3.2-.4.4-.1.1-.1.3-.1.4V83zM117.8 84.1h.1v.4l-.1.1H116c-.4 0-.7-.1-1-.2-.3-.1-.5-.4-.7-.7-.1-.1-.1-.3-.1-.4V83v-.3c0-.1.1-.3.1-.4.1-.2.2-.4.4-.5l.6-.3c.2-.1.4-.1.7-.1.3 0 .5 0 .7-.1.2-.1.3-.2.4-.4.1-.1.1-.2.1-.3v-.2c0-.1 0-.1-.1-.1-.1-.1-.1-.2-.2-.3-.2-.2-.5-.3-.9-.3-.3 0-.5 0-.7.1-.2.1-.3.2-.4.4-.1.1-.1.3-.1.4v.1H114.5h-.1v-.1c0-.2 0-.4.1-.7.1-.2.2-.4.4-.5l.6-.3c.2-.1.4-.1.7-.1.4 0 .7.1 1 .2.1.1.3.2.4.3.1.1.2.2.3.4.1.2.1.4.1.6l-.2 3.6zm-1.8 0c.3 0 .5 0 .7-.1.2-.1.3-.2.4-.4.1-.1.1-.2.1-.3v-1s0-.1-.1-.1H116c-.4 0-.7.1-.9.3-.1.1-.2.2-.2.3 0 .1-.1.2-.1.3v.4c0 .1 0 .2.1.3 0 .1.1.2.2.2l.2.2c.2-.2.5-.1.7-.1zM126.4 84.2v.2c0 .1-.1.2-.2.2h-1.4c-.1 0-.2-.1-.2-.2v-.2c0-.1.1-.2.2-.2h.4v-3.4c0-.1 0-.3-.1-.4-.1-.2-.2-.3-.4-.4-.2-.1-.4-.2-.7-.2-.2 0-.4 0-.5.1-.1 0-.3.1-.4.2-.1 0-.1.1-.1.1 0 .1-.1.1-.1.1v3.8h.5v.4h-1.5-.1V84v-.1h.5v-6.8h-.1V76.8v-.1l.1-.1h.4s.1 0 .1.1V79h1.1c.2 0 .4 0 .7.1l.6.3c.1.1.2.1.2.2.1.1.1.2.2.3.1.2.1.4.1.7V84h.4c.2.1.3.1.3.2zM131.3 79.3V79.6l-.1.1h-.4v3.4c0 .3 0 .5-.1.7-.1.2-.2.4-.4.5l-.6.3c-.2.1-.4.1-.7.1h-1.8-.1V84.4v-.1l.1-.1v-4.4h-.4s-.1 0-.1-.1V79.4v-.1h1.6v.4l-.1.1h-.4v3.5c0 .1 0 .2.1.3.1.2.2.3.4.4.2.1.4.1.7.1.3 0 .5 0 .7-.1.2-.1.3-.2.4-.4.1-.1.1-.3.1-.4v-3.4h-.4s-.1 0-.1-.1V79.4c0-.1.1-.2.2-.2h1.4c-.1-.1 0 0 0 .1zM138 84.1v.4h-1.5-.1V84.2v-.1h.5v-3.5-.3c0-.1-.1-.2-.1-.3-.1-.1-.2-.2-.3-.2-.1 0-.3-.1-.4-.1-.2 0-.3 0-.4.1-.1 0-.2.1-.3.2-.1.1-.1.2-.1.3v4.2c0 .1-.1.2-.2.2h-.3-.1l-.1-.1v-3.9-.3c0-.1-.1-.2-.1-.3-.1-.1-.2-.2-.3-.2-.1 0-.3-.1-.4-.1-.2 0-.3 0-.4.1-.1 0-.2.1-.3.2-.1.1-.1.2-.1.3v3.8h.4c.1 0 .2.1.2.2v.2c0 .1-.1.2-.2.2H132c-.1 0-.2-.1-.2-.2v-.2c0-.1.1-.2.2-.2h.4v-4.4c-.1 0-.2-.1-.2-.2v-.2c0-.1.1-.2.2-.2h1.4c.2 0 .4 0 .6.1.2.1.4.2.5.3.1-.2.3-.3.5-.3.2-.1.4-.1.6-.1.2 0 .4 0 .5.1.2 0 .3.1.5.2.1.1.2.2.3.4.1.2.1.4.1.7v3.5H138zM142.7 84.1h.1v.4l-.1.1h-1.8c-.4 0-.7-.1-1-.2-.3-.1-.5-.4-.7-.7-.1-.1-.1-.3-.1-.4V83v-.3c0-.1.1-.3.1-.4.1-.2.2-.4.4-.5l.6-.3c.2-.1.4-.1.7-.1.3 0 .5 0 .7-.1.2-.1.3-.2.4-.4.1-.1.1-.2.1-.3v-.2c0-.1 0-.1-.1-.1-.1-.1-.1-.2-.2-.3-.2-.2-.5-.3-.9-.3-.3 0-.5 0-.7.1-.2.1-.3.2-.4.4-.1.1-.1.3-.1.4v.1H139.4h-.1l-.1-.1c0-.2 0-.4.1-.7.1-.2.2-.4.4-.5l.6-.3c.2-.1.4-.1.7-.1.4 0 .7.1 1 .2.1.1.3.2.4.3.1.1.2.2.3.4.1.2.1.4.1.6l-.1 3.6zm-1.8 0c.3 0 .5 0 .7-.1.2-.1.3-.2.4-.4.1-.1.1-.2.1-.3v-1-.1H141c-.4 0-.7.1-.9.3-.1.1-.2.2-.2.3 0 .1-.1.2-.1.3v.4c0 .1 0 .2.1.3 0 .1.1.2.2.2.1.1.1.1.3.2.1-.2.3-.1.5-.1zM148 84.1l.1.1v.2s0 .1-.1.1l-.1.1h-1.4s-.1 0-.1-.1V84.2v-.1h.5v-3.4c0-.2 0-.3-.1-.4-.1-.2-.2-.3-.4-.4-.2-.1-.4-.1-.7-.1-.3 0-.5 0-.7.1-.2.1-.3.2-.4.4-.1.1-.1.2-.1.3v3.5h.5v.4l-.1.1h-1.4s-.1 0-.1-.1V84.2v-.1h.5v-4.4h-.1V79.4v-.1H145.7c.2 0 .4 0 .7.1l.6.3c.1.1.2.1.2.2.1.1.1.2.2.3.1.2.1.4.1.7v3.4h.4l.1-.2zM150.2 84.1h.1l.1.1v.2s0 .1-.1.1h-1.5-.1l-.1-.1v-.2s0-.1.1-.1h.5v-4.3-.1l-.1-.1h-.6c-.1 0-.2-.1-.2-.2v-.2c0-.1.1-.2.2-.2H149.9v.4h-.1v4.4h.4zm-1-6.8h-.1V77v-.1l.1-.1h.4s.1 0 .1.1v.4h-.5zM154.4 77.2c-.1 0-.2-.1-.2-.2v-.2c0-.1.1-.2.2-.2h.5v7.3h.1v.4l-.1.1h-1.8c-.4 0-.7-.1-1-.2-.3-.1-.5-.4-.7-.7-.1-.1-.1-.3-.1-.4V80.4c0-.3 0-.5.1-.7.1-.2.2-.4.4-.5l.6-.3c.2-.1.4-.1.7-.1h1.1v-1.6zM152 83v.2c0 .1 0 .2.1.3.1.2.2.3.4.4.2.1.4.1.7.1s.5 0 .7-.1c.2-.1.3-.2.4-.4.1-.1.1-.2.1-.3v-2.6-.2c0-.1 0-.1-.1-.1-.1-.1-.1-.2-.2-.3-.2-.2-.5-.3-.9-.3-.3 0-.5 0-.7.1-.2.1-.3.2-.4.4-.1.1-.1.3-.1.4V83zM159.6 84.1h.1v.4l-.1.1h-1.8c-.4 0-.7-.1-1-.2-.3-.1-.5-.4-.7-.7-.1-.1-.1-.3-.1-.4V83v-.3c0-.1.1-.3.1-.4.1-.2.2-.4.4-.5l.6-.3c.2-.1.4-.1.7-.1.3 0 .5 0 .7-.1.2-.1.3-.2.4-.4.1-.1.1-.2.1-.3v-.2c0-.1 0-.1-.1-.1-.1-.1-.1-.2-.2-.3-.2-.2-.5-.3-.9-.3-.3 0-.5 0-.7.1-.2.1-.3.2-.4.4-.1.1-.1.3-.1.4v.1H156.3h-.1v-.1c0-.2 0-.4.1-.7.1-.2.2-.4.4-.5l.6-.3c.2-.1.4-.1.7-.1.4 0 .7.1 1 .2.1.1.3.2.4.3.1.1.2.2.3.4.1.2.1.4.1.6l-.2 3.6zm-1.7 0c.3 0 .5 0 .7-.1.2-.1.3-.2.4-.4.1-.1.1-.2.1-.3v-1s0-.1-.1-.1h-1.1c-.4 0-.7.1-.9.3-.1.1-.2.2-.2.3 0 .1-.1.2-.1.3v.4c0 .1 0 .2.1.3 0 .1.1.2.2.2l.2.2c.2-.2.4-.1.7-.1zM163.7 77.2c-.1 0-.2-.1-.2-.2v-.2c0-.1.1-.2.2-.2h.5v7.3h.1v.4l-.1.1h-1.8c-.4 0-.7-.1-1-.2-.3-.1-.5-.4-.7-.7-.1-.1-.1-.3-.1-.4V80.4c0-.3 0-.5.1-.7.1-.2.2-.4.4-.5l.6-.3c.2-.1.4-.1.7-.1h1.1l.1-.1v-1.5zm-2.4 5.8v.2c0 .1 0 .2.1.3.1.2.2.3.4.4.2.1.4.1.7.1.3 0 .5 0 .7-.1.2-.1.3-.2.4-.4.1-.1.1-.2.1-.3v-2.6-.2c0-.1 0-.1-.1-.1-.1-.1-.1-.2-.2-.3-.2-.2-.5-.3-.9-.3-.3 0-.5 0-.7.1-.2.1-.3.2-.4.4-.1.1-.1.3-.1.4V83zM168.8 82.9h.1v.1c0 .3 0 .5-.1.7-.1.2-.2.4-.4.5-.2.1-.3.2-.6.3-.2.1-.4.1-.7.1h-1.8s-.1 0-.1-.1V84.2v-.1h.1v-3.4-.3c0-.1.1-.2.1-.3.1-.1.2-.3.3-.4.1-.1.2-.2.4-.3.3-.1.6-.2 1-.2.2 0 .4 0 .7.1l.6.3c.2.1.3.3.4.5.1.2.1.4.1.7 0 .3 0 .5-.1.7-.1.2-.2.3-.4.5-.2.1-.3.2-.6.3-.2.1-.4.1-.7.1-.2 0-.4 0-.5.1-.1 0-.3.1-.4.2-.1.1-.2.2-.2.3 0 0 0 .1-.1.1V83.4c0 .1 0 .2.1.3.1.2.2.3.4.4.2.1.4.1.7.1.3 0 .5 0 .7-.1.2-.1.3-.2.4-.4.1-.1.1-.3.1-.4v-.1h.5zm-2.8-2.7s0 .1-.1.1V81.5h1.1c.3 0 .5-.1.7-.2.2-.1.3-.2.4-.4.1-.1.1-.3.1-.4 0-.2 0-.3-.1-.4-.1-.2-.2-.3-.4-.4-.2-.1-.4-.1-.7-.1-.4 0-.7.1-.9.3.1.1 0 .2-.1.3z"/><g><path class="st1" d="M18.7 49.4c.4 0 .6.2.6.6v.9c0 .2-.1.3-.2.4-.1.1-.2.2-.4.2h-1.5l-6.4 16h1.5c.2 0 .3.1.4.2.1.1.2.2.2.4v.9c0 .2-.1.3-.2.4-.1.1-.2.2-.4.2H7.2c-.1 0-.3-.1-.4-.2-.1-.1-.2-.3-.2-.4v-1c0-.1.1-.3.2-.4.1-.1.2-.2.4-.2h1.5l-6.4-16H.8c-.2 0-.3-.1-.4-.2-.1-.1-.2-.3-.2-.4v-.9c0-.4.2-.6.6-.6h5.1c.4 0 .6.2.6.6v.9c0 .2-.1.3-.2.4-.1.1-.2.2-.4.2H4.4l4.5 11.1c.3.6.6.9.8.9s.6-.3.8-1l4.5-11h-1.5c-.2 0-.3-.1-.4-.2-.1-.1-.2-.3-.2-.4v-.9c0-.4.2-.6.6-.6h5.2zM28.1 67.4c.2 0 .3.1.4.2s.2.2.2.4v.9c0 .2-.1.3-.2.4s-.3.2-.4.2h-5c-.2 0-.3-.1-.4-.2-.1-.1-.2-.2-.2-.4V68c0-.2.1-.3.2-.4.1-.1.3-.2.4-.2h1.5V52c0-.1-.1-.3-.2-.4s-.3-.2-.4-.2h-2.1c-.4 0-.6-.2-.6-.6V50c0-.4.2-.6.6-.6h4.8c.2 0 .3.1.4.2.1.1.2.2.2.4v.9c0 .2-.1.3-.2.4s-.3.2-.4.2v16h1.4zm-3.5-24.7c-.2 0-.3-.1-.4-.2-.2-.1-.2-.2-.2-.4v-.8c0-.2.1-.3.2-.4.1-.1.3-.2.4-.2H26c.2 0 .3.1.4.2.1.1.2.3.2.4v.8c0 .2-.1.3-.2.4-.1.1-.2.2-.4.2h-1.4zM49.6 49.9v.9c0 .2-.1.3-.2.4-.1.1-.2.2-.4.2h-1.5l-6.4 16h1.5c.2 0 .3.1.4.2.1.1.2.2.2.4v.9c0 .2-.1.3-.2.4-.1.1-.2.2-.4.2h-5.1c-.1 0-.3-.1-.4-.2 0-.1-.1-.3-.1-.4V68c0-.1.1-.3.2-.4.1-.1.2-.2.4-.2h1.5l-6.4-16h-1.5c-.2 0-.3-.1-.4-.2-.1-.1-.2-.3-.2-.4v-.9c0-.4.2-.6.6-.6h5.1c.4 0 .6.2.6.6v.9c0 .2-.1.3-.2.4-.1.1-.2.2-.4.2h-1.5l4.5 11.1c.3.6.6.9.8.9.3 0 .6-.3.8-1l4.5-11H44c-.2 0-.3-.1-.4-.2-.1-.1-.2-.3-.2-.4v-.9c0-.4.2-.6.6-.6h5.1c.4.1.5.3.5.6zM65.7 67.4c.1 0 .3.1.4.2.1.1.2.3.2.4v.8c0 .2-.1.3-.2.4-.1.1-.2.2-.4.2H59.3c-1.3 0-2.5-.3-3.5-.8s-1.8-1.3-2.4-2.4c-.3-.5-.4-1-.5-1.5 0-.5-.1-.9-.1-1.2 0-.3 0-.7.1-1.2 0-.5.2-1 .5-1.5.4-.8.9-1.3 1.5-1.8s1.3-.8 2.1-1c.8-.2 1.5-.3 2.4-.3 1 0 1.9-.2 2.5-.5.7-.4 1.2-.9 1.5-1.5.2-.4.3-.8.3-1.2 0-.3 0-.5-.1-.7-.1-.2-.1-.4-.2-.5-.2-.4-.5-.8-.8-1.1-.8-.6-1.8-.9-3.2-.9-1 0-1.9.2-2.5.5-.7.3-1.2.8-1.5 1.5-.2.4-.3.9-.3 1.5 0 .2-.1.3-.2.4-.1.1-.3.2-.4.2h-.8c-.2 0-.3-.1-.4-.2-.1-.1-.2-.2-.2-.4 0-.8.2-1.6.5-2.4.4-.8.9-1.3 1.5-1.8s1.3-.8 2.1-1c.8-.2 1.5-.3 2.4-.3 1.3 0 2.5.3 3.5.8.5.2 1 .6 1.4 1 .4.4.7.9 1 1.4.3.7.5 1.5.5 2.3l-.3 12.6zm-6.4 0c.9 0 1.8-.2 2.5-.5s1.2-.8 1.5-1.5c.2-.4.3-.8.3-1.3v-3.7c0-.2-.1-.3-.2-.4-.1-.1-.3-.2-.4-.2h-3.8c-1.4 0-2.4.3-3.2.9-.4.3-.6.6-.8 1.1-.2.3-.3.6-.3 1 0 .3-.1.6-.1.8 0 .2 0 .5.1.8 0 .3.1.7.3 1 .2.3.4.6.6.8.2.2.5.5.9.6.8.4 1.7.6 2.6.6zM92.7 67.4c.1 0 .3.1.4.2.1.1.2.3.2.4v.8c0 .2-.1.3-.2.4-.1.1-.2.2-.4.2H86.3c-1.3 0-2.5-.3-3.5-.8s-1.8-1.3-2.4-2.4c-.3-.5-.4-1-.5-1.5 0-.5-.1-.9-.1-1.2 0-.3 0-.7.1-1.2 0-.5.2-1 .5-1.5.4-.8.9-1.3 1.5-1.8s1.3-.8 2.1-1c.8-.2 1.5-.3 2.4-.3 1 0 1.9-.2 2.5-.5.7-.4 1.2-.9 1.5-1.5.2-.4.3-.8.3-1.2 0-.3 0-.5-.1-.7-.1-.2-.1-.4-.2-.5-.2-.4-.5-.8-.8-1.1-.8-.6-1.8-.9-3.2-.9-1 0-1.9.2-2.5.5-.7.3-1.2.8-1.5 1.5-.2.4-.3.9-.3 1.5 0 .2-.1.3-.2.4-.1.1-.3.2-.4.2h-.8c-.2 0-.3-.1-.4-.2-.1-.1-.2-.2-.2-.4 0-.8.2-1.6.5-2.4.4-.8.9-1.3 1.5-1.8s1.3-.8 2.1-1c.8-.2 1.5-.3 2.4-.3 1.3 0 2.5.3 3.5.8.5.2 1 .6 1.4 1 .4.4.7.9 1 1.4.3.7.5 1.5.5 2.3l-.3 12.6zm-6.4 0c.9 0 1.8-.2 2.5-.5s1.2-.8 1.5-1.5c.2-.4.3-.8.3-1.3v-3.7c0-.2-.1-.3-.2-.4-.1-.1-.3-.2-.4-.2h-3.8c-1.4 0-2.4.3-3.2.9-.4.3-.6.6-.8 1.1-.2.3-.3.6-.3 1 0 .3-.1.6-.1.8 0 .2 0 .5.1.8 0 .3.1.7.3 1 .2.3.4.6.6.8.2.2.5.5.9.6.8.4 1.7.6 2.6.6zM111.1 43.8c.3.8.5 1.6.5 2.4 0 .1-.1.3-.2.4-.1.1-.2.2-.4.2h-.9c-.2 0-.3-.1-.4-.2s-.2-.2-.2-.4c0-.6-.1-1.1-.3-1.5-.3-.6-.8-1.1-1.5-1.5-.8-.4-1.6-.5-2.6-.5-.6 0-1.2.1-1.8.2-.5.2-1 .4-1.4.7-.4.3-.7.6-.9 1.1-.1.1-.1.3-.2.5s-.1.4-.1.7v3.5h8.1c.2 0 .3.1.4.2.1.1.2.2.2.4v.9c0 .2-.1.3-.2.4-.1.1-.3.2-.4.2H105c-1.1 0-1.9.2-2.6.5-.7.3-1.2.8-1.5 1.5-.2.4-.3.8-.3 1.2v12.8h1.5c.2 0 .3.1.4.2.1.1.2.3.2.4v.8c0 .2-.1.3-.2.4-.1.1-.2.2-.4.2H97c-.2 0-.3-.1-.4-.2-.1-.1-.2-.3-.2-.4V68c0-.2.1-.3.2-.4.1-.1.2-.2.4-.2h1.5v-16h-1.7c-.2 0-.3-.1-.4-.2-.1-.1-.2-.3-.2-.4v-.9c0-.1.1-.3.2-.4.1-.1.3-.2.4-.2h1.1c.1 0 .3-.1.4-.2.1-.1.2-.2.2-.4V46c0-.9.2-1.7.5-2.3.5-1.1 1.3-1.8 2.4-2.4 1-.5 2.1-.7 3.4-.7.8 0 1.6.1 2.4.3.8.2 1.4.6 2.1 1 1 .6 1.5 1.2 1.8 1.9zM126 52.5c.3.8.5 1.5.5 2.4 0 .2-.1.3-.2.4-.1.1-.3.2-.4.2h-.8c-.2 0-.3-.1-.4-.2-.1-.1-.2-.2-.2-.4 0-.6-.1-1.1-.3-1.5-.3-.6-.8-1.1-1.5-1.5-.7-.3-1.6-.5-2.6-.5-.9 0-1.8.2-2.5.5-.7.4-1.2.8-1.5 1.5-.2.4-.3.8-.3 1.3v12.7h1.5c.2 0 .3.1.4.2.1.1.2.3.2.4v.8c0 .2-.1.3-.2.4-.1.1-.3.2-.4.2h-5.1c-.1 0-.3-.1-.4-.2-.1-.1-.2-.3-.2-.4V68c0-.2.1-.3.2-.4.1-.1.2-.2.4-.2h1.5v-16c-.1 0-.3-.1-.4-.2-.1-.1-.2-.3-.2-.4V50c0-.2.1-.3.2-.4.1-.1.2-.2.4-.2h6.4c.8 0 1.6.1 2.4.3.8.2 1.4.6 2.1 1 .5.5 1 1.1 1.4 1.8zM135.4 67.4c.2 0 .3.1.4.2.1.1.2.2.2.4v.9c0 .2-.1.3-.2.4-.1.1-.3.2-.4.2h-5c-.2 0-.3-.1-.4-.2-.1-.1-.2-.2-.2-.4V68c0-.2.1-.3.2-.4.1-.1.3-.2.4-.2h1.5V52c0-.1-.1-.3-.2-.4-.1-.1-.3-.2-.4-.2h-2.1c-.4 0-.6-.2-.6-.6V50c0-.4.2-.6.6-.6h4.8c.2 0 .3.1.4.2.1.1.2.2.2.4v.9c0 .2-.1.3-.2.4-.1.1-.3.2-.4.2v16h1.4zm-3.5-24.7c-.2 0-.3-.1-.4-.2-.1-.1-.2-.3-.2-.4v-.8c0-.2.1-.3.2-.4.1-.1.3-.2.4-.2h1.5c.2 0 .3.1.4.2.1.1.2.3.2.4v.8c0 .2-.1.3-.2.4-.1.1-.2.2-.4.2h-1.5zM146.4 67.4c.9 0 1.8-.2 2.5-.5.7-.4 1.2-.9 1.5-1.5.2-.4.3-.9.3-1.5 0-.2.1-.3.2-.4.1-.1.3-.2.4-.2h.8c.2 0 .3.1.4.2.1.1.2.3.2.4 0 .8-.2 1.6-.5 2.4-.4.8-.9 1.3-1.5 1.8s-1.3.8-2.1 1c-.8.2-1.6.3-2.4.3H140c-.2 0-.3-.1-.4-.2-.1-.1-.2-.3-.2-.4V68c0-.2.1-.3.2-.4.1-.1.2-.2.4-.2V54.9c0-.9.2-1.7.5-2.3.2-.5.6-1 1-1.4.4-.4.9-.7 1.4-1 1-.5 2.2-.8 3.5-.8.8 0 1.6.1 2.4.3.8.2 1.4.6 2.1 1 .6.4 1.1 1 1.5 1.8.3.8.5 1.5.5 2.4 0 .2-.1.3-.2.4-.1.1-.3.2-.4.2h-.8c-.2 0-.3-.1-.4-.2-.1-.1-.2-.2-.2-.4 0-.6-.1-1.1-.3-1.5-.3-.6-.8-1.1-1.5-1.5-.7-.3-1.5-.5-2.5-.5-1.3 0-2.4.3-3.2.9-.4.3-.7.6-.8 1.1-.1.1-.1.3-.2.5s-.1.5-.1.7v9.5c0 .4.1.8.3 1.3.3.6.8 1.1 1.5 1.5.6.3 1.4.5 2.3.5zM169.8 67.4c.1 0 .3.1.4.2.1.1.2.3.2.4v.8c0 .2-.1.3-.2.4-.1.1-.2.2-.4.2H163.4c-1.3 0-2.5-.3-3.5-.8s-1.8-1.3-2.4-2.4c-.3-.5-.4-1-.5-1.5 0-.5-.1-.9-.1-1.2 0-.3 0-.7.1-1.2 0-.5.2-1 .5-1.5.4-.8.9-1.3 1.5-1.8s1.3-.8 2.1-1c.8-.2 1.5-.3 2.4-.3 1 0 1.9-.2 2.5-.5.7-.4 1.2-.9 1.5-1.5.2-.4.3-.8.3-1.2 0-.3 0-.5-.1-.7-.1-.2-.1-.4-.2-.5-.2-.4-.5-.8-.8-1.1-.8-.6-1.8-.9-3.2-.9-1 0-1.9.2-2.5.5-.7.3-1.2.8-1.5 1.5-.2.4-.3.9-.3 1.5 0 .2-.1.3-.2.4-.1.1-.3.2-.4.2h-.8c-.2 0-.3-.1-.4-.2-.1-.1-.2-.2-.2-.4 0-.8.2-1.6.5-2.4.4-.8.9-1.3 1.5-1.8s1.3-.8 2.1-1c.8-.2 1.5-.3 2.4-.3 1.3 0 2.5.3 3.5.8.5.2 1 .6 1.4 1 .4.4.7.9 1 1.4.3.7.5 1.5.5 2.3l-.3 12.6zm-6.5 0c.9 0 1.8-.2 2.5-.5s1.2-.8 1.5-1.5c.2-.4.3-.8.3-1.3v-3.7c0-.2-.1-.3-.2-.4-.1-.1-.3-.2-.4-.2h-3.8c-1.4 0-2.4.3-3.2.9-.4.3-.6.6-.8 1.1-.2.3-.3.6-.3 1 0 .3-.1.6-.1.8 0 .2 0 .5.1.8 0 .3.1.7.3 1 .2.3.4.6.6.8.2.2.5.5.9.6.8.4 1.7.6 2.6.6z"/><g><path class="st0" d="M87.8 43.3c.1-.1.1-.2.2-.2.1-.1.2-.1.3-.2.1 0 .2-.1.4-.1h1.2c.2 0 .3.1.3.1.1.1.1.1.1.2s-.1.2-.1.2l-2.5 3.2c-.1.1-.1.2-.2.2-.1.3-.2.3-.3.3-.1 0-.2.1-.3.1h-1c-.1 0-.2-.1-.3-.1-.1 0-.1-.1-.1-.2s.1-.2.1-.3l2.2-3.2z"/></g></g><g><path class="st2" d="M82.6 5.8c0 .1.1.1.1.1l2.5 2.5s.1.1.2.1.1 0 .2-.1L88 5.9l-2.5-1.6h-.2l-2.5 1.6c-.2-.3-.2-.2-.2-.1 0-.1 0-.1 0 0 0-.1 0-.1 0 0 0-.1 0-.1 0 0 0-.1 0-.1 0 0zm2.7-1.4l1.5 1.3-1.5 2-1.5-2 1.5-1.3zM84.1 1.1c0 .1 0 .1 0 0 0 .1.1.1.1.1l1 1s.1.1.2.1.1 0 .2-.1l1-1-1-.6h-.1-.1l-1 .6c-.3-.2-.3-.2-.3-.1 0-.1 0-.1 0 0 0-.1 0-.1 0 0 0-.1 0-.1 0 0zm1.2-.4l.8.4-.8.6-.8-.6.8-.4zM89 26.7c-.1-.1-.1-.1 0 0-.1-.1-.1-.1 0 0-.1-.1-.1-.1 0 0v-.1l-3.4-2.7s-.1-.1-.2-.1-.1 0-.2.1l-3.4 2.7 3.4 2.7s.1.1.2.1.1 0 .2-.1l3.4-2.7v.1c0 .1 0 .1 0 0zm-3.7 2.4L83 26.7l2.3-2.3 2.3 2.3-2.3 2.4z"/><path class="st2" d="M156.2 21.6c-.1 0-.1 0 0 0-.1 0-.1-.1 0 0-.1-.1-.1-.1 0 0v-.1l-3-5.2-25-3.7-7.6 4.2-3.5-2.8-6.3 7.1-4.6-3.2.4-2.7-5.9-1L91 7.8 85.3 12l-5.4-4.1-8.7 6.1-5.9 1 .4 2.7-4.6 3.2-6.8-6.9-3.5 2.8-7.6-4.2-25 3.7-3 5.2 5.9 2.8 1.4-4.6h-3.7l-.7 1.7 2 .3.1-.9c0-.1-.1-.3-.2-.3s-.3.1-.3.2v.8l-1.7-.1.4-1.4 3 .5-.9 3.6-5.1-2.6 2.5-4.8 24.5-3.3 7.5 3.9-6.5 5.2 4.7 4 2.7-2.7.1-.1c0-.1 0-.2-.1-.2l-2.4-2.4-2 1.2 1.6 1.6.8-.7c.1-.1.1-.2 0-.3-.1-.1-.2-.1-.3 0l-.6.8-1.2-1.4 1.5-1.2 2.1 2.4-2.4 1.6-4-2.9 6.5-4.9 9.8 5.1h.2l4.7-3.6.6 3.4 5.5-2.7-2-2.3-1.2.9v1.7l1.3-.6c.1-.1.2-.2.1-.3-.1-.1-.2-.2-.3-.1l-.9 1.2.2-1.4 1.3-.8 1.1 2.1-4.4 2.5-.5-3.6L79.7 8.3l4.3 3.9-5.4 4.8 6.6 5 .1.1c.1 0 .1 0 .1-.1l6.6-5-5.4-4.8 4.3-3.9 13.8 10.5-.5 3.6-4.4-2.5 1.1-2.1 1.3.8.2 1.4-1.1-.7c-.1-.1-.3 0-.3.1-.1.1 0 .3.1.3l1.3.6v-1.7l-1.6-.7-2 2.3 5.5 2.7.6-3.4 4.7 3.6h.2l9.8-5.1 6.5 4.9-4 2.9-2.4-1.6 2.1-2.4 1.5 1.2-1.2 1.4-.6-.8c-.1-.1-.3-.1-.3 0-.1.1-.1.3 0 .3l.8.7 1.6-1.6-2-1.2-2.4 2.4c-.1.1-.1.1-.1.2 0 0 0 .1.1.1l2.7 2.7 4.7-4-6.5-5.2 7.5-3.9 24.5 3.3 2.5 4.8-5.1 2.6-.9-3.6 3-.5.4 1.4-1.4.3v-.8c0-.1-.1-.2-.3-.2-.1 0-.2.1-.2.3l.1.9 2-.3-.7-1.7h-3.7l1.4 4.6 5.9-2.8c1-.7 1-.7 1.1-.8-.1.1 0 .1 0 0 0 .1 0 .1 0 0 0 .1 0 .1 0 0zM51.3 17.2l2.8-2.1 4.6 5.7-7.4-3.6zm14.2-1.6l4.2-.9-4 2.8-.2-1.9zm25.3 1.6l-5.5 4.7-5.5-4.7 5.5-4.7 5.5 4.7zm10.1-2.5l4.2.9-.2 1.9-4-2.8zm11 6.2l4.6-5.7 2.8 2.1-7.4 3.6z"/></g><path class="st2" d="M127.8 107c0-.1 0-.1 0 0 0-.1 0-.1 0 0 0-.1 0-.1 0 0 0-.1 0-.1 0 0 0-.1 0-.1 0 0 0-.1 0-.1 0 0 0-.1 0-.1 0 0l-5.9-5.9-3 4.6 3.7 1.4.9-2-1.9-.5c-.1 0-.2 0-.2.1s0 .2.1.2l1.1.5-.4 1.5-2.2-1.2 1.9-3.7 4.5 5.2-6.8 3.8-17.4-11.6H95l-2.2-1.5H87l.9 4H83l.9-4h-5.8l-2.2 1.5h-7.2L51.3 111l-6.8-3.8L49 102l1.9 3.7-2.2 1.2-.4-1.5 1.1-.5c.1 0 .1-.1.1-.2s-.1-.1-.2-.1l-1.9.5.9 2 3.7-1.4-3-4.6-5.8 5.8 8.2 4.1 17.3-10.8 6.3-.6-8.6 6.8-2.1-.1 1.5-2.3 1.5 1-1.3.5-.2-.6.4.1c.1 0 .1-.1.1-.1 0-.1 0-.1-.1-.2l-.4-.1-.1 1 1.6-.8-1.6-1.6-1.7 3 2.4.6 9.3-7.5 4.4-.4.6 1.2-1.8.2-.3-.5h.8l.1.2c0 .1.1.1.1.1.1 0 .1-.1.1-.2l-.1-.4-.9.3.2.7 2-.4-.4-1.4h-3.9l1.6-1.3 4.8.8-.5 3.1h-3.6l-8.4 6.9 2.5 2.5 9.3-5.6.9-3.5 2.3-.2 2.5.2.9 3.5 9.3 5.6 2.5-2.5-8.4-6.9h-3.6l-.5-3.1 4.8-.8 1.6 1.3h-3.9l-.4 1.4 2 .4.2-.7-.9-.3-.1.4c0 .1 0 .2.1.2s.1 0 .1-.1l.1-.2h.8l-.3.5-1.8-.2.6-1.2 4.4.4 9.3 7.5 2.4-.6-1.7-3-1.6 1.6 1.6.8-.1-1-.4.1c-.1 0-.1.1-.1.2s.1.1.1.1l.4-.1-.2.6-1.3-.5 1.5-1 1.5 2.3-2.1.1-8.6-6.8 6.3.6 17.3 10.8 8.2-4.1c-.2.2-.2.2-.2.1 0 .1 0 0 0 0zm-46.3-1.6l-9 4.7-1.8-1.4 8.2-6.3 3.1-.2-.5 3.2zm10.1-3l8.2 6.3-1.8 1.4-9-4.7-.6-3.2 3.2.2z"/></svg>