<svg id="Layer_1" xmlns="http://www.w3.org/2000/svg" viewBox="0 0 85.04 21.09"><style>.st0{fill:#FFFFFF;}</style><path class="st0" d="M7.75 11.17H4.84l1.54-5.05 1.37 5.05zm-4.41 5.56l.99-3.32h3.91l.93 3.32h3.63L9.19 4.08c-.21-.74-.66-1.09-1.44-1.09H2.62v1.19h.43c.53 0 .82.21.82.62 0 .27-.06.5-.27 1.11L0 16.73h3.34zM16.97 16.73V4.04c0-.66-.39-1.05-1.03-1.05h-3.17v1.19h.21c.54 0 .76.23.76.76v11.78h3.23zM22.46 16.73V4.04c0-.66-.39-1.05-1.03-1.05h-3.17v1.19h.21c.54 0 .76.23.76.76v11.78h3.23zM28.1 4.24c0-.93-.68-1.48-1.85-1.48-1.15 0-1.85.56-1.85 1.48 0 .93.7 1.48 1.85 1.48 1.17.01 1.85-.55 1.85-1.48m-.06 12.49V7.48c0-.66-.39-1.05-1.03-1.05h-3.13V7.6h.19c.54 0 .76.25.76.78v8.34h3.21zM35.12 11.78v2c-.54.56-1.19.89-1.75.89-.58 0-.78-.29-.78-1.05s.16-1.11.74-1.34c.43-.19.99-.35 1.79-.5m-4.34-2.41c1.07-.51 2.25-.8 3.17-.8.86 0 1.17.31 1.17 1.22v.23c-1.32.21-1.73.29-2.47.45-.43.1-.82.23-1.22.39-1.3.51-1.91 1.52-1.91 3.07 0 1.96.84 2.91 2.59 2.91.64 0 1.22-.12 1.73-.33.45-.21.72-.37 1.38-.89v.14c0 .64.33.97.97.97h2.95v-1.11H39c-.56 0-.76-.25-.76-.91v-4.9c0-2.62-.91-3.52-3.52-3.52-.85 0-1.67.1-2.47.29-.8.18-1.21.35-2.18.82l.71 1.97zM43.83 16.73V9.76c.54-.6 1.09-.87 1.73-.87.68 0 .84.27.84 1.3v6.53h3.21v-7c0-1.63-.12-2.14-.64-2.7-.43-.47-1.09-.72-1.94-.72-1.26 0-2.14.39-3.34 1.5v-.41c0-.64-.33-.97-.99-.97h-3.05V7.6h.18c.54 0 .76.25.76.78v8.34h3.24zM59.15 14.56h-4.49l4.29-6.02V6.43h-6.72c-.76 0-1.11.35-1.11 1.11v1.87h1.19v-.18c0-.47.25-.7.76-.7h2.31l-4.33 6.08v2.12h8.1v-2.17zM76.02 16.46V4.82c0-.93-.33-1.24-1.23-1.24h-2.72v1.3h.16c.62 0 .74.14.74.89v10.69h3.05zm1.34 0h3.03V7.4c0-.91-.35-1.24-1.23-1.24h-1.79v10.3zm-5.73 0V6.16h-1.79c-.89 0-1.24.33-1.24 1.24v9.06h3.03zm11.62-5.91c0 5.13-3.69 8.86-8.76 8.86-5.06 0-8.75-3.73-8.75-8.86 0-5.13 3.69-8.86 8.75-8.86 5.07 0 8.76 3.75 8.76 8.86m1.79 0C85.04 4.51 80.53 0 74.49 0c-6.03 0-10.54 4.51-10.54 10.55 0 6.04 4.51 10.55 10.54 10.55 6.04-.01 10.55-4.52 10.55-10.55"/></svg>